<mxfile host="app.diagrams.net" agent="Mozilla/5.0 (Macintosh; Intel Mac OS X 10_15_7) AppleWebKit/537.36 (KHTML, like Gecko) Chrome/133.0.0.0 Safari/537.36" version="26.0.11">
  <diagram id="wtUs92ehZLiUcDSNzV-Q" name="Page-1">
    <mxGraphModel dx="1375" dy="683" grid="1" gridSize="10" guides="1" tooltips="1" connect="1" arrows="1" fold="1" page="1" pageScale="1" pageWidth="850" pageHeight="1100" math="0" shadow="0">
      <root>
        <mxCell id="0" />
        <mxCell id="1" parent="0" />
        <mxCell id="xEFxBhoDUxxN1TiM_tYG-1" value="&lt;span style=&quot;font-size: 14px;&quot;&gt;Architecture Vision&lt;/span&gt;" style="text;html=1;align=center;verticalAlign=middle;resizable=0;points=[];autosize=1;strokeColor=#d6b656;fillColor=#fff2cc;" vertex="1" parent="1">
          <mxGeometry x="245" y="140" width="140" height="30" as="geometry" />
        </mxCell>
        <mxCell id="xEFxBhoDUxxN1TiM_tYG-2" value="" style="shape=image;verticalLabelPosition=bottom;labelBackgroundColor=default;verticalAlign=top;aspect=fixed;imageAspect=0;image=data:image/png,iVBORw0KGgoAAAANSUhEUgAABHgAAAM6CAYAAAD6xfSqAAABX2lDQ1BJQ0MgUHJvZmlsZQAAKJFtkE9LAlEUxY+mCTFYUEhEi1lUKwsbDdqqRRQuBk36sxtHHQMdHzMj1a5F7YXatAvb9AmqRYu+QULQIiLati1yUzLd51Sj1Xtczo/DvZfLAbyCwljZB6CiW0Z6KSGub2yKgWd40Q8BkwgqqsnispyiFnxr72vdwcP1dprvWhnzD7+EMsHmZc2q7xSzf/t73kC+YKqkH1SSygwL8ESI5W2Lcd4jHjHoKOIjzprDZ5xzDl91elbTSeIm8ZBaUvLET8ThXJevdXGlXFO/buDXCwU9myENUY1jAYtI0RchI4oYJMxijTL6fybWmUmiCoZdGNiChhIsmo6Tw1BGgXgZOlTMIEwsIUI1x7P+naHrVRvA/BvQV3e93DFwcQCM3rvexAkwuA+c3zDFUH6S9bR8ZjEqOSwkAP+jbb9OAYFDoF237feGbbdPaf8DcK1/AiyxYoDmX1y1AAAAVmVYSWZNTQAqAAAACAABh2kABAAAAAEAAAAaAAAAAAADkoYABwAAABIAAABEoAIABAAAAAEAAAR4oAMABAAAAAEAAAM6AAAAAEFTQ0lJAAAAU2NyZWVuc2hvdAmkA/cAAAHXaVRYdFhNTDpjb20uYWRvYmUueG1wAAAAAAA8eDp4bXBtZXRhIHhtbG5zOng9ImFkb2JlOm5zOm1ldGEvIiB4OnhtcHRrPSJYTVAgQ29yZSA2LjAuMCI+CiAgIDxyZGY6UkRGIHhtbG5zOnJkZj0iaHR0cDovL3d3dy53My5vcmcvMTk5OS8wMi8yMi1yZGYtc3ludGF4LW5zIyI+CiAgICAgIDxyZGY6RGVzY3JpcHRpb24gcmRmOmFib3V0PSIiCiAgICAgICAgICAgIHhtbG5zOmV4aWY9Imh0dHA6Ly9ucy5hZG9iZS5jb20vZXhpZi8xLjAvIj4KICAgICAgICAgPGV4aWY6UGl4ZWxZRGltZW5zaW9uPjgyNjwvZXhpZjpQaXhlbFlEaW1lbnNpb24+CiAgICAgICAgIDxleGlmOlBpeGVsWERpbWVuc2lvbj4xMTQ0PC9leGlmOlBpeGVsWERpbWVuc2lvbj4KICAgICAgICAgPGV4aWY6VXNlckNvbW1lbnQ+U2NyZWVuc2hvdDwvZXhpZjpVc2VyQ29tbWVudD4KICAgICAgPC9yZGY6RGVzY3JpcHRpb24+CiAgIDwvcmRmOlJERj4KPC94OnhtcG1ldGE+CrlfZwgAAEAASURBVHgB7L0HmFRV9n59VDCjoigmFAMqQTBnzMqYFQMYMTtj1jGOYxhnxhnHnLOiYE6omLMoBsxgDigqiIiKOaEfa3+/0/+i6YZGuqsrrPM8RXXdOveEdYvuqrfevfd0v09oySYBCUhAAhKQgAQkIAEJSEACEpCABCRQtgSmL9uVu3AJSEACEpCABCQgAQlIQAISkIAEJCCBIKDA4wtBAhKQgAQkIAEJSEACEpCABCQgAQmUOQEFnjK/gC5fAhKQgAQkIAEJSEACEpCABCQgAQko8PgakIAEJCABCUhAAhKQgAQkIAEJSEACZU5AgafML6DLl4AEJCABCUhAAhKQgAQkIAEJSEACCjy+BiQgAQlIQAISkIAEJCABCUhAAhKQQJkTUOAp8wvo8iUgAQlIQAISkIAEJCABCUhAAhKQgAKPrwEJSEACEpCABCQgAQlIQAISkIAEJFDmBBR4yvwCunwJSEACEpCABCQgAQlIQAISkIAEJKDA42tAAhKQgAQkIAEJSEACEpCABCQgAQmUOQEFnjK/gC5fAhKQgAQkIAEJSEACEpCABCQgAQko8PgakIAEJCABCUhAAhKQgAQkIAEJSEACZU5AgafML6DLl4AEJCABCUhAAhKQgAQkIAEJSEACCjy+BiQgAQlIQAISkIAEJCABCUhAAhKQQJkTUOAp8wvo8iUgAQlIQAISkIAEJCABCUhAAhKQgAKPrwEJSEACEpCABCQgAQlIQAISkIAEJFDmBBR4yvwCunwJSEACEpCABCQgAQlIQAISkIAEJKDA42tAAhKQgAQkIAEJSEACEpCABCQgAQmUOQEFnjK/gC5fAhKQgAQkIAEJSEACEpCABCQgAQko8PgakIAEJCABCUhAAhKQgAQkIAEJSEACZU5AgafML6DLl4AEJCABCUhAAhKQgAQkIAEJSEACCjy+BiQgAQlIQAISkIAEJCABCUhAAhKQQJkTUOAp8wvo8iUgAQlIQAISkIAEJCABCUhAAhKQgAKPrwEJSEACEpCABCQgAQlIQAISkIAEJFDmBBR4yvwCunwJSEACEpCABCQgAQlIQAISkIAEJKDA42tAAhKQgAQkIAEJSEACEpCABCQgAQmUOQEFnjK/gC5fAhKQgAQkIAEJSEACEpCABCQgAQko8PgakIAEJCABCUhAAhKQgAQkIAEJSEACZU5AgafML6DLl4AEJCABCUhAAhKQgAQkIAEJSEACCjy+BiQgAQlIQAISkIAEJCABCUhAAhKQQJkTUOAp8wvo8iUgAQlIQAISkIAEJCABCUhAAhKQgAKPrwEJSEACEpCABCQgAQlIQAISkIAEJFDmBFqU+fpdvgQkIAEJSCAIDB48OD366KPp22+/lYgEqpLAvPPOm9Zff/203HLLVeX+3bQEJCABCUig2gko8FT7K8D9S0ACEqgQAs8991w6//zz05gxYypkR25DAlNHoEOHDqlNmzYKPFOHzd4SkIAEJCCBiiGgwFMxl9KNSEACEqhuAr/99lsaP3586tSpU1pjjTXSrLPOWt1A3H3VEBg7dmx6+umn4/X/+++/V82+3agEJCABCUhAAhMTUOCZmIePJCABCUigzAksv/zy6bjjjksLLLBAme/E5UugYQSGDRuWvvrqq/TGG2807AR7SUACEpCABCRQkQQUeCrysropCUhAAtVLYPrpp08tWrSIW/VScOfVRIDXO697mwQkIAEJSEAC1U3AdwPVff3dvQQkIAEJSEACEpCABCQgAQlIQAIVQECBpwIuoluQgAQkIAEJSEACEpCABCQgAQlIoLoJKPBU9/V39xKQgAQkIAEJSEACEpCABCQgAQlUAAEFngq4iG5BAhKQgAQkIAEJSEACEpCABCQggeomoMBT3dff3UtAAhKQgAQkIAEJSEACEpCABCRQAQQUeCrgIroFCUhAAhKQgAQkIAEJSEACEpCABKqbgAJPdV9/dy8BCUhAAhKQgAQkIAEJSEACEpBABRBQ4KmAi+gWJCABCUhAAhKQgAQkIAEJSEACEqhuAgo81X393b0EJCABCUhAAhKQgAQkIAEJSEACFUBAgacCLqJbkIAEJCABCUhAAhKQgAQkIAEJSKC6CSjwVPf1d/cSkIAEJCABCUhAAhKQgAQkIAEJVACBFhWwB7cgAQlIQAISaHICv/76a/r999+bfB4nqEwC008/fZphhhkqc3PuSgISkIAEJCCBkiCgg6ckLoOLkIAEJCABCUhAAhKQgAQkIAEJSEACf5yAAs8fZ+eZEpCABCQgAQlIQAISkIAEJCABCUigJAgo8JTEZXAREpCABCQgAQlIQAISkIAEJCABCUjgjxNQ4Pnj7DxTAhKQgAQkIAEJSEACEpCABCQgAQmUBAEFnpK4DC5CAhKQgAQkIAEJSEACEpCABCQgAQn8cQJW0frj7DxTAhKQgASqjMD48ePTDz/8kKiINPPMM8f95BA8++yz6Zxzzkkrr7xy2mmnnVLbtm0n171Jnnv//ffTwIED01JLLZXWWmutNPvsszfJPAz6yy+/pJ9++inBidayZcs000wzNXv1KKqfDR48OHE91lxzzbTqqqvG+ur7Z/jw4emqq65KX3zxRdp3331T165d6+vqcQlIQAISkIAEJFAyBHTwlMylcCESkIAEJFDqBF544YW0+eabp8MOOyx99NFHU1zu2LFj0+uvv54+/vjjED+meEITdHjooYfSpZdemvr165cQLpqyXX755WmNNdZIyyyzTNyWXHLJ1Llz57TddtulAQMGpG+//bYpp6937C+//DLdc8896eSTT0533XVXjQBV3wms87333ovbd999V183j0tAAhKQgAQkIIGSIqCDp6Quh4uRgAQkIIFSJoBD5auvvkrffPPNFEUC9vHbb7/FDQdJU7dXX301XXDBBaljx46pd+/eaf75548p11tvvYRI0aFDh7TooovWLOOKK65IDz74YDhU1l9//Zrj0/LD999/nxC1FlhggYS4w2McRA8//HAaMmRIOuqoo9Iee+yRZp111mmZZqrPnWuuuVKPHj3SHHPMES6mGWaYYbJjcL2Kee0muxiflIAEJCABCUhAAg0koMDTQFB2k4AEJCABCZQyARwnOIwQM3799deapS6++OLpz3/+c4RJETKVG4LLiy++GOJPPtZY9zh28pyIPNdcc024iG6//fbUpUuXtM466zTWVA0ah5C61VdfPULlChk06GQ7SUACEpCABCQggTIhoMBTJhfKZUpAAhKQQOkT+Pzzz9Nbb70VDhUcLJNruERGjhwZYUDkxVliiSXCYTLddNPFaYg048aNizw/rVq1itw2b775Zog3iDbzzDNPPIfThH7MTX6gr7/+On322WeR+wbHCvPg4CFnUIsWLaIPIUj0+/HHH8NxM2rUqMiXw1gIIKynthDCGNx4bkoOHPLusGbGYA3bb799wmH03HPPJeaiIfywDsbiNmLEiBh/4YUXTnPOOWcNg9GjR0doGa4b9j3vvPPW5D5iPXkM5itsuK14jv1nfvBh/XAobPTDacQ9c3BOfY3ncHEhqJFviP7kVkJEopF/iHX9/PPPMRePCdFj/eRBmpJ7qL55PS4BCUhAAhKQgASmRGDidzhT6u3zEpCABCQgAQlMQoBkvKeeemq64447EvleEGn40I9rBBGldvvggw/SKaecEqFLhHshDiy00ELpyCOPTJtttlkIEm+//XY69thjw5FDuNVjjz2WOI+24IILpmOOOSbyASHsHH300RFuhWiCmIBThnCs//znPyE2nHXWWeGaIWEwOWguueSS9M4774QIccQRR6S//e1vaYMNNgjxBUHihBNOSIR25YaQwTHOJY9Nr169Yo/5+cndw6J169Yh9CCgsEbaTTfdlM4999yaecjRg1gCgw033DCSIp999tlxn5M2IwRtscUWaf/9948cPzfffHM644wzIvyKfeSwNMZ/5JFH0umnn54WWWSRxHPkIiJH0EEHHZT23ntvugSb2267LULbYIt4g7jUrVu3CMOLTgX/EH523XXXBb8xY8bEM+wNx9IBBxwQoWkch+/jjz8ejqFhw4aFU2rLLbeMtdLfJgEJSEACEpCABJqCgAJPU1B1TAlIQAISqBoCiA9///vf06233hounD59+oSggRiC4IPbo7DhSDn88MNDcPjTn/4UItBLL70UgsSJJ54YDhXEFcbFmYNQMffccycEgm222SbOI7TqwgsvDBGHJMabbrpp9H/qqafSYostllZaaaUQNnDDDB06NEQnxBXGJESKHD033HBDOGMQdnCWrLjiirFe1vzaa6/FunD90HDfIFQgGrVr167B4k7eN8mdP/nkkxBg2rRpE4cRvhDGbrzxxhiX6lasg72SG+h///tfwrG07rrrprXXXjvcNXfeeWfq27dvCFMIQQhC5PshNI1k1lngwb0DU25UDqMfwhICDS4eGm4lxJ1//OMf4ehBtIIl59x///3hgmJNueF4orIWwhz5jHbcccdwQZG8meOwQnRjXFi//PLLwRfhbquttkrLLrvsJM6hPLb3EpCABCQgAQlIoDEIKPA0BkXHkIAEJCCBqiVw3333pSeffDIcJThmlltuuXDk4DTZZZddEqJLYaOaFQINYg3OEkK5ECQQNK6++upw9ZAoOTfcMzhOSE6M+IE4g4MFRw+VvCjBvsMOO0ToD+Fhq6yySvrLX/6SEHcIlULgKWz0Z42IOAgsuE8QiAhbIrQIsYTbRhttlJZeeuk4lfLiOH523XXXSOJcOF59P+OGYX3sHzGJ+549e6ZOnTrFKTkMarbZZkt77bVX2nbbbWMNrAkRB0GJfXIjxArhBOELp9S9994bIhZrp4Q5TNlnThb97rvvxvkIMQhXtcPNWADjI87MOOOM6eCDD04777xz9GONuK8QcgobDBDxqBCGkIPLiDUhpv373/8Op9Err7wSghPnwXK11VYLAYlzcuhb4Zj+LAEJSEACEpCABBqTgGXSG5OmY0lAAhKQQNUR4IM/YTnZAUIYEW4Owqhwx8w333w1TBA1Bg8enD799NO06qqrRo4WQrpwfOQcPLhdcIvkhtiAiMB4jE3IES4dhAnCs3DCMB83Qr0QEujHra58L/l5BB36cx4iC2JQ9+7dQ9R5/vnnI8cMa2B9uFrohzDUkBCjM888My2//PLhvCEkivAo9rvbbrvF2vPeuEdEwjlDaBTrQBRCoFlhhRVCRMHxw9zsh9ApHDnkJyKkCgbMg/CFYJVL1/MzriP6wy7nNSqcl5w7b7zxRjy/ySabhIjEPOQ24hwcN7lx3ci5g4DTvn37WDPOLK4TPLgmXAtcSrnBl2vK+hCoWH9d68j9vZeABCQgAQlIQALTSkAHz7QS9HwJSEACEqhqAogKhP/gxClM9MuHecKhqGqVGyIAOXdwfhCOVegSISkvQg8hR4yXXScIDRzLSXy5R+BhXM7J+WnyHNNyj+sHEQfRivAoQqNw85APCIEGZ1FDRArEIpIrE57EjXHWnRBqxfi1RSdEEEST3EgQDSeEEc4tnA/RhDAsRBjCrRBZEHFw8SDq4MpB7MHNQygWIlGhwJbn4B6nEHPxPPPkxnysk7CuLLRxXVgTwtLdd9+dnnjiidw9+OPW4RzGzI1rhnOHNdskIAEJSEACEpBAMQj4rqMYlJ1DAhKQgAQqlgBiDCILoVTcZyGGDfM4hyIVPkagIJlyobCQAZHnBhEDAYOGq6S2SIBzpXCefO603jMmeWceeOCBhIuHMK1nnnkmqn3hvkGMaUgjnGyfffYJhw2CDoJPfWuGRaEIhoiSORaKO3lejnFjrdyTtwchhxAwhB0cP7h3CAXDiUO/wmuQx0Ec45oRHsfPhYwR4LjlxvnccBghdHGr3RCWEJpyQ+yj4pdNAhKQgAQkIAEJFIuAAk+xSDuPBCQgAQlUJAE+xCNgEMbEB/9CxwjuHtwdueVwIwSMrbfeOipb1RYxsiCSBZ7az+ex6jtel5iRz2nIPaII4ggulccm5PnBGYObBfdOdhVNaRzCkRBuGtIfAYZbbgglCD6EseGwQfAqbDhpuBEaRV+EI5xSJH9mrbhtcByRl4jQr/oaAgxhYTkkrFCcwYlDMmwEHRr39IUt/cidVJs/e2C/uboWzxfuq751eFwCEpCABCQgAQk0FoH/946qsUZ0HAlIQAISkEAVESAMh3AkBBEEidwoV04yYISC3HCJIJTwwR/xhCpZs88+e81t1KhR4Sr5I8IAogpiB/MRBjalhjMIMQIxo1AUQswgUTNruOaaa9KQIUOiohb7LEYj1I0QNMLEKDVeKJBRKYuE1jAjgTL7pRGmRWgZriMqbSHG4OpBeKuvEUKFKIQYhOMnMyDnEG4gqmDlhuiG24p8SPRFSCq8boSDwbIhglYe03sJSEACEpCABCTQ2AR08DQ2UceTgAQkIIGqIkD1J0qiE8p01FFHRSUnhBxytVDVqrZYQ7UmEi1fccUVUUabpMGzzDJL5I9BJDr99NPTxhtvPNUMcbEgQCAcIXCQvHhy4yDY4D7q379/rGONNdYIYQf3DGuiXDqhWjhoEE9wyxSjIaRQPp6Exueee26IKVSjQuihYhnCz0477RThY9lFg1iDyIOghshGOBlOpMk1BCCSYJ911lmJpNCIR8yNSMR1qC3W4M4iGTPXjTL3PXr0iMTXI0aMSIMGDQr3FhW+bBKQgAQkIAEJSKC5CCjwNBd555WABCQggbIjgJMDUSELC2wgl9Q+6aST0tNPP52ee+65qJhEOXJy0dx8880T7RMh5r///W/cEBJwqTAeotC6ExIR57w8eY7a8xUOVvgcVbYQRgg5oiw5lZ2yWyj3y2MyBnPhUkEUIZEyuWhyUmgcNCR3xsnCPhCDagtVhev4Iz8zXl1jwnjzzTcPhhdccEEaOHBg3HDYEPaFuNKnT5/IU5Tn5RxCpwgtY48kaOa6FDaOF86JCIYQhPuGMusXXXRRzImDiFLplIXnucwMEYny88wF33POOSd+Zkz4wCk3jnFePjcf914CEpCABCQgAQk0JYHpJrxh+r0pJ3BsCUhAAhKQQDEI4MJAOCF5MdWp+EDemI3kvyTlJYQHMQaBgHsazxFuRYgV+WFIkky+HUKEcJ4QDkXOF8QBGmIK/ek7cuTI6IcgQV6ZPC59mItzCAErdJQQgkWuGcYkNCsLJcxFyBX5axiHECQa1aBYS+EaWDPjIAjxM1WgEFCYjxxBxx57bIRonXDCCWmvvfaabLhTTDLhH8bjxjyEME1O4GD99CUkjP61+8Ka5wl9ghMuJxjhMOKcvOc8N4mS2Sfc4EWfwpbXxnOsjUYiZdaB64fQNq4TAhtMGYfn4ZhDweACY9YDY0rUsyauNeOyRvowF+vPx5iL9ebrz+PGbFQPO/7448PtdNxxx4UA1pjjO5YEJCABCUhAAuVBQAdPeVwnVykBCUhAAiVAgA/6tZ0hLAuhB3EEgYYP+HyQzwIE4kXthliDKEDYE5WpEDc4p1DkoE9hwubCMRizrnERNRAncPMwVl4DwkPtxppZLyIEjb55fhJGU5EKRw9Onsnlsikct751FfbJP+ccNvlx7Xvm5AYj8u3k/eQ11u7PtYFpfa2utbFn9s9z7SeUamfsyYkwPJf745DiO7LCa83cPC6sClbfejwuAQlIQAISkIAEGpuAAk9jE3U8CUhAAhKoWgIIBllUaQiEqe3fkDGnJFLUHqNQ0MAFgwvpyiuvTG+88UY68sgjI1lx7XOK+bgpGNVeP8yyG6v2c3U9ntr+dY3hMQlIQAISkIAEJNDYBBR4Gpuo40lAAhKQgATKkAChXSeeeGIkjCZ8jDw0JCHGEWSTgAQkIAEJSEACEih9Ago8pX+NXKEEJCABCUigyQkQEka4GIma11577biRSwi3ik0CEpCABCQgAQlIoPQJKPCU/jVyhRKQgAQkUAIECkOZSmA5jb4E8sbst99+kXCZnD3kv1HcaTzMsmw8lo4kAQlIQAISkEDdBBR46ubiUQlIQAISkMBEBCr9Azr7ywmXJ9q4DyQgAQlIQAISkIAEyoLA9GWxShcpAQlIQAISkIAEJCABCUhAAhKQgAQkUC8BBZ560fiEBCQgAQlIQAISkIAEJCABCUhAAhIoDwKGaJXHdXKVEpCABCRQgQR+++239PXXX0eum9lmm22qSnU3BMd5552Xvvzyy7TjjjumDh06NOSURu/z3XffpUceeSTKx6+55pqJXD9N1d566630wgsvxF5XXnnlpprGcSUgAQlIQAISkEBJEtDBU5KXxUVJQAISkEA1EECM2HXXXdO2226bXn755Wna8k8//ZQQU3799deacV588cX09NNPp6+++qrmWFP/8O2336YffvihZpoPPvggXXfddalv377p3XffrTk+rT8gjrHfwrmeeeaZdPLJJ6f77rsvjR8/flqn8HwJSEACEpCABCRQVgR08JTV5XKxEpCABCRQSQQeeuihcJyMHTs2vfLKK6ljx44JJ8/Utvfffz+ddNJJqUuXLmn33XdP8803Xwzxyy+/pJ9//jkhhhSjDR48OJ199tlp4403TnvssUei8tjiiy+eDjjggHDwLL300o2yDMSbSy65JDEflb+6d+8e46633nppgQUWSIssskjM3SiTOYgEJCABCUhAAhIoEwIKPGVyoVymBCQgAQlUFoEvvvgiPfXUU6ldu3bhNnn00UdDqFhqqaWmeqO4Zj766KO00EILNatzBaFq+PDhady4cTV7oOT6KqusEmFoLVo03tuOTz/9NH344YcTOXjY//zzzx9iUs0C/EECEpCABCQgAQlUCYHGe6dVJcDcpgQkIAEJSKAxCAwaNCjEkD59+qShQ4emIUOGJMKZyJWTS7I/+OCDibCjbbbZJtw5ed4rrrgiff/992mrrbZKr776arrlllvSm2++Gfl2EHo22mijtMkmm+Tu0YewJULCKIW+0047pXXWWafGLUSo09133x03RJr27dunnXfeOa200kqpZcuW6bXXXkt33nlnOIx+/PHHdO+998Zcq666atphhx1izTfeeGO66qqrYg8333xzeuONN9Kmm24aYzzwwAPhqOFx27ZtY10jR46M+RC2vvnmmxCnevfundZee+3Ec4SWPfnkk2n06NGx98022yx17tw5xmctd911Vxo1alQ4hnDybL755un333+PfD/k31l//fVjHsSmhx9+OOaif6tWrdIGG2yQGA9BiEYoG26qhRdeOMShgQMHRm4kGLE/RDibBCQgAQlIQAISKHUCCjylfoVcnwQkIAEJVBwBhAgEhemnnz6tsMIKIai89NJL6dlnn03LL798mnfeeWPPr7/+ekJsQEgh/Cq3xx57LPLqrLXWWgnBhUTN5N7hZ5IqI9jkHDQkHv73v/8dYUsIR4g8jPvf//43Qqno+7///S9dffXVMS9JkBGDnn/++chnQ7jVJ598ku6///50zTXXpFlnnTXNM888acyYMbFe3EOEYCE4IdSwDvLisI58DKcS7h3Wi8CDoHX66aeHgwnHEnMi0hDOtcYaa6R+/fqFaMVzjEcOH0LYjjjiiDT77LPHftkrIWjsnRxD5CDK60TEQeBBKDr//PPT9ddfH4yXWGKJNGLEiPSf//wnODAeghqi2O233x57at26dYhg7I91f/bZZ+mEE06oEcPyNfBeAhKQgAQkIAEJlBoBBZ5SuyKuRwISkIAEKp7AO++8E64axBzyxXTt2jVddtll4TTBWZIFHvLnIJZksSaDQdzIx3v06JEQJXCn4LjZc88902KLLRZCCP0JZUKAIScOwgzzkPB42LBhafXVV0+4hHDD4PrZd999I4cNAs8FF1wQ60FYYn7mQyA68MAD04Ybbhhiyj//+c+EEwkRqGfPnvH8WWedlbbeeuu09957pznnnDN9/vnnITzhBCIXEKLPbbfdFs4k8gXhFCKMC6EIdxFCEOMj9CDwIIZdeeWVcQ5Ool122SX2g7CDAMPecOQg6uSQLYSf7ObBWUSOnmOPPTb2z3lUF7vppptSp06d0iGHHBIiEiIRfA499NAQohChzjzzzBCWcCPB1iYBCUhAAhKQgARKmYBVtEr56rg2CUhAAhKoSAKUDUeMIASIsKA2bdqE2EKy5LfffjsSIzd04wgbCBMzzTRTiDrkoMERk/PdIBYhcCy77LIRakQ+HI7hUMG9Q3gSYVmch3CEmwXBZeaZZ44QMgSa3BA5EIUIWVpxxRXTkksuGe4ZxBHEnLnnnjtCuhBqFlxwwRBscCkVtvfeey9EE5xLhJi1nxAOxty4a1gX/bt16xaOJcKzCNWCFUIVa0NkYr/smz3zM0mlWXNhQzBCmKFRnp0Ez/RjHhxRnI/QhuBDQxAiBAyxiv0hviFusTdY2SQgAQlIQAISkECpE9DBU+pXyPVJQAISkEBFEUBEIScN4UTk0iGfDaIFYgNCy+OPP55WW221ED4aY+OIMIgtVLSikXcGAQh3EGFNOH8IZbr44osjTIs+hEUhbCCC4LjJDUdNzluDIwdhBiEIx0xDG6INYU+ILohb7J2W73EK4SC6/PLLI/cP49MQo3JFsLyXeKKefwgRY55FF100LbPMMjWJl5mn/QRRiXAw+nCjIUpxHDcUDeEIbrCYmv3Fyf4jAQlIQAISkIAEmoGAAk8zQHdKCUhAAhKoXgLk2aHSFE4SXC8ICDRcI4gqCDw77rhjiA24WXCYIG4Q3sTjLHQ0lOCMM85YI+5wDs6e7KpBKOF5Sovvv//+EZpUOC5CEAIJyY5p9M3OIB4j8jREbKFvbszNDWcQlcSyoJKfJ9k0YWQ4ak455ZQIXyPRNGFVU9NYJ+vDyUNuoMKWcwMhVpFTiEZ/9lfIJu+VtdgkIAEJSEACEpBAqRNQ4Cn1K+T6JCABCUigogjg3sGpc/LJJ0ci4EKBhOTCl156aYRNkZcnh1rl0uOIISRjxgVDsuHcECVwpuB+mVq3CWFROHkQN5gzCx6IGoxZuL48X3339OeGSwm3Te2wKc4jyTIhaeS4wbWE0FXYSAr9wYRqYrvuumtUDyMMC2Yff/xxTbc8D+tmnroarHDhEBLGmFTZyo3xuRG6Vltgyn28l4AEJCABCUhAAuVGQIGn3K6Y65WABCQggbIlQDgUDpX2E0KByIlDguXCRoJlEh6To4fEwYQWIVJQRQo3CmIE1Z7ILUMp8NwYBzcQ+WqodkWOGRItN6RRbYoy4rhmcNWst956IZoQOkZZc24NbbiQyHNDRSzWxDpqN6pWkUCZ6laXXHJJhIDNNttssXby3iD+8JgqXpRuJ+8O+8fdlBuiE+FhCFqwIryKkKvCRmgXVbsow04VLR6TQwixp3///pE/CMbZpVN4rj9LQAISkIAEJCCBciQwcebDctyBa5aABCQgAQmUCYEnnngiEgavvfbaNblsCpdOImCEn+eeey6RcHm55ZZL2223XYRpEa500kknRSLjnLsGJwsNgYPkwIRzHX/88VHOPCdHzm6XPE/hY35GhKGSFEISeW+owrXffvtF/pvswMnncD+5hniDqPLmm2+mo446Kt16660h4BSeh1OIylnMgYPnoIMOiopbVNYilArhapNNNgmHz8EHH5z6Tqj4RShVYZl41kCSZ6pgUSULLiSLLmzMyVqOPPLISN5MWfhevXqlv//97+FSokQ6z9skIAEJSEACEpBApRCYboIF28DySrma7kMCEpBAFROgpDUf4nHBIIaQV6bUGgl9EV5w4nCrK/yJalG4VXIVKs4hITOJkHHpIO4QAoXzpLB6FOfQj/AvBBHcNCQZJscPYVFZrCGsiTlyBSqcQeT1oS/nk7OGeTgHlwwhWxzjeYQkhKAs2DDXuHHjwnXDc7ylIK9OLldO/h4cOeyZc/iZecknxHmEmuFqggN74ZoResZeCMlCsMpzEorFc4SUMRYMqG5FP0QjkknTmD+fw2Py7TA/8+TxmIdxMhOOsxeSSrPG3PL+6MtzpdooeY+wRxn54447LvXp06dUl+q6JCABCUhAAhJoQgKGaDUhXIeWgAQkIAEJFBLIwk7hsdo/I6pwy41zEFyoYIUQUpcoRF/y9dBv/PjxkSiYvDyIQbUbAgvCS2EjJIqQLkQhxJfa8yCsFOb8yeci9nDLDeGFx6wZsSfnBqq9Do7ThzWTg4fzmJN7Wh4jJ5amf+1GyBXrRQijZS4wKGwIVISLIXrl8XLf3A9BiFvtVnt/tZ/3sQQkIAEJSEACEiglAgo8pXQ1XIsEJCABCUigDgIIHLhUptQQSKYlp8y0nFu4troEmcLn88+sFwdRXY0xGjJObbGmrrE4Rr+G9q1vDI9LQAISkIAEJCCBUiYw6Vdipbxa1yYBCUhAAhKQgAQkIAEJSEACEpCABCQwCQEFnkmQeEACEpCABCQgAQlIQAISkIAEJCABCZQXAQWe8rperlYCEpCABCQgAQlIQAISkIAEJCABCUxCQIFnEiQekIAEJCABCUhAAhKQgAQkIAEJSEAC5UXAJMvldb1crQQkIAEJVCkByoJfcMEFiepR22yzTU31qMnhoLz5L7/8kqiS1ZAkzZMbq/Zz/fr1SyNGjEg9e/ZMHTt2rP10ozymNPvgwYOjqtZqq61Wb0LmaZ0Mts8991yUWO/evftElcGmdWzPl4AEJCABCUhAAsUioIOnWKSdRwISkIAEJDANBBBqnn766RAivvnmmymORJ/jjz8+rb322unOO+9Mv/766xTPqa/Dzz//nL7//vuJxnjppZfSY489lj7//PP6Tpvm46+++mq6+OKL04ABA9KYMWOmebw8wA8//JC+++67/DCNGjUq3Xrrrenyyy9Pr732Ws1xf5CABCQgAQlIQALlREAHTzldLdcqAQlIQAJVS+D3339PP/30U5RB/+2336bIYciQIeF+GTZsWHr00UfTSiutlNq3bz/F82p3+Oijj9IZZ5yR2rZtm3bfffe0wAILRBdEH5wv48ePr31Koz3u2rVrOuSQQ9Jcc82V2rRp0yjjwuOiiy4KFocffniUTp9//vlTr1690rhx41Lnzp0bZR4HkYAEJCABCUhAAsUmoMBTbOLOJwEJSEACEigCgSeeeCLCsxZZZJGE2PPee+/9IYEHJ9C7776bEJVwERWzIeqst956afrpp2+0ELMvvvgivfnmm2mmmWZKiGa0WWaZJQQw9shxmwQkIAEJSEACEihHAgo85XjVXLMEJCABCZQkgXfeeSc988wzccNts8oqq6Q//elPaaGFFgqnyN133x3iAm4awo8IuWrZsmXk1EHImHPOOWv2hShzzz33pNdffz0cLBtttFEipw75dKbUPvzww0QI1VJLLRWOmwcffDDmW3nlldMcc8wRpyPaDBw4MC277LJpzTXXjNw+PIEw9Pzzz6f1118/ffXVV+nmm29OuF5w8jD/OuuskzbeeOOaJSCWvPDCC+nFF1+MMbbeeusQZWafffbog4jy8ssvp3vvvTfCnxBROnTokLbccsu0/PLLBxfWwvO4hFq0aJEefvjhtOqqq6Zu3bqlJ598MiFS9ejRI7jed999E4VXMQl5iXh+9dVXT2+99VZ66qmnYk7EGvax1lprpfnmmy898sgj4d6hD0LPYYcdlsjts+6666Znn302ws0222yzuF6s++233w5Gr7zySriVFl988bie5OmZYYYZEuIX7qiPP/44LbnkkrE+eLRu3TpttdVWaYMNNoh+NbD8QQISkIAEJCABCTQhAQWeJoTr0BKQgAQkUD0ECFX65z//GYmHCYUaPXp0hDYh+hx00EEhUiCCkOuFBMWtWrUKYQKx4fHHH0/nnntu2mSTTULwQew488wzQ3BADEE0QHhBSECAmFJD4GDeffbZJ3LwvPHGGyGUIDgQ9kQj7wwCEkIGwg8iCY0cNOTsWWyxxUJsIfcNoVgIL59++mkIIzmfz/vvv5/OOuusEE8QPIYPH54QQ2hbbLFF3N9+++3pvPPOCzGEvSDw3HHHHSGMHH300bEf1oJww/28884bAg592S/HV1xxxRBLEJhGjhwZYzE4a2MNhFUhpCGaXXjhhdFnwQUXDOfR/fffHxwIx0KQ4RzEN3LwfPLJJ+nLL7+M4wg8rB/BB0GOa3LaaafFGhDKSFKN8MTtgAMOSH369Enk8kEMu/baayMxM2IdohLnwp9WKIbFAf+RgAQkIAEJSEACTURAgaeJwDqsBCQgAQlUF4HpppsunDjkc0FcIJyJJMcIM9tvv30IPAgliBg4Sv785z+HiIKr55xzzgnXCc4ewoWuueaaEB8QQEiSTL6byy67LPXv33+KUOlL5SmcPggfXbp0CZcObh2cMjwm5AmRBsEEsSOHKjE4jxFCWD/uF9aDKIKLBsEIsYOcODSqXOEs2nvvvUPkuf7661Pfvn3DPYPTBzHmlltuCSHkwAMPDKcM5yG6XHLJJSH0LL300jVrIQfOrrvuGkLX3HPPHc4h1gg31ojTqFOnTiEScRwmzIGIAjvWs9tuu0W+HtbIfmGLm+mDDz4I9xHJojkGm2OOOSb2wvjcEH0Q6nBAIUwhMO2xxx7hxoEZjqvzzz8/1r3CCiuE44jzEPNw9eAIQii78cYbIzk0QpsCD1fcJgEJSEACEpBAMQgo8BSDsnNIQAISkEDFE0AA4MM8wgPlwxEJEAzIfYNAkpMR42DJ4USEMW244YYhCCAmcC4uEs7BaUOIF04a2nbbbRci0JRA4qAhpGq55ZZLhBThKCF0CecJpcBxqCBANaQRMkZS5VlnnTXCxxB5CHXKDREFYYNwKtwrjI14w34RiQgvwz3E84SgLbroonEqwhHhUjwHJ9w/NMQjxlhmmWXicT4eDyb8w3q4IfbcdtttERqG62mHHXYIRxR7RWDDlQNHBB6YEo7FY8Ko2DuiFeNklxIiUWGjL6JQDsnK14BrjHiGQwfnFSFlNMZEiCPcjT6IP4RpIeZxvTlmk4AEJCABCUhAAk1NQIGnqQk7vgQkIAEJVAUBhAQcLDfccEM4PxBvEDkQeXDVZJcMIUgIBzmXDuFc5MXBOYMIRK4bzssOkQyPkCVcLVNqOIYQNsifc9xxx4XAg+BCOBLPEeLVUIFnSnMhfLRr1y7EHfoiBs0zzzzh/sEBREgXYUwdO3acaE6EHs5F4EGMyRWyEGCymDK5ucn5Q1gUYtNOO+1UMzZCDS4nXFFff/11CFOUcWd8nDYNbWPHjg1+CFNcq9wQjxChCBvDLZQbPDmehRwYwAKXFNc0H8/9vZeABCQgAQlIQAJNQcCvlJqCqmNKQAISkEDVEeBDP2FHfNg/5ZRT0qWXXhrOEpwcWdwBCiE85HMhpIuG6yQ7VQr7ZcEnOk34B5GG8KLJNfqQS4aGQwVxBaGH8RFDSBpMjh2OMz83hCnmyg1xqaFiCGtnL7nh4iFXT94H8yL05NCn3I9jrAHho/B88hLl5My5b+17XDGIaNxvu+22NYmaGXPAgAEhsuFeOv3009MFF1wQuXlqjzGlx6wbYYZ153xDnMPPrJvG3nNj3zmHEcc4n2M2CUhAAhKQgAQkUEwCOniKSdu5JCABCUigYglQPQvnB/l2CNXiAz4Jf3GSTE3DJUJIFAmDcZ/g+KERXoVDJYcF1TUmayC5L5WsyGWTnTH0pZLVqaeeGnlkCJfKSZ5JUowwhADE+jkfUSi3LAQh+iCiTE1jL4RxkSSaUCzy7dBwGH0wIScOz7O/LDAh+GThq6556IeIQ3gXVapwI2VhBcGH0DT20bNnz8i3w15wCBW2vB9cVYyHIFW74ZRiHNbI2nFT0XBB8ZjnScRsk4AEJCABCUhAAqVEYNJ3NaW0OtciAQlIQAISKBMCOHfIt0KOFlwpVFeihPaUXDe1t4f7BCEEEYNky5tvvnkIMLhWEBgoLV5XY25ywyDOkMSZylOF4gVCCqFLJApGYCG/D0LFoEGD0tVXXx15chCRCOMqdK2wL1xI5KSh3Dr7ybl06lpH4THy6TAP7iYcTQhPuHsovU54FgmMSfpMyFVDGjwJzYIvYW3sBcGGx+wPMYlcRuyDdTIv+ykUYxBu2NPQoUMjATTryyJRXgNrQgS7/PLLQ6QjDIy8PfDj+iLgEb41tYJXHt97CUhAAhKQgAQk0BQEFHiagqpjSkACEpBA1RGgTDeiDlWjuCE4dOvWrSYcqqFACK2i4hShUuT0oZoT+XoQHHDw1OdwQbTBwUKuniWWWGIicYe5cewgZiBQ4Obh5x133DGSD1911VUhurSfkA+IPDhUhcoNIYWKWCRvJvSMsKi//OUv+emJ7vPa8j0M9ttvvxB1EEeo5EXDoYRo0qtXr1gX/fM5+Z5++Tj3iFuMQal5hKuzzz67JgwKYWf//fePql84n6644ooQfai4RbWsQkcSiaKpxkUlrRNOOCEY7LzzzkxXMx/j9e7dO0K07rrrrhCJcjgZ15lqYoheOQ9P4ZoLx8k/c2+TgAQkIAEJSEACTU1gugnfpP3e1JM4vgQkIAEJSKCpCZx55pnpv//9b4TtIESQ5LaYDTcHIgRhPYQz4RRBKCBEC8dLdpdQCpzHCC40/gyTGwcBYeGFFw6nCKFDOFEYizwwhFohviBU4FbBkYKjpLDhWMkVqRgHEaV2I+QLkQhxgvAo1skc+TzGxc1C+FJOmMwYuQoVoVz0ySIQczIXIhCN/DQkiSY8DZcMeWrggmAEGwQRxBnCzDiPZMTkq4ERz8OE82BBQ+SCA3l56EsYFnuo3RiTddGP/VHFjBw6JGxGfIEn83EN4E0oGoIY1wLBh+vB3uBB0mjY4WJiLvbDujmPdTMP15Y52RtrggPn5cTZXDPWDYe8htprbszHCHvHH3985FcisXafPn0ac3jHkoAEJCABCUigTAgo8JTJhXKZEpCABCQweQLNLfDk1SEMIAYgANR2duQ+Db1nLEKvGCuLHg09t6H9WCtCBWud3JpZR64IhSgztY3z2c+U5pnacevqn6/B5BIdsxfWxF4mxzbzYR7Gm9ZrWtd6p/WYAs+0EvR8CUhAAhKQQGUQMESrMq6ju5CABCQggRIhgEjSWK0xx6pvTQgWuIKm1BBBJieENOT8hswzpXEa8nxDuCHsNESoaiifhqzLPhKQgAQkIAEJSKApCVgmvSnpOrYEJCABCUhAAhKQgAQkIAEJSEACEigCAQWeIkB2CglIQAISkIAEJCABCUhAAhKQgAQk0JQEFHiakq5jS0ACEpCABCQgAQlIQAISkIAEJCCBIhBQ4CkCZKeQgAQkIAEJSEACEpCABCQgAQlIQAJNSUCBpynpOrYEJCABCUhAAhKQgAQkIAEJSEACEigCAQWeIkB2CglIQAISkIAEJCABCUhAAhKQgAQk0JQEFHiakq5jS0ACEpCABCQgAQlIQAISkIAEJCCBIhBQ4CkCZKeQgAQkIAEJSEACEpCABCQgAQlIQAJNSUCBpynpOrYEJCABCUhAAhKQgAQkIAEJSEACEigCAQWeIkB2CglIQAISkIAEJCABCUhAAhKQgAQk0JQEFHiakq5jS0ACEpCABCQgAQlIQAISkIAEJCCBIhBQ4CkCZKeQgAQkIAEJSEACEpCABCQgAQlIQAJNSaBFUw7u2BKQgAQkIIFiE3jnnXdSv3790pxzzlnsqZ1PAs1CYOTIkenDDz9slrmdVAISkIAEJCCB0iGgwFM618KVSEACEpDANBDo2LFj6ty5cxo6dGj64IMP0gwzzDANo3mqBMqHwC+//JLGjRuXFlpoofJZtCuVgAQkIAEJSKDRCSjwNDpSB5SABCQggeYgsMYaa6R99tknPfzww+m7775rjiVU9Zy4SGacccbUpk2bqubQnJtfYIEF0uKLL96cS3BuCUhAAhKQgASakcB0v09ozTi/U0tAAhKQgAQajQAuhi+++CKNHz++0cZ0oIYROO2001K7du1S7969G3aCvRqdAAJb69atU6tWrRp9bAeUgAQkIAEJSKD0CejgKf1r5AolIAEJSKCBBMi7Y+6dBsJqxG5PPfVUIvcRAtuPP/6YunTp0oijO5QEJCABCUhAAhKQQEMIKPA0hJJ9JCABCUhAAhKol8ADDzyQnn/++dSyZcvUo0cPBZ56SfmEBCQgAQlIQAISaDoClklvOraOLAEJSEACEqh4Arh3Bg0alL755psIj7v//vvTsGHDKn7fblACEpCABCQgAQmUGgEFnlK7Iq5HAhKQgAQkUEYEsnsnL/nBBx9MQ4YMyQ+9l4AEJCABCUhAAhIoEgEFniKBdhoJSEACEpBApREYPHhwjXsn740k14g+ungyEe8lIAEJSEACEpBAcQgo8BSHs7NIQAISkIAEKo7Afffdl1544YVJ9oXA89xzz01y3AMSkIAEJCABCUhAAk1HQIGn6dg6sgQkIAEJSKBiCeDeefLJJ9PXX389yR518UyCxAMSkIAEJCABCUigyQko8DQ5YieQgAQkIAEJVB6B+tw7eafk4tHFk2l4LwEJSEACEpCABJqegGXSm56xM0hAAhKQgAQqisCIESPSl19+mRZccMG4jR49Oh63bds2tW7dumavI0eOTDzHcZsEJCABCUhAAhKQQNMSmO73Ca1pp3B0CUhAAhKQgAQqicC3336bEHnGjRsX23r++efTwIED0zzzzJO22GKL1L59+zjepk2btPDCC6dZZpmlkrbvXiQgAQlIQAISkEBJElDgKcnL4qIkIAEJSEAC5UMAN8/HH3+cWrRoEYJOq1atymfxrlQCEpCABCQgAQlUCAEFngq5kG5DAhKQgAQkIAEJSEACEpCABCQggeolYJLl6r327lwCEpCABCQgAQlIQAISkIAEJCCBCiFgkuUKuZBuQwISkIAEJNBcBMjF88knn0SIFomXZ5999uZaivNKQAISkIAEJCCBqiWgwFO1l96NS0ACEpCABBqHwCuvvJIuv/zyNMccc6R99tkndevWrXEGdhQJSEACEpCABCQggQYTUOBpMCo7SkACEpCABCRQF4Fff/01/fDDD6lly5Zp/PjxdXXxmAQkIAEJSEACEpBAExMwyXITA3Z4CUhAAhKQQKUT+OKLL9JHH30UIVrt2rULJ0+l79n9SUACEpCABCQggVIjoMBTalfE9UhAAhKQgAQkIAEJSEACEpCABCQggakkYBWtqQRmdwlIQAISkIAEJCABCUhAAhKQgAQkUGoEzMFTalfE9UhAAhKQgATKjABVtEaOHFlTRWu22WYrsx24XAlIQAISkIAEJFD+BBR4yv8augMJSEACEpBAsxKgitaVV16ZWrVqFVW0unbt2qzrcXIJSEACEpCABCRQjQQUeKrxqrtnCUhAAhKQQCMSoIrWt99+m2aYYYbEzzYJSEACEpCABCQggeITMMly8Zk7owQkIAEJSKCiCIwdOzZ9+OGHUSZ90UUXtYpWRV1dNyMBCUhAAhKQQLkQUOAplyvlOiUgAQlIQAISkIAEJCABCUhAAhKQQD0ErKJVDxgPS0ACEpCABCQgAQlIQAISkIAEJCCBciFgDp5yuVKuUwISkIAEJFCiBKiiNWrUqKiitcACCySraJXohXJZEpCABCQgAQlUNAEFnoq+vG5OAhKQgAQk0PQEXn311XTVVVdFFa299torWUWr6Zk7gwQkIAEJSEACEqhNQIGnNhEfS0ACEpCABCQwVQR++eWXhIuHZhWtqUJnZwlIQAISkIAEJNBoBEyy3GgoHUgCEpCABCRQnQQ+//zzqKLVokWL1L59+zTnnHNWJwh3LQEJSEACEpCABJqRgAJPM8J3aglIQAISkIAEJCABCUhAAhKQgAQk0BgErKLVGBQdQwISkIAEJCABCUhAAhKQgAQkIAEJNCMBc/A0I3ynloAEJCABCVQCAfLvfPrpp2mGGWZIVtGqhCvqHiQgAQlIQAISKEcCCjzleNVcswQkIAEJSKCECAwdOjT17ds3qmjtueeeadllly2h1bkUCUhAAhKQgAQkUB0EFHiq4zq7SwlIQAISkECTEfj555/Tl19+mcaPH5+oqGWTgAQkIAEJSEACEig+AZMsF5+5M0pAAhKQgAQqisCYMWPS8OHDU8uWLdNiiy2W5pprroran5uRgAQkIAEJSEAC5UBAgaccrpJrlIAEJCABCUhAAhKQgAQkIAEJSEACkyFgFa3JwPEpCUhAAhKQgAQkIAEJSEACEpCABCRQDgTMwVMOV8k1SkACEpCABEqYwNdff11TRWv++edPs802Wwmv1qVJQAISkIAEJCCByiSgwFOZ19VdSUACEpCABIpGgCpa11xzTVTR2n333VOXLl2KNrcTSUACEpCABCQgAQn8/wQUeHwlSEACEpCABCQwTQR+/PHHRKJlqmlxs0lAAhKQgAQkIAEJFJ+ASZaLz9wZJSABCUhAAhVFAHHnvffeSy1atEhLLrmkVbQq6uq6GQlIQAISkIAEyoWAAk+5XCnXKQEJSEACEpCABCQgAQlIQAISkIAE6iFgFa16wHhYAhKQgAQkIAEJSEACEpCABCQgAQmUCwFz8JTLlXKdEpCABCQggRIlkKtoEaJFFa1ZZ521RFfqsiQgAQlIQAISkEDlElDgqdxr684kIAEJSEACRSEwbNiwmipaffr0sYpWUag7iQQkIAEJSEACEpiYgALPxDx8JAEJSEACEpDAVBL44Ycf0ujRoxPVtH766aepPNvuEpCABCQgAQlIQAKNQcAky41B0TEkIAEJSEACVUzgs88+S++8805q2bJl6tChQ2rdunUV03DrEpCABCQgAQlIoHkIKPA0D3dnlYAEJCABCUhAAhKQgAQkIAEJSEACjUbAKlqNhtKBJCABCUhAAhKQgAQkIAEJSEACEpBA8xAwB0/zcHdWCUhAAhKQQMUQoIoWOXhmmGEGq2hVzFV1IxKQgAQkIAEJlBsBBZ5yu2KuVwISkIAEJFBiBF577bXUv3//NPvss6fddtstde7cucRW6HIkIAEJSEACEpBA5RNQ4Kn8a+wOG5HA2LFjEx9k+KbaJoFKJLD00ktHievppzeCtxKvb1Pt6fvvv08jR45Mc8wxR1TSaqp5HFcCEpCABCQgAQlIoH4CCjz1s/EZCUxCYMSIEalfv37p2WefneQ5D0igEgjsuuuuaZlllkkzzjhjJWzHPRSJQJcuXdLhhx8eVbQWX3zxIs3qNBKQgAQkIAEJSEAChQQUeApp+LMEpkDgu+++S++//3768MMP02KLLZbatGkzhTN8WgLlQWD48OHpgw8+SJ988kn6/fffy2PRrrJkCLRt2zZxs0lAAhKQgAQkIAEJNB8BBZ7mY+/MZUxg/vnnT9ttt11aY401yngXLl0C/4/AVVddlXCo2SQgAQlIQAISkIAEJCCB8iSgwFOe181VNzOBWWedNS2xxBJpxRVXbOaVOL0EGofAvffem6abbrrGGcxRqo7AN998U1NFCycPvyNtEpCABCQgAQlIQALFJaDAU1zeziYBCUhAAhKoOAIkn7/22mujitYuu+xiFa2Ku8JuSAISkIAEJCCBciCgwFMOV8k1VgWB3377Lf36669p/Pjxk90v1Y1atmwZbgv6cx6Pp1T16JdffklffPFF4pt2nBpUu2ndunVq0aK6fw3A8N13301vvPFGWmedddLcc889Wf4+KQEJTErg22+/TR999FGac845raI1KR6PSEACEpCABCQggaIQqO5PdkVB7CQSaBiBUaNGJcJkXnrppcmeQHLnrbfeOs0888xp4MCBifLE5ANaZJFF6jwPQef5559Pjz/+eCSH/uGHH0LgIYSCELO99torzTTTTHWeWw0HSZx9/fXXpyeffDLEri222KIatu0eJdCoBKiiddhhh4XYzO8omwQkIAEJSEACEpBA8Qko8BSfuTM7HxUaAABAAElEQVRKoE4CP/30Uxo5cmR666234nmEGB7jvFl44YUj9IEncNz8+OOPIew8+uij6euvv07rr79+nQIP4s6DDz6YLr744hirXbt24VBB1MCx8tVXXyXKYleDwIMQ9tBDD6X33nsvHXjggfFBFJ4zzDBDWmCBBYKx7h2I2CQw9QRIPM/NJgEJSEACEpCABCTQfAQUeJqPvTNLYCICJCbdfvvt07rrrhvHKVl9ww03pC+//DL16dMnderUKY4TWoVbh+enVM76448/TrfddluIO7179w4haPbZZw+BCMcQ51eDuAM4QkjgicCz77771gg8OJm22WabtNpqq6WllloqGPuPBCQgAQlIQAISkIAEJCCBciOgwFNuV8z1ViyB2WabLXXs2DFubHKeeeYJxwk5ebp165ZWX331qd77Z599ll599dXUvn37tNNOO6XFF1+8ZgzG5TbjjDPWHJvcDzmHD4IT4WHzzTffJJVyyGeDU4acQLPMMkvChfTpp59GniBcMvVV1vn5558Ta8Vx1KZNm9h7YU4h1olAw7jMzc9jx44N5w2PyUPEsTFjxoR4Bbt555033DmIWIxP/iFyhLA+9sCYiFvsH9GM9dYldrGnzz//PM5v1apV7Lt2P+bASYW7iuuIG4u5aAsttFCMXciW/tmhxdpwPmT3EM/hrIJFfWF3hWP5swRKgQCvV/4P44ir63dDKazRNUhAAhKQgAQkIIFKJ6DAU+lX2P1JYAIBxAREikKBhw9i3KbUECuokHP33XeHaygLLQgX3bt3TxtuuGGILoyDO+bCCy8MkapDhw7pnnvuidLJCDCLLrpo2mijjSKRcZ4XcYOxb7/99pr8QAgdyy+/fOrZs2eINIyLE+n0009PSy65ZCK/B7mKEID23nvvEK9uvvnm9OKLL4bIghA111xzRX4hXEuIQg888EDMwTjMecIJJ0Qy2I033jjWc+edd6YXXngh8hEts8wyTBmhcRy76667Em4nPsAiAvHhdZNNNgmnVd4H4s6xxx4ba1t55ZXDNYXYRDJr1ksYXB4XwYiwOfInITrxGEEKAQ+nFuv/17/+FQLWiSeeGOfHgvxHAiVMgP/H5LLCIbjzzjvXOA5LeMkuTQISkIAEJCABCVQcAQWeirukbkgC/48ArhkEh4cffjhddNFF4QxBSMCJ0pCG2IDIcdppp4V4g8CCsIN75v7774+E0AgfO+64Y4R7jR49OsKgEHPI94O4giCCsHLTTTdFtSocN2ussUYIG8OGDUv//Oc/I+/QcsstF+6XIUOGpKeffjocOYceemgIOThuCK8iFxGhbAgn3CM2Meell14aos4SSywRDh7OR/DhwybhV+yDvghNOGT4GYEIsYcbexwwYEDafPPNQ4jhGGOwb9a45pprxr4RbQh5e/311+M8hB4aOZFYH66hJ554IvaBK+iZZ56J5NY4cs4666wQ1F555ZUYF2cTuZMQ0Mi7xHoQeFgj55F/CWHOJoFyIMD/KcJGqaLl67YcrphrlIAEJCABCUigEgko8FTiVXVPEvg/AggiiC8IJI899li4ZBArevTokVZaaaUa5019wBAZ+FYekYNKXbhqcJvgWHnkkUfSlVdemW688cYYC/GHhpgybty4cMbssMMOEXKFwIMAglPmlltuSaussko4ihj75ZdfjrF32WWXCHF69tlnwwVEX9bZuXPnGBenC+MiUBFuhpsGEYn5EHHWWmutCNlCbEF8QpzBfcP+KX9OSfjjjz8+xkA4yuFWMXjBPwhAOGvOP//8WBsJmRFy+OCKUINYhliDYIZQxXEawgycCbfaf//9IxyNvR133HHhIBo+fHi4cbgO8KTPbrvtFuv/5JNPasLDEMVwA8GY/dkkUA4E+H96yCGHRMgjIaE2CUhAAhKQgAQkIIHiE1DgKT5zZ5RA0QiQ8wZBBCfLfffdF8JH3759Q7jYdNNNQxiZXOUbhBkqTxFeRDgUDhkaIggOFZwnCDK4ZbLAg9CBu4ZExoRp0RCa+FYflww5gRBCcN4gwJBzB+EI1w+N9Q4aNChcLLhdssDDnOyDsCvEnNwQeJiL0C4EIFw2zM/xESNGRDceMw75cRCAunbtGmPxJKJNYSM3z/vvvx/zU0Y+j00f1oAjieplQ4cOTW+//XY4pPL5uJPgRIgZDbcTwhaM3nnnnQgno4IZ4+B4QGTC9bP00kvnIcLlg5PIJoFyIoBbkJtNAhKQgAQkIAEJSKD5CCjwNB97Z5ZAUQggauCYIRcMggXiBO6bSy65JESXffbZp86QLQQS8vYQgoWww/m5ESKFMMN4jEVoRm4kLcZ5ksUgjuNKQeQhBxACB44VxiZMiXAonEAkKKYRsvTmm2/GcRxEuRHCxJyIM4UNQYaS76yD8XC+IB4hojA2zp+cK6fwvPp+Zt/kEkKoIrwtJz+mP/vGsYP7CfGpUOBhfQsuuGBadtlla4ZmTyTIJuQK8YnHhGWRM4gcPIg8XJt1J1ROK8yPVDOAP0hAAhKQgAQkIAEJSEACEmggAQWeBoKymwTKmQDiAy4WQo0QSNpPCKFAVCEJMuXBCTWq3RBGqDiFKIHThDEKG8cRjxBYcMXkxnFEkNr9EX4I70J8KRybMRB9ChtiEkJJYRUpRCL2QALl3DgPZ9JVV10VOWtwDLE33EC4j2gIPVPTEHYQY1h/4Vx5DEQe3EuMC5/c6I8AVVgpjL44dGhZaEIU+/vf/x6Jlp988sk0ePDgyNtDuBbij00C5UgAIRj3HGIqLjdCKG0SkIAEJCABCUhAAsUloMBTXN7OJoFmJYD4gvhBbhvCqrjhlqlL4EFQQXzBBUNOGoScQicMThuSLSPcFLpccMDwQQ/xhfNzQwRC3KE/oRx8IEQAYT1HHXVU/Jz7cs9cCEK5IaDU/tCYky/jpDniiCPCcZOTOhMaVV+bnOjDvOTrYb9Uz6rdEIByOWgEp8JWW9TiOfZY2NjDtttuG84ecvE8NiEnz3XXXRdjkh+pdgn2wnP9WQKlSoDE4/yfI4ySHFkdO3Ys1aW6LglIQAISkIAEJFCxBCb+Sr5it+nGJFCdBBBayBWDe6SwIdqQewbBp9BxUtiH53CfIJiQa+f555+veRqRg/Cpxx9/PFwuhWFJOffNSy+9VNMfMYdKVQgjCDqMi3hD/h9CqmiEMuUbOX8QjaaU0wMRiXXhqNlqq60i9w2uG9aL+FPYEFoQTxBuEKbqawhb5MShL+4a8vHkxr4RfQhzw6XUpUuX/FSD7hGWWBciEntE6CGJM3uFV2YBQ8K3bBIoFwL8Hye0kXDNQmdbuazfdUpAAhKQgAQkIIFKIKCDpxKuonuoagI5WTEVm3JDnCHpMYLChRdeGAmGyfGCmIPIQily3CMIFLVz2uQxuG8/Idxpyy23DIfJueeeGyIKeWbIn0M1Kdw/G220UQgzhech/pDjByGF8C76USYdRw/j4eLB/UIy4f79+6czzzwzjnMMYYOcOoRJ/eMf/ygcdpKfEUoYk76M36lTp8jvQ8hW7YZgg3Dz2muvpWuvvTZKnzNfbREJFw77JpyNkuinnHJK2mKLLULogvW9994byZvJXTS1Va4QbhgTYQr2rInkywhwiF64e+hz+umnx3XC2VR7fbX35WMJlAIB/u9RRQuBlP8/NglIQAISkIAEJCCB4hNQ4Ck+c2eUQKMSIGExIT6IJrkh5OBo6d69e6I8N0l+cYlQ5YlwK8KllltuuSghPrnkvogOvXr1CtGFJMbvvvtuOG8QKPiWnkpcO++8c4Q05bAnRAtECapmIQohwiD0cE+FqZxnhvVQEQuxCCcQQgfuG9xFjM3aaYUhToU/8xwuoD322COSFl988cVRtQpxC+GGCla0fA5MNtxww6jQhcCDyEV5dTgVhlbRn3Xst99+IZBRRQyBirAtHDaISXvttVfafffd48NsTPJ//+S5Co/ln3kORuQGogQ8a+eakRgaJxNsCG/h2iBW0W/PPfdU4MkAvS9pAgi/3GwSkIAEJCABCUhAAs1HQIGn+dg7swQmS4AP/YgniB11fSPOhylEhvXWW2+ScfgWnRCgpZZaKh199NHpww8/DJEFdwiOF8KucJBwQ/SpryGW4Ho56KCDotoTogPiDkIECZBXWGGFSao/MTfjIrxQaQoBB3EERxEJnRF2aPQjT8df//rXcNMgdDA2oU/sDQEqN8Sak08+eaJKXjxHaBb5PkiujPgEKxI0My6hVYhF7IGG8EQJ9uOOOy7EJMQV3Eu4ZnAVcU4u9c457IG1kZ+ItRGCwtpZC8eygMTYuJT+/e9/T/IBl3Eo6c7aqcjFYwQlricuJ/aL0MN1WmeddRgq+hx88MFxvSrBvcN1IUdS7TDB2Kz/SEACEpCABCQgAQlIoMIJ8EUvn1f4fNbUbboJ3yhPXYmZpl6R40ughAlQ9ejEE08MFwzhMzhYyqEhdBD6RP4ZBA1uOGqmpvGrgsTKOHMQhRijsPH8oEGDQnDp2bNnOueccyLciHkRlRBY6mvktkGcwb2C04axJ+eGqT0Oc7NH1oZANLlz6Us/7lnXlBr9WBfrQ9ia3D6mNFZ+njERd1gH4lBtkQ0hjhssitX+9a9/xTXbf//906mnntoo+2TtVGvr27dv8CvWXpxHAhKQgAQkIAEJSEACpUKAz11UzD3ggAOafEk6eJocsRNIoPkJ4FbJzpk/uhpEE4SI2mJEfePRv6HzEiKFeMLtjzTmQnhpiPhC36kRTuifRbE/sra6zmHMye0XdxO3Smg4lUggTdgb4YBTKyxWAoNq2ANhmISD8rrFRYe7ziYBCUhAAhKQgASqmQBf6hJVQEqNnKaiqXko8DQ1YceXgAQkIIG00korRV6jhrimxFV+BBDxBgwYEK44clthQ7ZJQAISkIAEJCCBaiZA9AR5Qm+55ZaiYVDgKRpqJ5JA5RPApUF+GvL22CRQSICcUuRAIoTOVnkEcGcRV45rj/xVbdq0qbxNuiMJSEACEpCABCQwFQTIQUlxlWI2BZ5i0nYuCVQwAcKOFl100UhMTPUtmwQkUD0ESDpemHi8enbuTiUgAQlIQAISkEDpEFDgKZ1r4UokUPYEcGesuuqqZb8PNyABCUhAAhKQgAQkIAEJSKDcCCjwlNsVc70SaEYCVLviRqJcHDu5kUCMGNPax/Pz3ktAApVNgGp5n3/+eSJhOg6+2lX2Knv37k4CEpCABCQgAQmUBgEFntK4Dq5CAiVNgA9vL7zwQnr66aejZPhyyy2Xtt566yhN/tZbb6VHHnkkffbZZxGitckmm6THHnsscnFsu+22qUWL4v+aoQQ5axozZkzabrvtoqIPJd5feeWVKE/evXv3ZllXSV9kFyeBaSDwxhtvpJtvvjmSLPfq1Svy8UzDcJ4qAQlIQAISkIAEJPAHCBT/k9cfWKSnSEACzUcAYWTIkCHp1FNPjTJ/7dq1C3Fkq622irLIZ511Vgg/VEdaccUVU9euXVO/fv1Sq1atEn2aQ+BBkLrtttvSO++8kzbaaKMQeL766qt09tlnhyjVvn37KOXcfFSdWQKVRYD/X4g8hGny/88mAQlIQAISkIAEJFB8Ago8xWfujBIoKwJjx45NDz30UHr33XdDsNl4441T27Zt0/fffx+unscffzyEnZ122inNN998qWXLlvEBj1CN5mqEi33zzTdxI6SMxnpat24dAg9rtElAAo1HoGPHjumAAw4I5x7J1m0SkIAEJCABCUhAAsUnoMBTfObOKIGyIvD111+nt99+Oy244IKpd+/eaeWVV471jx49OkQfcm306NEjQrZ44tVXXy3J/VHC/aCDDooQM/Zik4AEGo/AwgsvnLjZJCABCUhAAhKQgASaj4ACT/Oxd2YJNCsBEiP//PPPCYcObhxCquaee+5w4LCw/DyhF4g8M844Y5p99tnDnUMyZY5z4/gcc8wRbhl+nlxjzB9//DGSsXLPfAgvjFe74cJh/C+//DISOs8zzzzRt3Y/Hv/yyy8xJvuor0Q7cxBexhqyuwh3D+EkOHpmnnnmRDjaqFGj4nlcShyr3TiffuQcYl5KQ88000yR24fE04Sq2SQgAQlIQAISkIAEJCABCRSbgAJPsYk7nwRKgADhS88//3waNGhQ+vTTT9MPP/wQ4s1iiy2W1l9//cijg/DB87feemv68MMPY9XnnXdefEtPDhuew63zxRdfpFtuuSUNGzYsSqTX9S0+oghiDecMHjw4RBtEEkKmOnToEA6gJZZYIuZA2BkxYkS69957wzk0bty4EHjmn3/+tPbaaydCxLJAg8BCkueBAwfGOYhG9EPI4bnChkjVt2/f2OsRRxwRog5rP/300xP76dy5c8yJcMP4rKtnz54pr4uxEMSeeeaZdN9994UwxhzMteaaa0YeollnnTUdeeSRhdP6swSqggC/L6iihZDapk0bq2hVxVV3kxKQgAQkIAEJlBoBBZ5SuyKuRwJNTACh4+GHH06XXHJJ+uijj9Kyyy4b4g4Jicm1g2Cyzz77pCWXXDIhrnz88cfh8EH0QHhBrMGlwrm4axA9EIkI1VpqqaXqDNPIItD1118fghBVuHDNIBAhzgwfPjwdeOCBUYULkYaKXZdeemmMhSOH8cn1g4i0wAILpG7duqVff/011nrKKaek5557LgQaXDdvvvlmevDBB0PIKXQGUVnr9ttvjz0deuihMT/7u+yyy2LMpZdeOvbGPl5++eX0wAMPxFpPPvnk6IuY89RTT4UgNHTo0LT66quHo4gE1E8++WTMi5tHgaeJX8AOX5IE+H9HFS1cfttvv71VtEryKrkoCUhAAhKQgAQqnYACT6VfYfcngQIChCSRT+fyyy+PUKS99torrbfeejWCDQII7hTCtY4//vi07rrrhnsG5w4CDyIMAgvP43C54YYb0ksvvRSlyHGxkGQZMaewIQAh5FxxxRXx7f5RRx2VEHiorsVa+vfvnwYMGBA5fg477LCYh3F23nnnEFEI40JkojIX7h+EHgQexBk+UOIK2nLLLaM/YtAnn3ySrrnmmqii1ZBkrziGCFMjVGy//faLcCtcOlQNu+eee9Lee+8dLh7mQ3RC/CGZ7J/+9Kfg8N5776UzzjgjBKXCffuzBKqJAGLva6+9ZhWtarro7lUCEpCABCQggZIjoMBTcpfEBUmg6QjgjqGUMd+2b7rppmnPPfesyWtDKBK5ZBBsXnnllRCAlllmmdSlS5f40MaqEGYIgaKRnwaxhfFw7qywwgpxvLbAQzgYDhtEFObr1atXOGLoTEgYTh7mfOSRR9Jf/vKXWANjLb/88jEHoV2smzCqRx99NEq1cy4fKBGGCJFCcOnUqROHox/3uHga2hCsEHJWWWWVOAUnzh133BGcqB7G3ISpITDheEIIIicQbZFFFol8PLiObBKoVgJU0cr/f/k/YZOABCQgAQlIQAISKD4BBZ7iM3dGCTQbAfJkIFQQYoVYg2slN8KZqC6FoIPjhnAsBJ5pbcyJUwcnzlprrVUj7jAughLCEnl7EIDGjBkTPxN+hZjy4osvxjFEow8++CDhtiHUinuOEbq14YYbTrROBKPFF188bohDU2rsO4d95b4ki+7atWt6/fXXwynEeghhI0xr1VVXrRF36E9f3Evk37FJoFoJWEWrWq+8+5aABCQgAQlIoJQIKPCU0tVwLRJoYgKES+GoyZWvak+HOEIODQQNKlI1RkMUQWhhbJIq124ILFThQqxBvEG4IWyL3DyIQ7h8cA0hSuGmIQcQAg8hU4SNIRJxX9gYc84554x5C4/X9TN9CQkrFGgYj2PMBQvmI4EsVbLgU9g4xlz0tUlAAhKQgAQkIAEJSEACEmguAgo8zUXeeSXQDAQQWQhHIuSJEKfajcpWiDEIQHWJMbX7N+QxcyLg4MDBoVO7IQDh3qEfjiKSN5MjCEHnr3/9a4R/IaCQF4ewKRoCDMmQEazIuYMQVCi8IMpQDauhrbZAhGhTeIzHzJedPIXjIuwgNlGJzCaBaiWAOJuraBG+yP8XmwQkIAEJSEACEpBAcQlM/LV3ced2NglIoMgEEHfaT8gng8BDmXRcM7khtFDNivw7uFcIc2qMhvBCfg6cOeTQKXQG8TOJWUePHh3rYn0kVEacYf5tt902EirzYZE8PrnhuuFDJCLUyJEjI6QsP8fe2APjNFYjITShZDAiXxDrzY35SExtk0A1EyCvF5X5rr766gjvrGYW7l0CEpCABCQgAQk0FwEdPM1F3nkl0AwESIxMjh0SBVPa+4ILLkjrTqiUhbBCbp4777wzBBgqa+VkytO6TMZebbXVokQ5VamodEUSZRw7lGS/8cYbI5lyz5494xjHEXBw5hCmhYhDWXKqZeWGo4acPj169IhEy5Q6J/QMp9D7778f1b0Iq2qshsBD2XgSP5NUmqpiG2+8cTidKN1ONTGbBKqZAAIuubtw2/F/0SYBCUhAAhKQgAQkUHwCCjzFZ+6MEmg2AoQdIVTss88+EQZ16623pmeffTbCmwivQBTZbbfd0tZbbx1iCwvN4UqUWOfnwsZ4+fl8nMeF/Qj3QlCiws51110X3/Ln6lk4dRBPWA/JkhF3qMhFCXKqUlGqHKcOYVCMgSsnj43ws+uuu4YL6eGHHw6BCoEHlw2iEg4gQrdyf+4Lw65Yb+Fzef113dMPYeqQQw5J5557burbt28kgEYwIzRlpZVWCicSe62EZj6hSriKxd0DCdn//Oc/h+hpFa3isnc2CUhAAhKQgAQkkAko8GQS3kugSggQMoVrp02bNpHXBpEFUYTqUB06dIiKUG3btq2hwc8IKQg8CCe58fNGG20UghGiUW70R7BBrEG8oSHGbLPNNony44Q48W0/43Xv3j3Ct7jPY1PJ67DDDktDhgyJkDFEmVyuHZGHNdIQU3DUHHPMMemJJ56I/D7MiXjUrVu3cPIwT64UxviUaSdXDv1orOvoo4+Oc+LA//3D86uvvnoIQFTTopHMmf3mcDFyGCEoMR8haP369QsR6P+G8E4CVUWgXbt2iZtNAhKQgAQkMCUC5F7kPVpuvKdqSOXT3N97CWQCfNbg/Qfv3dtPSENhS0mBx1eBBKqQABWjVllllbTiiitGSBbJihFA6nKg4Fzp3bv3JJTov/76609ynPw9u++++yTH6b/BBhuEuEQIBwIPAkkWgfIJCCkIOZ07dw53DMc5l8bxwkbflVdeOUK+SHTMWIxJY2+FjTEQqgobAg+JnGs3OCB4cStsiDuIPAhkvBFBLCOcjOTP3DdW3qLCOf1ZAhKQQKkSQDCnuuGoUaNKdYmuq4wJLLzwwvElUl3vTcp4W1W3dBziuLJHjBgRRSl4D4jAU1jsg595H2eTwNQS4L0/vysQeBZddNE4nffkiD58sYzbfu21157aYcu6vwJPWV8+Fy+BaSPAL8AsnkzbSA0/mzmzq2ZyZ+HcaejaGJOcPE3ZqDCGUwjBC8cSDqivv/46klVfccUVsVbEH5sEqpEAoYq8Yef/ImGVvKGyVT4BPpTddttt6YEHHqj8zbrDohPYYost0n777Vfnl09FX4wTNpgAgg5fgr333nuRQ5Eqqi+++GJUSUXEQeAhX1vhezzeF3LMJoGpJZDfn5NmIn/ZgOiDuJMFHr5gJp1CtYg9CjxT+yqyvwQkUJUE+Ka6f//+iT8kCDyUcUfgIbEsyaK33377CDmrSjhuuuoJUEXr9ttvj/8XVL8jl5at8gnw+5Dff1Rl5I00Dk6bBKaVABU+KbRAeDYh5LbyIJCdOo899ljkTETgoRAFX9gROo/7OVdAxW2twFMe17XUV/nrr7/G7wsEnlwdmN8bvP6oDkxxlKeeeioEHpz/5Pxcc801K9rVo8BT6q9a1ycBCZQEASziWDyxGfOGhdhxRB4cPYceemjim0Ye2yRQjQRw75Bfi29gdbJV3yuAD2pUFiRBvk0C00qAsGeKQNjKhwBCL24+qrG+9tprIeost9xykfuQvCgIPITMZIGnfHbmSsuRQKHAQ2ggLrJHH3008nNSRXittdaKtBHcV2L4lgJPOb5qXbMEJFB0AuQtIocPH15HjhwZ4Sjk4CFUC0cP3wrYJFCtBPimfd99943/ByZbrr5XAb//SIC/3nrrVd/m3XGjExg6dOgk+fkafRIHbBQC2bWDuDNw4MAIp8PFSYEKBB5u5Du0SaCYBMjHw/sSbrQff/wxhBzEHlw9VN/9xz/+UfM3q9JEHgWeYr7anEsCEihrArh4KAFtGeiyvowuvgkI+P+iCaA6pAQkIIESJpBdO3fddVfk1+HLLiqmbr311lYzKuHrVo1LI/fOJptsElsntJh8PKeeemq4eij6sttuu4Wrp1KqcCnwVOOr3D1LQAISkIAEJCABCUhAAhL4AwQQdy677LJ0/fXX17h2ttpqq7T88ss3qJDGH5jSUyTQKARwnJJWgUTM1157bXrmmWfSSSedFA79o48+uiLESQWeRnmpOIgEJCABCUigeglQRYu8VLminVW0qve14M4lIIHKJvD222/XiDvzzz9/hK/j3Mklqit79+6uEggg8my++eYRWvzQQw9FEZV+/fpFnqi//e1vZb9FBZ6yv4RuoJwJ/P7774ms79wm16abbrr44EQlAvpiJ0R55vHkGpnlKUnJhy/6kgSYygV8CCuVxtqowDJ69OiIj+XNQqk0rg8fWkkeS1WgYoZmMTdVREhWuOqqq/qNWKm8KFxHnQT4NnfAgAGJXFU9e/a0iladlDwoAQlIoLwJkHPnhhtuqHHu7LnnnmnnnXf2PUp5X9aqXD2fozp37hx5NBdccMF02GGHpeuuuy5Ctco9J48CT1W+pN10qRD4/vvv05AhQxIZ3SfXSFC3+uqrRxnaxx9/PJKFUbGkPjEE0eT1118P4eTDDz8MgQeRiKTAJLwjPpp8MqXQKDV+9913B4fFFlus3j01x1p//vnn9PTTT6fzzjsvbbrppumQQw4p2jIQ8Sg7ze3www+PbxqKNrkTSWAqCeREmwjIG2ywwVSebXcJSEACEigHArwnIucO7yH32GOPeG8y11xzlcPSXaME6iSAm4cKkHy+uvTSSyM3D1/otp9Q/a1cmwJPuV45110RBBAQ+Ob7nnvuif3guMExguhBdab8R3PhhRcO2yDOm1tuuSV9++23UXKyLoEHcQfBiNhoxkYconQxYtKoUaMS1loSjRVb4Pnmm2/Sc889l7766qtEnDbKOQ0hgzWzZ/bfHI014CAaNGhQWIxxzOSGMEY2fu6bouHIevbZZ8Ops/vuu8dchfMwt00CpU5g6aWXTnvvvXf8Ximm063Uubg+CUhAApVCgPePfOn06aefpt69e6c+ffoYllUpF7fK9zHLLLMk3oOTj+eRRx5JZ5xxRny5W65YFHjK9cq57oogQDgDNsAs1CByPPDAAyGEoCavs846sU9CqyhBizhC6M7k2scff5xuuummNGzYsPhmZf31168ReHDzIBI1h2gwZsyYdMUVV0TIGG6YLPBMbi/Feg5hiVCo008/PW2//fYREsXciGBrrrlmOJ+oDtEUjbmJ++W677jjjjXXhpA6So1iHyXbv00CpUyA3AvmXyjlK+TaJCABCUwbAb6MvP/++1Pbtm0T7y39nT9tPD27dAjwmaRr167pqKOOSoceemi6+uqr4/0/QmY5NgWecrxqrrmkCPzyyy8JJw6iCeIJIs0PP/wQ7hsEHBoOERws5MPhGM4cfplgC+zYsWPc6IcIggiD2EAoFU6XwobAM6XGNysvvvhiWmKJJdI+++yT+GY9N8QEbg1JgEo/1su6ERtwArVq1SoPFXui1CCN8QodLpzLczDhBh+cSR988EE8ZlyY1OUiwtHCPuEIJ26FY+cFcD7j0BcBbO65555INOJ5XEuZM2v47LPPYi+4o2BPQzBjj7ibRo4cGefgkGJOrhVhbSuuuGJN/zx/vmefY8eOjf3OO++80T8/x9i8Fr788su4J3yFuXPuJF477POdd94JFxP7ocGFG31XWWWVxDcLtRv7Y++MzfP0rc0TlszPNWC/P/74Y+yR68VaOW6TgAQkUOkE+F3M3yV+b+bG7+FS+h3IGvnbz/uA7t27T/T3LK/Zewk0FwHcO4Sw4LgmDLdTp07NtRTnlUCTEOA9NF9AP/HEE+miiy6KUC0FniZB7aASKG0CvCFDTOGXAYIK7YUXXgiRgLAq3qTxDQchOOTa4QM54VIrr7xyOHcQTRq78aEeMYP7LMDkORA7uE2u8SYYIYY/5O+++26IKAhXeT+rrbZaCBSIJcRh8xwJ9rJgwry8EeC5FVZYIdwwhIzxzQ/n0P/cc89N88wzTyQyY1wab7wRWVDNETxgxbdEzMebifxGnH68ASbrPXmGEDgQnnA40Y88PjREl0suuSQSI/MclkvEL/ZPwuTNNtssnkNg4Rc5jie4DR48OEQfxJj9998/GNx5552TJF1DPCKki+vNehBPSNLGtcV9BXu+6XrllVdiLfTnenfp0iWEO0QprKD0IZky3Mn1g6i0xhprxLdjvK5YD84e9pAbfNk/bi32yTnzzTdfvN7I1QRjGmJh//79Y018mGGtH330UQhCCH84hLgOdQloeS7vJdAQAry+EXF5nSG2NkREbsi49pFAYxBAtL/xxhvjb1Aej9+T/D3mbzRhubxum7Pxt5O/AfzeZk2LL754cy7HuSUwEQHeb/Ha5HWpe2ciND6oIAJ8Ybrbbrul2267LY0YMSI+D5VjLp7Jf9KroAvmViTQVASosHTWWWeFwMMHfEQC8rkgcLz88svhoEHc4QM8zw0fPjwS9/JBaIsttmj0ZSGKdOvWLQSlq666KvXq1Stsh4gADWl8UHvqqafShRdeGC4P3gCzn/vuuy+98cYb4RRBIEGsufbaa0MsIKypUOBBGLr44ovjlyQiD6IC30ziJkFMgBmOE0SLLPAg6JBfiA+JiCuIHryZgB19c5gSgsbll18eceC4a9gvVbj4Zfz++++nI488Mlw/9Dv77LMjd9EyyywTThnWyDq4Njx/zDHHhBDDelgjb7ARmRgP4YPrRR6jCy64IESTnFUfMef666+PbPusE9Em74vzEXj4QHHqqafGdefNOsIUgg0JpRGZYAZXRBf68jyvF75BIIcJ4iHC2Pnnnx8fPmDFsTfffDNig++99964zjhxEJhgx3UjIfN6660X62FP55xzTjiQGJcP3bwOEZ14/TEeeVOmJPo15HVjn+omwP+TO+64I9x0JHEvFCSrm4y7LwUCuDSvvPLK+PIgfxnD3xyO83jLLbdM++2330Qu1aZaN7/rc941cpjkLy+Yj9/J/D6mj00CpUSAL/54z4KzXPdOKV0Z19KYBBD+eX1TDZTPUFTVKsey6Qo8jfmqcKyqJYAogm2VcBpcOzhQKCOJawRnyFprrZV22GGHEBNIUMeHcz7sb7TRRo3+TTfiAHPxoR/nCX+U+baFdfFLq3YYT10XDUGFX244SXCdsB+cIIgROEoQeBracNf06NEjPviRtIw3s4gQiDjt2rWLN7SMxZttxAueI+9MZoj4gssFgQfOcLvmmmvCqXPwwQeHawbBgjw2iDw4frJwhpiBa4e4WsQcBB7ORzThw+iuu+4a+Y8OOuigEEc4zrXCMUPfuoQPxmRNuJD4Q0CsLq4dBB6ErcyX5xDaYM8HCN6wP/jgg+m0006LtWL7zHz//ve/hzhFiUacPVn0qs0YwQmx6dZbb401MgYCF6Fd5PDh29///e9/IeggzOVGcmvC9XhdIGLhzmIdJOKGQV37zOd6L4GGEOD3Da8zXnfrrrtuQ06xjwSKSgDxhL87/J7ldx6V33Al4C4lPxy/r/mb3NSNvyH8veLvGr/Ds8DD3wwqNbKu7ERt6rU4vgQaQiCHZ/H+hi+Q+NLKJoFKJcDrnM9MuPvJaarAU6lX2n1JoAEEll122bTddtvFHz6EFD7wUE4S2zffePDLgsabO0Jz+CYEUSMnWG7AFA3qgqCCqIDNEIEHQebMM8+MD18IH4Qx4U6pr+H0Ya24VRA5EA9YM0mGhw4dGg6k+s6t6zi/KLE3Is6wNt5YI2wgZNBwwNCYF5s84gpvdBGRyFHD+nlzQYMXDhhECkKsMlNEDp5DtHjsscdqBB7OQaDad999I1kajxGVEEM+mCB8IcjwRgVRCEcPa0Mgy+PWDnHjfNw7AwYMiDfhiFGFDhjcSrnhLjr22GNDrMGhQygZuXxYO+IVgg+OL14ffCjGUUN4FR9AaPQrbHw4IUcQAiHXAlGI83PjNYfjh9cWQhliY24wQMRi7whROI74NhvHE9wa6u7K43kvgdoE+P+61157xe8MXmc2CZQiAX7X4dbh7yO/U/kCAGfpwIED4wuZ2gIPfXgeZyl/B/l9zd8xfo/mRh/+VvA7m/ELn+P3PH/7+NuCg5K/abiG+Jv2/7F3HvBRXWfaf0GiiSJ6E0X03otpNmAbDAYTcO8liVvi3U3d3Wy+3S/Jz0l2N9l8TjZx2jrZuHdsY2Mw1QaM6b33IkASSFQBon3nf/AVIyGBJFTmjp5jDzNz55Zz/nc0997nPu/7clMob941wl84JnEMDBrHD97TZ/qAS5RtEpZbUCgk20Eo4njFOQbL0g8aryP7GGxHzyJQEIEgPItzj8jzjoLm13QRCDMBfm8R2fmNJUwrCJsN05jk4AnT3lJfo5YAJ1kIA8GBD/GiWbNm/mIdNwYX30HjAp4fDU4IgxOu4LOSemYbN998s0/ejIuIB+4bhAVOLhFRCrqo54eNk0PmJ5yJUCwenJBycllafUbkoGJVcGLLSSgnE5wYkyeHxok2faJ/PCNc0TiJ5kcYh0sgGDGddbEfSFgdNEQrxLht27Z5cSOYXthntkHYGPucMCv6l1/jBJqTd0LbEGYQeBD1aJx0M4ZgrPktn980wmDgj8so+K4F8yEo4ZwIrP+RAg/jZ/7gpJ55uSBHhKRfMFITgWshgIjLQ00EwkKA30OOOzgwuRkSiC30HwGF4w6Oz9WrV3uxhN9sjt2EHyIE4XSlMZ0QWX7nEdI5dtFYB7+v3AUmTBhXLC43bjBwnOJ4iiOTYzHiPs4InL+sh0ouOHs4thECzm80N0Bw/ZB7jelcgCBWIQoFv+1sl/7iFkUI4piZlJTkK3ISeowIRR8D1xDzq4nA1QjwPUZo5JwMgVNNBGKZAOfmXLfxm/2///u/PkyLG7ZhavlfmYRpBOqrCEQBAU7QuLMXnDRxssVJHkIPYgt5UoKGIMB8nPxxklZajR8oRCcSIHPyyIkjSSY5EeWCHzdJfg0RAksiThlOeBGoOJHlBBPXC/2ObLyPdJsUd1wIJpEXiDhaOJGAYcCJE2L6xDP5ZXhENsYZaW2HNe6ewC3EvME0+smJeVEbfQmSRRckjNA/hBZCoBDKmI+TbJxTfBcQePJyvFo/mB9BhsaY8mvBBUfkhQrzIeZEXgAwLRB86KuaCIiACFQ0Avym4qIhtxzHZH4ng8Z0Tuw5FvI6qEaJuM977ugSIsyxH9GfYyvCCqGwgcDDunD+kAuOyiyTJk3yogvHhiDvGscHts3xgWMLud0IASaMjOkcWwlt5veaMGWOPZxTEPrNuhF7fvazn3nnHNtjOk5WkvDjKOW8hBsDbJOCEBxnn3rqKb9u5lcTgcIQwO2L2w2hUg7NwhDTPGEnQPQBkQx/+tOffFoDCTxh36PqvwgUgwBiRN4L6GA1fMajvBoniZyc4jYhdIeTWdwv+Qk8nGAyD0mMg7AeyrhzQokLiJCzoDEmxBKcSAgPlDOncceQO5BFbfDLz9ESyY7PEWsYExWuuPsa2VgHfY1skcsH0/ObFnx2tWe2wUk9Ig0n2PmJLTChGhjunaefftqHfGG754KCE+/iNLYbjJeT/PwalnxapKDI+6txZR41EbgWAjjLuMvL3xa/HVxIqolAtBHgd5scZJy8I9QgiOCKIU/b6NGjfXcR/jnWBYUGvve973nXJx9y7KQ6I8dIcvaMHTvWL1MYwZ6/jci8a7hIr5Z3za/c/cMxleMNueT4+8KN89Of/tTfuCE5NK4ixCCKG3BzhiowVEkMQgx++ctf+vHiYFUTgaIS4Lcd9zffJ75/aiIQ6wSCm+RcFyFuhq3JwRO2Pab+isBVCHAgJp8MTpbIC3tOQDkB5CQzcnrk6hAmuCOIYBMkG2Z+7lZydzKyIbIg6nBnh5PeoGoOJ6GRQlCwDOthGU6ecZhEumqCea72zEUjFmFyATEWQroQPmi8x1JfnPWyDk74WQf8rtQQtQjx4qKAvA2PPvpoDk8YMz4elFDnZJq8JLigcMrMdfmBOFBEWpzZNvOxLOzyClSRfUFsY3zkJSIkDYdW0MilM2vWLH/3mIsVNREoSwKEcBLmwveTnGP8naqJQLQR4NiDw4XjEResiOUcR3C68vtK4yYFSfgRLalyxWfBcYZ5OOFHmMENGwg8hRkn68CJg5OTYyd9QPAJfvOv5KZkWUKrRnyZwBxxib83QsjIj8Lxl2MLBRy4mfDd737XH3dYjhs8HBtxBqmJQFEJcD7J94cbTMU5vyrq9jS/CEQDAa6TOI/h957rorA1CTxh22Pqrwg4AggBnNhxkR80hAess5yUUvGKMCzeI4owP7H/iDScCFKlqqDGSScPcgTg2uGAjrU7r2jDwZ4YVdZL4l/EG+7sYGFnWt6GbZ0TTz5DGMFuTkhRQWJT3uV5zza5y4rdnDuo/PAyRp4J16IEPWXhsbsXpcGOZRgDlnnEGV7nJ5QwDi5gEWtIVIw4g22ZE2lOsDlJHz58uH+P0IPoAicEGEK28rbgBBzRhipgJHjm5J+8CpGN+RgrVv+33nrL2/bpB3fUOPmiP7AnDIB9zPxqIlBWBLhQ5jeCv1FszWoiEI0EEPIRafhtRhjB0cNvf/CbTZ/5bOXKlf7YSY6byN9SjgvkymE9eW96lOZ4EYUIQY5sHEM5D+D4zg0CQrEQsMaMGePDgiP7TZ/JvRY5LXJdei0CBREICoJwfhd5c6qg+TVdBESg/AlI4Cn/faAexAiBopw4IaBcS8NRg8ARGQZB2BBVsgi9opISiRzJ/cJ0Lr5wpnDhT9KwyFwDkf1ArODkl7uKnCwS289BHWcL4kxkaBDTqdaF3R03CwmcqdbBCTPrx/oe2Zifk2is5cS0ItJQCYsKVgG74DlyucjXnKAi8HDyPWfOHHv22Wd9CXL6x0kIYgeVzCLXE/k6cl1MDz5DZEI8oS8IUD//+c/9XVYSYAbzBfNyYs/JMs4d7qBik6cqFfuUO7/cWaWPlB8PhBjuoHLRQD9hRGhAsD62zfwwRDBi35HAE4En+J4E87J/nnnmGb8dKnlxgcI+Rjxif3ExQpnd4HsRLBc8R44/eH2lz4J59CwCVyPAb8tjjz3mBU8ca2oiEI0EECB/+MMf+psCiOq/+c1v/A0Hjnn8ftL4nca1wO9v3oqT/F4i8vPAAYSwEtlYNmh8xs2Hkmj8zgdOn2B9/J3RH44tNG4wsE3y7uRtTAuOJ3k/03sRuBIBBES+69x44hxMTQQqCgF+M0nDQJ61vK75aGcggSfa95D6F/UEuKAnDCeyRDadbteunbd3Y/GLvIjmRG3ixIneucIBM7Jx0ojIgCgTWXkrmIfcKog4QcLHYDrPXPwzne2R94X4fg7MOEqYxo8U1UKoxMH682v8mCHOYO/mbjxCEoIGIUkIDjh6+vTp4xdle4z5+9//vhd5EC24u0O/udhDgOEOY9BwAiGM4DAinIOTVezqnDBQuh1esIlsnFxz0RgkD4Yjy7BNhCjCwzjxQNCgj7ALcuJwQguHvKzoN/1in0V+Rn8QT7gjSr4DTp65WwsPyqxHVqWizyTYhOuqVav8XVOYEhYHY/pDv1kH4WQk1CScCmcD7xHKcA3RYM4y3/rWt3LuCCe7akSMlYsO9h/vaUzDVfSv//qv/qKEfjJ+hK0RzrrPdwP2QUO0+uY3v+nv/EZ+B/mcKmtwZdm8nwXL61kECkuA7z4PNRGIZgL83nLc5Vg7fvx4L5b/27/9m8+rw7GN30zm4XjA8ZMHv5FBQ0DhWEc4M86f4LeT4yRiDpWrguMV8+IqLYmWn9OVfkY2jm30h5stbDuycZyg3wqxiaSi14UhQMg+zjC+13lFxsIsr3lEIKwEgpu/XLPwuxqZFiHaxySBJ9r3kPoX1QQ4mcI2ndc6TacJg8ovFIoTSNwf+TWEAy68eeTXEDdInni1xvpRnDkoIxBwUscjEBWutDzzIZQggnBCyElkYMslV0Fk42CPCweBhhNIRI7gDg/iRGTjh5IfR8QSRB5asF7CivJriDWUi41swXoQb3AL4Uxiu6wr8iSYk/If/ehHkYv615wEj3BiCI/IxnTCo9iXrBPHEbxw5/CIbOx37gRTbh7HEBcBQR+C+XDq4OLhQoD9gDjHcnm5BOtinwWVVVg3raDvAqLTd77zHc8R9w595YIlb+OC+yc/+Uneyf49CTh5qImACIhARSSAEE8OHW5G4Hh96aWXcsqTc+OGfDaEE5OHJzi2cFyd68JheQ5u6nCM5OKXYy3OVG420HDWsN78GscbRBiOHSV10cxxgeMJobrcROB8gfc0+hHpLsqvT5omAiIgAiIQGwQk8MTGftQoypgAwgchMXkdOGXcDW0uRAS2bt1aar3d6crXX2sj51Leu77Xuk4tX3EIINoiNnKxi+DIBayaCEQzAcQPjuG4OQkdpiQ6wj83N3BDIvwQNot4Tp41GndyX3jhBR9qGwjkiD+ERpNDjdBZxHzcmzhM86uayN8IYsz8+fN9/jqcnYj6yV86NYvLDJctufcYC5W+EK+4YYOLiD4jQKmJgAiIgAgUjgC/1UQWUH2Yc+QwNQk8Ydpb6mu5E8Cdgi2bUuJU0CBkSU0EYoEA8cW6wxsLe7J8xoB9GbcDTjYujglfVBOBaCdAGC5unbvvvtt++9vf2u9//3v/TL44XJXkWSPXG64cBCG+54gmOFED5y7rwMVK5S3y+hCmxfcfdw7uT0JpIxuCEHnXpk2blpN3DbcmYb1cUES2wIETPEd+lvc15yc4O//rv/7L5+gjCTTOVnLzEI5Mfjn6qiYCIiACInB1AvxWk3+U8FsE+zA1CTxh2lvqa7kTIMSIuH1Cg7grRlJdNRGIBQLcdebBdzzvRUYsjE9jKF0CXETiSMCJMGzYsNLdmNYuAkUkgPhx7733+pDZvKHKCDaEPnM8Zz6cLuRwIycbueGoIkkIMr+LuGLIx3bLLbfkhG0xHffND37wA5syZYoPySX8i3Bc5sNZE5lTj/lZR5B3DeckFxFMpwgCDqKgj0z7xje+4R1BeYfMOglVJi9bIAAhHHFRgvuIRNGMjVAy+s1NqSBUOO+69F4EREAERCB2CEjgiZ19qZGUAQFO+rjTRh4dEs+piUCsEeDOc3BxEWtj03hKjwDJvclVQmgW4SlqIhBNBMhzQ4XB/BoiCgILVSMjG2IlohChWJHhh8yft/GbSQ438tchrBDWFeRSwwGUt9Gfr371q144wjkZhHvjDIpsbCtvv4LPSc7PI7IF7iAcReThwcGDaEXxAIQkBKv8+h+5Dr0WAREQAREINwEJPOHef+p9ORBA5Ams2eWweW1SBERABKKOAC4FHmoiEGsECGvC+VKYxrwk2C9sCwoNFHb+q80XuOhIsE/uCFxJK1eu9KFnCDvcoEIEUhMBERABEYhdAhJ4YnffamQiIAIiIAIiIAIiIAIVhMCLL77oQ8gJ38JBREEIQszmzZtno0aNyhVaVkGQaJgiIAIiUOEISOCpcLtcAxYBERABERCBkiWAUyAIYyHcRFW0Spav1iYChSFAbh8qNmZmZvoHyxBS/uSTT9rEiRN9bqEgX09h1qd5REAEREAEwkdAAk/49pl6LAIiIAIiIAJRRYDy0R999FFOFS1yfaiJgAiULYGvf/3rZbtBbU0EREAERCDqCFyeKS7quqgOiYAIiIAIiIAIRDMBqmiRyHXhwoU+yWw091V9EwEREAEREAEREIFYJSAHT6zuWY1LBERABERABMqIAFW0KDVNeWhV0Soj6NqMCIiACIiACIiACOQhIIEnDxC9FQEREAEREAERKBoBVdEqGi/NLQIiIAIiIAIiIAKlQUACT2lQ1TpFQAREQAREQAREoIIQOHPmjO3evdsWL15cQUasYZYmgT179tjZs2dLcxNatwiIgAjELAEJPDG7azUwERABERABESgbAqqiVTaco20rVatWtaSkJIuPj7fp06fb6tWro62L6k8ICezdu9eXew9h19VlERABESh3AhJ4yn0XqAMiIAIiIAIiEG4CW7ZssY8//thq1Khh48ePN0K21GKfQL169WzMmDGWmppqa9asscOHD8f+oDXCUidQq1Yt69atm7Vu3dqLh6W+QW1ABERABGKIgASeGNqZGooIiIAIiIAIlAeB/fv32+zZsy0xMdEGDRokgac8dkI5bDMhIcEGDx7s9zthNWoiUJIEkpOTrWbNmiW5Sq1LBERABGKegASemN/FGqAIiIAIiIAIlC6B9u3b20MPPWTVqlXzITuluzWtPZoIIPL079/fP6KpX+qLCIiACBSVwIULF+z06dN29OhRy87ONsJQcZThTq1UqVJRV3dN8x87dsy2b99uVapUsU6dOllcXNw1ra+4C58/f97nxKpcubIcdcWFWMbLSeApY+DanAiIgAiIgAjEGoF27doZDzUREAEREAERCCOBgwcP2sqVK23Dhg22b98+nwcquGkxbNgw69OnT5kOa/PmzfarX/3Kmjdvbt///vetcePGZbp9Nnbq1Ckffjt//nx/82bSpElecCrzjmiDRSIggadIuDSzCIiACIiACIiACIiACIiACIhArBAgj9jkyZPtxRdf9OJO/fr1vVsFJw8V3XDTlLXAg4MoIyPDh8DiKiqPlpaWZn/605/sf/7nf6x3797Wo0cP69KlS3l0RdssAgEJPEWApVlFQAREQAREQAQuJ0AVrSNHjhgWbvLwcNdTTQREQAREQASinQBhWUuWLLHf//73dubMGXvkkUe8mMFxLD093Xbv3l0uokbnzp3t//yf/+PDxKhWWNbt3LlzRm61Tz/91IeoIfZQLVECT1nviaJvTwJP0ZlpCREQAREQAREQgQgCW7dutWnTphn5WMaOHaskyxFs9FIEREAERCB6CeCU2bRpk893g7jzve99z2rXrp3TYT5H7MjbEINw+BDGRDJwlonMk4Pzh2Xj4+P94/jx4z6/D8dJboaQW4fPIluwDOupU6eO9e3b1+f+Yf68jXnZflZWlt8+N1ci50O4om9BdcO6det6oSbvegp6j2tp2bJl3kU0YMAAz2jOnDn22GOP+Rs5BS2n6eVPIPe3qvz7ox6IgAiIgAiIgAiEjAD5CmbOnOlP+jgRVJn0kO1AdVcEREAEKigBhBJcqCQTRnDhObKRaDmyMf+uXbts4cKFXvRAuGnYsKH17NnTV5Fs1KiRn51cPggibdq0serVq3uXEOvHjYMww7GSBPVBQzBau3atffbZZz4UiuIFn3zyiTVo0MAmTJiQIx4h2mzZssUWL17s3UW4Z+vVq2e9evWyG2+80QtDJ06c8LlzFi1aZHv37jXEHqrSsU1CzfKOKehD5POBAwf8jZtmzZp5V9Prr7/ux7t06VK76aabImfV6ygjIIEnynaIuiMCIiACIiACYSNAguX777/fn8SWh5U8bLzUXxEQAREQgeggQIUsxA8cLvPmzbM33njDRo8ebS1btswRVYKeIpQgrpCXBtcqyxLKRSgTeXv+7u/+zh8LcekQ9kWIVdeuXf3ND4QWRBucPoQ64YRBlMHJQyPJ85tvvmkvv/yyffvb3/bOnV/+8pc+PolVJwAAQABJREFUJApnLK4exB2Eneeff94WLFhgTZs29c5Zcgh98cUX1q1bNz8f4/jtb3/rBSPGgQhFiNV1113nEzYPHjw4GFK+zziPcOauWLHCmBce5AP62c9+ZlOnTrWRI0fmcgvluxJNLDcCEnjKDb02LAIiIAIiIAKxQYCTVh5qIiACIiACIhAmAoQ1IXw88MAD9uqrr9rPf/5z734ZNWqU9evXz1exCkqkI3K899579tZbb3k3DCFdlFHHwcq0V155xTt5Bg4c6BEQPoXbB8fLww8/7N04iEGff/65F18QfXD40Hbu3OkFJt6PGDHC57XzH3z5D+ISZdPJFYQzCFfPxIkTvTCFGEMiZvrC69/97ne2atUqe/TRR+3mm2+2Q4cO+STSH3/8sReFSJiMOFVQY35EIkQl+oKLhzGxDEJSSkqKF8AKWl7Ty5eABJ7y5a+ti4AIiIAIiIAIiEBMEch2oQYZGZmW5cIetu/YXaJj44Kjfr26/q55547tSnTdWpkIiEDFJMANiieeeMKHOuFQwcUza9Ysoyw4IgrhVzh1yNXDdEKi7rjjDi+eQAwnDQmZEXpw2AQCD7l7cLg++eSTdv3113u4Gzdu9OIJ+W0QSxB0cOaw7h07dvht4sRBBIpsuGoo4z537ly/rn/5l3/JEYeGDh3qZyXUjP4hzlDaHZcQ5dURh3AVIQyxDsKq6Vd+jXkRcBgLJdoRp/jdxQk0fPhw7xziM9atFp0EJPBE535Rr0RABERABEQgNAQ4OY2solWY+P7QDE4dLTKBtLR0+9+X37TDR47a4mUri7z8lRao6sIZWiQ1cyJPPXviqw+aRJ4r0dJnIiAChSGAQweRhxArxJIPPvjACykvvPCCbd682YdMEapEXppt27b5cGQcMvv37/er5xiIaEJuHUKhgoYw0qpVKx+mFUxDKBk0aJAXUMiRc/vtt/v1IAyRb4c8OvlVomTduHPI4zNkyJAccSdYL88kRqZ/uHmY/5133sn5GNGGZXEV8boggYf8PeQCQnAiyXNmZqYXolh3kyZNfCgZuYHuvffeK7qAcjasF2VOQAJPmSPXBkVABERABEQgtghw0klOAezb5AoILOexNUqNpjAETriLhwVfLLUX/vaqv5hIdJVgSqqddXfDERK3bd/h7kbXsAvuvye/+pBEnpICrPVUGAJctCPEU/1J7RIBQpxuuOEG79jBcUOuHRwz5JYjlw4OGYQORBDKh+dtPXr08CJNMJ1jIi4YhJugwbx79+7WokULW7dunQ+7QihC7KE0ekH5cRBmyNPD8jiG8msITYSR4cIh/IuwsciGm4ciCAhPBTXy+SDgsC5Cwn70ox/5WVkn66Yfa9as8SIQSZvVoo+ABJ7o2yfqkQiIgAiIgAiEigAnkgg8lGmlKogEnlDtvhLtbGbmEVu4eLlfZ+NGDe2+u28vsfUfc4lCZ8yaazt27nYXGSftk5lzrJL778mvPWidOuQfblBiG9eKRCCGCFABinAgBAiS/uLM4DW/4YgZFV34IeHyuHHjvJixfv167+Ihdw4JkXHXIMR84xvf8GFPkV+LwLETTENEIzQqb0NkQUCaMmWKd/LgIEJ0IxcQ+W7ya6yb7VNti6TJ+TU+Z3uUWL/lllt8np688yFidejQIe9k/54KYeQCIoEz3wOcRpENLmyDeQhlk8ATSSd6XkvgiZ59oZ6IgAiIgAiIQCgJYPW+7777vG2du5VqIgCBpk0a2TNPPlpiMA4eyrDMw0e8wHPxYqeqTZ85269fIk+JYdaKKgABnBgk4qWUN2W9ueBH3MEZQv4XKkIh/CBu4NiIdKDEGh4EE3jQcLgECZV5Rszgtwb3CuXT4RJUisSBgyATNHLk8KAk+tUaghriCCFUhIOxXtZHQuOCGqINN08IvaK6FYmQg/0S9A9xhxAw+kryaMLNWI7GPPQPZw77Or92+PBh7yRiGw8++GCOeyeYl+Vnz55tzzzzjM/zg6OIEvFq0UVAAk907Q/1RgREQAREQARCR4CLg4LuCIZuMOpwKAgkJtaxSRNutbcnf2jTZ8z24VpPfe0hOXlCsffUyfImQJnryZMne4GH5MA88jYu3BECuIhHNIjVRrgViYnJOYPowrgRSMi3g8MGIQU3DAwQvZiHSlp/+ctffMgW85Pzhtw3LEfVqkB4KYgZwlGnTp18qBYJkRHWWI7QrYIazhtCwJJdSXeSHJMziHAynFdB6BR9I5QMF9CMGTP8a0K+cBIh3lDRi306fvz4fDdDHiHKvyNAjRkzJt9x9OnTx/cTB9hnn33mcwjluzJNLDcCEnjKDb02LAIiIAIiIAIiIAIiUBwC9esm2jefeNTdljZ7+z1EniBcC5GnbXFWqWVEoMIQwIVC8l/cJjg68muIAogHOFhiuSHKIFZQfpwy57hkCFXavXu3F3AQUQjXonIW4giVtbZs2eJDlEi03Lp1a5+Th1BlQpqCalk4gIJHfvxYjkpX5LuBNaJb3uTKgZuI5XHkIPA89dRT9vzzz9tzzz3nRRz6hAiFe7ZLly5e1Hn88cftD3/4gz377LNekMLZQ/Jn9jXl4PNriFSMa/Xq1X4cke6kyPkRf8i1Rzl5wrS+8pWvxPx3JHL8YXgtgScMe0l9FAEREAEREIEoJsBJI5ZuTkCxg3OyqiYCpU2gHiIPIWCVnMjjnDzT5OQpbeRaf8gJkOcFpwpODgQJfqvzE3gQCxACCN967bXXQj7qK3effEOU/yaBO6IOIWkIK1SqIvx49OjRvuw50xC7EGUQvgitQhiCH+tgPpw+gXsHhw2hyzhe8msIRpQgZ5vJzpXD9iIbLhwqbCGoBCIboVx33nmnDyXDaYNogxhFTiCEpSC0jn1HPwinYp8j3rANBKJRo0ZFbibnNaFqjIvqWIg7BYVekYfn1ltv9WIQIhUCWdC/nJXpRbkSkMBTrvi1cREQAREQAREIPwGs6dyF5OSQE1wlWQ7/Pg3LCLzIk8fJQ9+f+trDcvKEZSeqn6VGgIt7BAsSBCPqUPGQi/6lS5f6nCxc1OdtgbjzxBNP+GpJeT+Ptfe4ZhBtEFiokEUoEzcrEDIQbngd2XA9kdsGtw6iECFehG7xiBQ6EFwCN0/k8sFrBCNCqnjk1xBtfvrTn172EY6d2267zYdQsf1zrrogQlxkPxF3EHnuuusuH77FPAhK+SV8DjZACBjCDY8rNcbYu3dv++tf/3ql2fRZORKQwFOO8LVpERABERABEYgFAlw8YNXmxLNv374SeGJhp4ZoDIg8JHOmbPo7PlxrtjP1VLKnvv6QdWyvcK0Q7Up1tQQIIOpQzhtnyOeff26U4F6+fHmOqIOzBBcHjg6EHspzBy6eSHGH+SiHXVEaAgnHMB6FaQgdOGZ4lEcjj09BLpugPzi0CiqpHsyj59gjIIEn9vapRiQCIiACIiACZUqAkq/YurmzWVCJ1zLtkDZW4QjUdSLP3z35mBd2yMkzbcasLxMvy8lT4b4MFXDAiDoIOampqV7MIUHwsmXLvIADDpLgE0KEqENOGRwoCBMvv/yyD/OhmlZecacCYtSQRSAmCEjgiYndqEGIgAiIgAiIQPkR6Nixo/FQE4HyJIDI88xTj5F32Tl5pvjqWvTn6a8/LCdPee4YbbtUCCDqkE+HkKJ169Z5YWfjxo0+NwobxIETiDrkmAlEncjOjHBluakIRagPIT2EZbGcmgiIQHgJSOAJ775Tz0VABERABERABESgQhI4dvyEvTfl43zH3jKpqc+dceTIUZv+yWyfF+MH3/mmSzpaPqEU+XZSE0WgGATyijofffSRz6+Dc4cWGX5FVSZEHXKvFNRatGjhc89069bNHnroIYk7BYHSdBEIEQEJPCHaWeqqCIiACIiACEQjAfI3kJySHAYkmlQVrWjcS+Hvk895Ua+uH0hqWrp9+5/+71UHddJ9N+d+Ot9uGjHMxo4aedX5NYMIRBuBQNQh1xllrGfMmOErYJE8OTs725c779mzp899hiPnaqJO3vHdfffdPvlueeWSydsfvRcBEbg2AhJ4ro2flhYBERABERCBCk9g+/bt/qKDKlpBSECFhyIAJU4gIaGGDR92naWk7LNDGZlXXf8pVxp4xco1dubMWdu5a+9V59cMIhAtBAJRh1Lmmzdv9r+vJESm8hJVn1q2bOkTJTdu3Nj69+9fZFEncpy4eNREQARih4AEntjZlxqJCIiACIiACJQLAaq1TJkyxZeV7dWrl0/kWS4d0UZjmkA1VxFm8MD+1rd3T9uxc/dVx7r/QKp99alvX3U+zSAC0UAgIyPDizmBqPPJJ5/4RMmIOiRJppx2ly5dfElsXuPUoZS3mgiIgAhEEpDAE0lDr0VABERABERABIpMoE2bNnbPPff4KlpUYlETgdIkgNDTuWP7q26iRo3qV51HM4hAeRFA0DntXGa7du1yrrQUnzA5r6iDO6dr1642btw4S0pKstatW0vUKa8dpu2KQEgISOAJyY5SN0VABERABEQgWgl06tTJeKiJgAiIgAgUTCBS1FmwYIGlp6fbwoULfQWswKkzatQo74K8+eabJeoUjFKfiIAIFEBAAk8BYDRZBERABERABERABERABERABK6FAKIOVa7S0tJsyZIldvDgQS/qLFu2zCemJ/wKUQcn5E033eRDrxITE69lk1pWBESgAhOQwFOBd76GLgIiIAIiIAIlQYAqWsePH/cJQFVFqySIah0iIAJhJhDk0+F3cdWqVd6hs2HDBp9jh2qDkaIO4s6QIUNMok6Y97j6LgLRQ0ACT/TsC/VEBERABERABEJJYMeOHTZz5kyjihYXK+SJUBMBERCBikQgr6jz/vvv24EDB2zfvn3eqdO+fXsj7Kpt27b+d1KiTkX6dmisIlB2BCTwlB1rbUkEREAEREAEYpLAzp07jYsZ7kD36NFDAk9M7uXSGdTZs2ct/WCGHT9xwho2qG/16hYcmnL23DkX6pJme/bud5WEGli7NhISS2evaK2FJRCIOvv377eNGzfa1KlTfTjWsWPH7MyZM/63MAi/Gj16tHfq1KlTp7Cr13wiIAIiUGQCEniKjEwLiIAIiIAIiIAIRBIgd8Sdd97pHTzNmjWL/EivRaBAAkeOHrWZs+fZhs1bLDPzqN065ia7afjQAufPyjppH8+Ya2+9O8W6delo48fcbL17dbf69VQqukBo+qDECeQn6ixfvtzi4+OtSpUqXtTBqVO/fn0bNmyYRJ0S3wNaoQiIwJUISOC5Eh19JgIiIAIiIAIicFUCnTt3Nh5qIlBYAqdOnbbP5i+yf/rXZ61RwwbWrWsnO3LkaM7ix44dt88WfGG1a9eyG4YOypleo3p1S2rexGbNmec//+fvPmN3Thyf87leiEBpEMgr6nz00Ue2YsUKL+oQekU58+7du1u9evUk6pTGDtA6RaCMCZw/f94OHTrkcws2atSojLd+bZuTwHNt/LS0CIiACIiACIiACIhAEQkcPJRh73/0iSUk1LCRw4fZQ/fdYdWqVctZS8r+A/YP3/9X69O7R47AU8eJPQ/cM8lG3jDEvvODH7vktWts7rwvJPDkUNOLkiKAoJOdnW2En5JHhwTJeUWdfv36+ZDUCRMmWJMmTaxdu3ZOkKxdUl2IivUwHnKrkSz65MmTUdEndUIEyoLAORcSvGXLFi/ihu0GlgSesviGaBsiIAIiIAIiEMMETp8+nauKFmEKaiJwJQKn3HdmT8o+q1a1mnVo19a6dOqQa/batWrZ+LGjrFeP7rmm86ZqVRcG07KFF3gu+1ATRKCYBAJRZ9euXTZv3jw7fPiwzZ0711fA4jcNASdIkjxmzJiYFXUi8TVv3twaNGhga9ascWGUmZEf6bUIxDQBHDx85ytVqmSNGzcO1Vgl8IRqd6mzIiACIiACIhB9BLZv326zZ8/2d3pvuukmJVmOvl0Uuh4lNW9qz/3nT0LXb3U4XAQQddLS0iw9Pd0WLVrkRZ05c+b48CtEHcKvSJJM5auxY8fa4MGDY86lE649pt6KQNkQwMGzbds2L3BSPCJMTQJPmPaW+ioCIiACIiACUUiAMIZ3333XV9Hq1q2bBJ4o3EfR1CUqZx3KyLTjLs9OcVpcXJzVTaxj53yOhAzbsXOPtUluWZxVaZkKSCDIp0PI0bJly7xDZ/369bZ582afJDmynPmtt97qkyTXco6yitiCEK2srCw7depURUSgMYtA6AhI4AndLlOHRUAEREAERCC6CFBF64477vAOnqZNm0ZX59SbqCKAuLNtxy6b/MFUO3zksA0bPNBat2pxWR8piU6i5fzKpie4nCDXDehjU6fPtDVr19uf//cV+/63ns533stWrAkVkkCkqLN06VKbPHmyT6C6Z8+eXKIOYViIOjh1KqqoE/kFadmypZFgFpcTIWtqIlARCBCehauP8CwSp4etSeAJ2x5Tf0VABERABEQgygioilaU7ZAo7s5J5wJY4ZIjz1uwyGrVrGlDBg2wvr0vz7NzOPOIvTn5A+vVvZsNHTwg14jcObcTE6s7Yail7XPJmFe69eEIyk8MyrWg3lQoAoGogziBQ+f99983piFUIDQmJycbIaWIOuPGjZOoU8C3IyEhwaq76nXHjh0znDy8VxOBWCZAgnXybxGmOWBA7uNPGMYtgScMe0l9FAEREAEREAEREIEYIBAfH28d2rez++6+3f74wov2P85908olTKYyVtBOn862pStX2y/+3/PWqWN7m/beq8FH/vmoc/a8N2W6LVy0xJVMb2aTJoyz9m2Tc82jNxWTAAIOlW8QddatW+dFnZUrV7rE3FV9NZzWrVv7RMmEHiHuDBkyxGo6oVGtYAIkmK1bt67t3bvXuxpgqCYCsUzgzJkztmDBAiMcuGPHjqEbqgSe0O0ydVgEREAEREAEootAUEWrcuXKPqxBVbSia/9EU29qOCdAP1f6PLFObZvy8QzLcOXSd+7am6uLGa5yyeQPPvbVspKaFRzyV9XdXe3Zo5s9/tj9uZbXm4pF4NChQ7Z169YcUee9995zFdZWeVGHfDp9+/a13r17++TIVMEi/EqiTuG/I4TdEqaSmprqqwpJ4Ck8O80ZTgIIPCRd54ZEly5dQjcICTyh22XqsAiIgAiIgAhEF4EdO3YYlWdquNwoN954o7Vq1Sq6OqjehIpA1slTtm7DJi8WDh40MFR9V2dLnwCCDiFWJHcPnDqIOjh1qlWr5kOu+vTpYzxuv/12L04QRqrQouLtm+HDh9uHH37of+MXLlzoHQ1iWTyWWir6CfDbgvuP35d+/frZPffcE/2dztNDCTx5gOitCIiACIiACIhA0Qgg8Lz11lvexs/dLgk8ReNXkeemFO3R45eqaZFcOS39oB04kGpt2yRb65ZJFRmPxv4lAUQdviv81nz22Wd24sQJmzZtWi5RB6eORJ2S/8qQaBnXzpEjR2zNmjUK0yp5xFpjFBEgz9Qf/vAHLxaTcD2MTQJPGPea+iwCIiACIiACUUSAZKXcKcfBoypaUbRjorgr8S63QZ3atWzXzl22dNlKW7Vmva+mVd05MEhwOWbUSOvTq4eNuvH6nFEwffvO3bZ7T4ql7N9vlVmHC/VSi00C+Yk6H3/8sQ+/Cpw6hFyRJPkrX/mKF5jl1Cmd70KPHj2Maok4pjJdCKXCtEqHs9Za/gQIz1q8eLHPv9OpU6fy71AxeiCBpxjQtIgIiIAIiIAIiMAlArh2whinfmkEelXWBBIT67jEykO9U2f9xs32s1/+tz31tYd8suXhwwYbj7ztRNZJmzJ1pn04bYav5jOgX28336C8s+l9iAkE+XQQ87744gvv1Jk6daqtXr06J/yK5Mjk1kHUIZ8OwrJa6RIgTGvKlCm+shBhWlz4invpMtfay54A4VkbNmzwTkHCs+69996y70QJbFECTwlA1CpEQAREQAREQAREQAQKT4CS5vfd9RWfbHnL1u2+BPO5c+evuIIEVxr9ugG9bceuXdalU0cbO2qEtW/X5orL6MPoJxAp6iAeEO5JSW7CsSjPjUMnEHUmTpxogwYNkrhQxruVMK2uXbva9OnTbebMmV5YI3G1mgjECgHEneXLl9vPf/5zn6/r29/+dmiHJoEntLtOHRcBERABERCB6CBAFS1yYlBFi+o0qqIVHfsl2nuByPPAPZMK3U3Ccm4YOsg/Cr2QZoxKAoGowzPunHfeeceLOrwn1w5hn4g6HTp0MEQdnDqIPWrlR+CWW26xZcuW2dKlS73IQ661+vXrl1+HtGURKCEC58+ft13uxsGPf/xjL2KSzyus7h2QSOApoS+GViMCIiACIiACFZUA1SY+/fRTfwE2cuRI426vmgiIgAhEEkC82bZtmx08eNAn63377be9uINwE+fyKQWiDqE/48aNk6gTCS8KXuOcuuuuu2zLli328ssve3EH8U0iTxTsHHXhmgicOnXKXn/9dS/u4FQLs3sHEBJ4runroIVFQAREQAREQAS2b9/uT44SExN9bgYJPPpOiIAIQCCvUycQdRBxCL0izKd///4+5Gr8+PE+/EpOnej97owYMcInoH3ppZfsN7/5jQ9lIReS8vFE7z5Tz65MgNCsVatW2d/+9jdr3ry5/eAHP7D77rvvygtF+acSeKJ8B6l7IiACIiACIhDtBKioEpzkN2nSJNq7q/6JgAiUEgEEHcIdyJ/Da8Kv3nzzTe/YCUQdSpkj6tx9991Wq1Yt6969u0+gXEpd0mpLkADi/QMPPOBLpVOm/sUXX/Qiz7Bhw+TkKUHOWlXpE+B3KjU11dauXWu//vWvbc+ePfb1r3899OIO5CTwlP73R1sQAREQAREQgZgmgKWZh5oIiEDFIxAp6sydO9cId3j//fcvE3UGDBjgQ3wk6oT7O0Ko1re+9S2rVKmSUbZ+37599rWvfc3I0YMAJDdPuPdvReg9rp01a9b4hO64CjMzM23o0KH2+OOPx8TwJfDExG7UIERABERABERABERABESgbAjkFXVItD558mR/0ZSQkODDr2688Ubr2LGj3XnnnT75upw6ZbNvymIriDxBQ+R59tlnfVn7e+65x+TmCcjoOdoIBK4dxB1CDHGhderUyZ544gnvKOzZs2e0dblY/ZHAUyxsWkgEREAEREAERCAgkJ2dnVNFi4s7VdEKyOhZBGKHAKIOSZKpcjVv3jzj7/7dd9/NEXXatm2bU/mKZLyIAFWrVo0dABpJLgKByNOoUSP7/PPP7aOPPvLhLg8++KDdcMMNVrduXeMzJWHOhU1vypgAog6/Xbh2Nm3aZJ988ol37lA1C9fOU089FRNhWZFYJfBE0tBrERABERABERCBIhMIqmhhzR8+fLiqaBWZoBYQgegkkFfUee2113wI1tatW33uFRIlU84cpw6iznXXXSdRJzp3Zan0CpGHx6JFi+y5557zIVv/+I//aDgh+E4QlscxQWJPqeDXSgsggAidkZHhRZ2NGzfaggULLCsryws7FIVo2LChTZo0yX74wx/672oBqwntZAk8od116rgIiIAIiIAIRAcBLvZeffVVo4pW+/btJfBEx25RL0SgWAQQdbgI4gJp5cqVvkIeeXXS0tJ8AmXKmQfhVyRK5gJfrr1ioY6ZhRD2yMuDY4cy6unp6TZ//nybMmWKF3oIg0HsiQyBoVoaD24MqHJazHwVynQguHOOHDnit8nro0eP+te4CwnDOnHiRI6og5MMl2Hnzp2tX79+9qMf/ahM+1qWG5PAU5a0tS0REAEREAERiEECVNGaMGGCP1FXFa0Y3MEaUswTCEQdko2uWLHCcOpQXaZmzZpWuXJlQ9S59957vZBDTh0u6CXqxPzXokgD5DvBg4ajZ8aMGbZ+/XofFrN06VL/PrgYZx7EIJwUjRs39g+mqYlAUQiQ+wtBkYaoQwgpjd+sOnXqWHx8vLVp08bGjh1rvXr1MnJERYqMfuYY/EcCTwzuVA1JBERABERABMqSQLdu3YyHmgiIQHgIRIo6y5cv96LOunXrvKjDne7evXt7dw4XSRJ1wrNfo6GnkWLP4sWLbfXq1d5RQQ6UoOGuOHnypHeGkQ9FTQSKSiAuLs6H/7Ec1flwENMQnwkfRaCuKKKOH/iX/8ScwHP85Fk7euKMs5BGDlOvS5NA9WpOJU2oYlWrVC7NzWjdIiACIiACIiACUU4AMaBWzQTfy7Nnz1nm4Yv2+fLo9tGjx8pjs1G7TQSdCxcu2I4dO+zw4cOGqENoJU4dLo4QdbjLTcjV/fffb9WqVfMiD/tUTQSKS2DgwIHGI29LSUmx/fv3+0dqamrej/VeBK5KgCTuXbt29fPxe9WjR4+rLlMRZoiZX+wDGadsf/pJ25py3LbsOW7ZZ6TwlNUXuHH9atahRW3r1Kq2NW1QXUJPWYHXdkRABEQgSghgjSaBYaVKlXziVYVuRMmOKYduJNSobm2SW/otHzyUYa+9NbkcenFxk4cPX8zHgEDRIqlZufWjPDccKerMnj3bV8B6/fXXDadO7dq1ffgCTp3Bgwd7UYcLJt5L1CnPvVYxtp2UlGQ81ERABEqWQEwIPLh23py5x6Z+vs+yTp0tWUJaW6EJXN+7sX3lhiTr2qaO1aoRE1+tQo9dM4qACIhARSaAvZ6yySTKpDxuixYtKjKOCj12hIGG9eu5/BoNbd/+A/aL//d8ufEgD0O9enWtT+/udtvYm8utH2W9YUQdGomSEXVIPkpOHUSdwKlDkmQS3+LUQZDt27evEe6gJgIiIAIiEG4CMXEVPnd5ms1cciDU4k5SowSrWSPOUpwL6YQTrMLY5q1Ms7TMU/bExHY2oEv9MA5BfRYBERABESgGgT179tjkyZO9wEOYhwSeYkCMkUUSEmrY0MED7dEH77XPv1hcrqOqUiXeunTuZBNuHVWu/SiLjSPqEHpFCFYg6hB+FenUGTlypK8g88ADD/iQGQk6ZbFntA0REAERKFsCoRd4cO+8Mn2nHT6WXbbkSnBr1avF2b2jW1mX5Dr2x8nbbPmmDGehvVCCWyi7VW3addS27jlmvTrUtarxyslTduS1JREQAREoPwLdu3e3r33ta3b8+HFTFa3y2w/RsuWGDerbNx5/2D+ipU+x2I+8os5LL73k3TobN2704VeIrTh1KAuMqEPiW1xNaiIgAiIgArFLIPQCz9rtR+306XDn26lbq6pViats1avEWf061VwOmzg7eS6cLh7+VHanZll65mlLalQjdv9yNDIREIEKQ+Do0aN25syZnPEeO3bMzp4N7290zkBK+AUiD+3cuXO2devWEl57bKyO/CZU9SAZJKEyaiJQVAKBqEO5aUpPB6LOvn37/KooZ45Tp0uXLvbggw96p45EnaJS1vwiIAIiEF4CoRd4du4/Ydlnwy3wHDh00v73ox3WNqmW4YA5GfI8QmlO3Dl8/IwEnvD+LqjnIlBhCXDRRLjR6dOnvRsFsWLDhg3+dQBly5Ytud4H0/UsAlcjUL9+fWvdurU1bNjQJ7dlfkSfOnXq+OTUJL2VA+pqFCve54g6O3fuNH6flixZYi+++KKtX7/ef2+g0aZNG+/QIck5og5OHV6riYAIiIAIVDwCoRd4YmWXIfLwUBMBERABESg7Alww4cahVCsXUWvWrLG3337b0tPTfT6LkydPWo2EBKsckXy0RkLNXO/LrrfaUtgJnHVOsNOnTtrF51N+OImJidatWzdr2bKldejQwcaPH28NGjTwITYSe8K+x4vf/0hRZ/Hixd6pE4g6CDqUMx82bJjfwEMPPeSdOhJ1is9bS4qACIhArBCIeYGHvDbkuFErWQJ7DmTZwSOnS3alWpsIiIAIlBGBwKkzf/58IwTro48+8nfG3W1va9i0uVVxror23Xr6qjJNW7Sy6q70c9Catky26i6RrJoIFJXAcScoHjywz46779zB1AN+8TNnsm1varpt3LLV3nv/fX8hP2jQIC/23Hbbbd7xI6GnqKTDNT+JkTMzM32C5MCpg6iDUwcHIQ6vZBd61bNnTy/qPPLII36AAwYMkFMnXLtavRUBERCBUicQ8wLPPz/cxdo0V5x7SX+TfvHKRpsyL6WkV6v1iYAIiECpE9i7d69NnTrVXn75ZZ/DIhB1EHRaJLexYbeMs8R6DaxV+w7OvVOz1PujDVRsAkczM2zz2tW2feM627F5o+3evtVmzJ7jxR4u8HFnIPRwgS+hJ3a+K5GiDtWvgspXgaiDs4twvsCp8/DDD/vBDxw4MHYgaCQiIAIiIAIlTiDmBZ4SJ6YVioAIiIAIhJIArh3EnT//+c/eJXGhcpy16dTVCznXO1Gn54DBzpmTEMqxqdPhJVCnXn3rf/0I/2AUKbt22PxPptrOTRuc2LPN/vv55/339cknn/SVyiTyhHdfF1bUGTFihA/bk6gT3n2tnouACIhAeRGQwFNe5LVdERABERCBMiOQkpLiXTtUnFm7bp3VSqxnN0643cbf97DVrd+gzPqhDYnA1QgktW5j9zz+TT/bPif2vPfSX2zWB+/aH//4R1/N7d5777WkpCRV4boayCj5HFEnIyPDdu/e7SvMzZkzxz/ndeoEog7hV4ReqYmACIiACIhAcQhI4CkONS0jAiIgAiIQGgKIO7/61a/sr3/9q1lcvPUdNtxuuu0O6zFgkBw7odmLFbOjzZ3YM/Hhr1l8fBVbMPNj+93zvzdyszz22GM2ZswYiTxR+rXIK+p88skn9sorr9j58+dt06ZNPqcO4VeIOt27dzecOhJ1onRnqlsiIAIiEDICEnhCtsPUXREQAREQgcITiBR3atRJtNET7/KunUS5dgoPUXOWK4HmrZLt3qf+zjr17G1zPpxs8z9faKmpqUaOllGjRpVr37TxSwQiRZ3Dhw/bwoULvajDdH6HqHDVqlUru+GGG6xHjx4SdS6h0ysREAEREIESJCCBpwRhalUiIAIiIALRQ4DqWL/+9a9znDuPfeufbNCNo1xFLOXZiZ69pJ4UhkCduvVs+K0TrGP3nvbWX/5oXzg3z1tvveUT8DZu3Lgwq9A8pUAA8YZy5nv27LFA1CEMFJdO7dq1vahDcuz777/fubDijfCr/v37l0JPtEoREAEREAERuEhAAo++CSIgAiIgAjFJgLCI119/3cwlU77tvoesz5DrJe7E5J6uOINq5tw8oybe6StuTZs2zZdSf/rppxWqVYZfgUDUIWE7pc1x6kSKOjirKGdOqfsqVapI1CnDfaNNiYAIiIAImEng0bdABERABEQg5gjs27fP/va3v9mx4ydsnEukPOHBr7rS5/VjbpwaUMUj0CK5nd0w5jZ75fnn7OWXX7ZOnTrZhAkTKh6IMhwxuXMQcwKnzoIFCzz7IJ9OixYtvKgzdOhQ/9yvXz85dcpw/2hTIiACIiAClwhI4LnEQq9EQAREQARihMB///d/2/z58y2pbXsbffvdEndiZL9qGGa169a1wS7UMGXndpv+7hvGdx3HCKFAaiVDAEHnyJEjvtpV4NT5/PPPvVNn8+bNPklyIOoMHz48JwQLYUdNBERABERABMqTgASe8qSvbYuACIiACJQ4Adw777//vp06nW29Bw2zmrXrlPg2tEIRKE8CPlRr0l22beM6X1XrueeeMx5qxScQKers2LHD5s2bZydPnswl6rRs2dKuv/566927t0Sd4qPWkiIgAiIgAqVIQAJPKcLVqkVABERABMqewBtvvOETn7br0tVuuf0euXfKfhdoi2VAIKl1Wxt681j72/q1tm3bNjtx4oTVrFmzDLYcO5tA1MnIyLD9+/fb6dOnvaiTlZWVS9TBqROIOpQzl0sndva/RiICIiACsUhAAk8s7lWNSQREQAQqMIG0tDQ7c+aM9Ro4xBJcJRs1EYhFAoRq9RhwnbXv2t2X4SaESGXTr76nI0WdU6dOGcmqEYXPnj1rhF+RJDkpKUmiztVRag4REAEREIEoJCCBJwp3yrV06US2ixs/dc7OnLvgVlPJPUrn+fDpC5ZdqXK+XT121myf+6dW5pl8t1+9SmWrFlfJavAcTx/VREAERKBkCHAn/r333rML7vfpxgm3y71TMli1ligl0CSppQ9DnPLyX+yjjz6SwFPAfgpEHcI3cewQfvXmm296USclJcXi4uKsefPmNmzYMOvTp4/JqVMASE0WAREQARGIegISeKJ+F129g4Gok+ZEldX7TtqSPSctM+vc1Re8hjk27T1r++Jq5LuG4xlm+z/PsMRax/P9vGW9KtakVry1rlfVkutXtYbudWP3kNiTLy5NFAERKAKB1157zYdnXTfiZqtdJ7EIS2pWEQgfgfj4Kj7H1GmXb2r79u0K04rYhXlFnc8++8xeeeUV27p1qw9lQ9QhMfU999zj3yPq9O3bN2INeikCIiACIiAC4SMggSd8+yxXj9NPnLW5W47bvO0n7MPVh21PRnauz0v1TeVq+a4+7egF27T+WL6f5Z3YJLGKje2WaPf1q2f9WyVYnWr5u4LyLqf3IlBRCRw9etQP/dixY1bbhR/VqaMEwpHfBfKQcGFXIyHBKrsLODURiGUCPkyr/8CcMK2FCxfazTffHMtDvuLYAlEHJ9+hQ4csUtSpVauW/82k4lj//v0l6lyRpD4UAREQAREIKwEJPGHdc67few6fsb8tybC/fn7I9n4p7FSuFK6Qp/SjZ+3FhYdsdcpJe+r6hjahWx1rUFNfyxB/LdX1UiBw4cIF27Jli787v2LFCr+F1atX+9LI3HFu3LixDy8ohU2HbpXwQeTp1KuvVU9QwtnQ7UB1uMgECNPqM+R6m/ra32zmzJkVTuCJFHUIv/r0009znDoI4E2aNLEePXrYkCFDfPWrAQMG+DCsIoPWAiIgAiIgAiIQAgK6kg7BTsqviwedc+dnnxywt5dn2tGT590sl+faqfRlDp4LBeTiKdnPL+9lIDXRs/xa5Ocrd2fZ//1wnxvLOfvqoAZWW06e/JBpWgUkgGOHHBF///d/7xOARiKYPHmyfztp0iR75JFH/IUMeSQqciP8gsSpbTt1seo18g8jrch8NPbYI0CYVjX3XSdJMN/9WG/nzp2z48eP+0TqgVMnEHWoJhaIOjh1RowYYXfffbdVr15dok6sfzE0PhEQAREQAU9AAk8IvwhZLpHy35Zk2owNx+z4qfNW2SslgVxy+fPFKZdPvzj0izLPxYTMTMk9X7X4OIt3CZFPnz1vZ3MSN+eeL1ji4vou/7ewn+PmeW1ZprVyeXlu7VJHOXkuR6kpFYzA4cOH7Z133rHXX3/9MnEnEgVCDw+Enp/85CcVNmyLsDUu/rjYrVRZ4Z6R3xG9jl0ChGm1SG5riMG7d++OyYFGijo7duwwKobx+0hOnUDUadasmXfpEH4lUScmvwYalAiIgAiIQCEISOApBKRom+UL53Z5a2mmpWSWfr6dvq1rWrtG1Wz/4WzbeOCkpbpEzheFntKhssqN7YPVR6xr0+rWyW1XTQQqKgHCDqZOneoFm7wMElx+GVpWVlaujxB5Bg0a5JOGVgpZuGaugRTzDWFrMGnRuo1Vq6bfj2Ji1GIiEBUEEHUyMzMtPT3dO3bIL8T7SFGnadOmXtQh7Oqhhx6SSycq9pw6IQIiIAIiUJ4EJPCUJ/1ibvujtUdtx8Fs59ypZC41h3Edl/c5n4itIldNr1qlkn19cH27v38939P/mJVuv5ubboeOu/Lnl0eEFXM0ly+2KfW0bXfjk8BzORtNqRgEyLmzd+9e++tf/5prwDVr1rT27dtbx44d/fTNmzcbZX+5AAraX/7yF7v++ustKSkpmFRhngnbQBirKQdPhdnnGuhFAnFx8VbViZpnzpzxImcgAoeNT6SogyMPkRsX4+nTp3OcOpGiDpWvevfuHbZhqr8iIAIiIAIiUGoEJPCUGtrSWXHWmfO2M/20C8066zZAeJVTWi5c/uwVGDf9Wp6b1a1miQmXviLZbtvn3MWTF3e+3G6u9eeEd13b2HHxrNyTZTd2qKUwrWtDqaVDSoCLnN///ve5wrJIpDxy5Ej7z//8z1yjQtD5xS9+kePm2bRpk/3ud7+zZ5991ipXsDCldevW2cmTJ61L2/bOwVM9Fye9EYFYJlDTVdRr0ryFkWR448aNoSr3HYg6qampdvDgQZszZ469++67lp2d7YXuKlWqGKLO4MGDbeDAgSZRJ5a/yRqbCIiACIjAtRK4dPV+rWvS8mVCYHN6th12iYgvhV8EGW5K/jn77AXb7sSkdfur+Dw8mw6csiNZbJuhFrS9ksGw1Tl4droQNLl4Soan1hIuArhQli5dmtNphBqSKD/zzDM504IXjz32mC1atMimTZsWTMq1bM5EvRABERCBKCGQV9SZPXu2vfrqq7Z9+3ar4Rx4iDrJycl21113Wf369X34lZw6UbLz1A0REAEREIGoJiCBJ6p3z+WdO+lcNGfPX6yLdfmnJTsl1eXd+Zf3Uqxp3aqW6EqX8z6QdUp2S5evba8rAX/A5fuRwHM5G02JfQKEJhB+FTQE3aFDhwZvcz3z2ZNPPmnTp093oZrETprh4mEdiYmJuebVGxEQgdgkEBcX50O0qKSFiy0aWyDqpKWl+bDSSFGnVq1axoPKVwg5iDo4dXr16hWNQ1GfREAEREAERCBqCUjgidpdk3/HcLYccWXRLzl48p+vJKemHjljPGhltV13zVpmYlJJstK6ROBaCeDeWbFiRa7V8HfXp0+fXNMi3/Tt29ff9Y5Murx8+XIb4UoEl9XfbGR/9FoERKBsCdSsXceatmxlaTu32datWwsUhMu2V+ar2gWJkskVNmvWrBynDuXMGzZsaD169PDhV/yOEYIlUaes95K2JwIiIAIiEEsEJPCEdm/ml+UYf020TA8tWHVcBEJJoHPnzoaooyYCIiAC5UUAl86JEyd8/hwEHdw6gahDefNA1MGpc/PNN9ukSZOM5PESdcprj2m7IiACIiACsUZAAk8I96h3t/CPb9H6fG1gc4Z3bavR0iIgAiIgAiIgAqVIIFLUIYfOkiVLjITJ5NQJRB2SxA8aNMiXNEfUCcKxSrFbWrUIiIAIiIAIVEgCEnhCttsDOSdk3S5GdyvOSIsBR4uIgAiIgAiIQLkRCPLpULWLECySwh84cMBee+0127lzp9V2Vb0Qdah8NWTIEHvwwQd9fp1y67A2LAIiIAIiIAIVhIAEnjDu6EqVXX6ayheT1ERLRNaV+lEMxpJ3igFNi4SKALl2du3a5fscmRSV6bt3775sLOvXr79sWuSEyPw7TGcdLJM3B0+DBg38hVfe6ZHr0uvyIXDehbecP0+lwspW2SXNzW8fBfN8mU/bHweosla58uXz81264B5uRe5zd9yQNbJ8dmyMbDUQdRB0eHzwwQc2ZcoUH5IViDqNGjWy6667zucAkqgTIztewxABERABEQgVAQk8odpdFztbCTGFXDv++eLLOjVcBY348MkilGLPynaVwc4Fg7k4Rv0rArFMgAvvVatW2T//8z+7C/rzuSpm5TduKuOMHTs2v48KnPZv//Zv+X52++232ze/+U1r166dLvjzJVQ+E8+edcnsU/a4x15LrFffmrduYzUSaubqDOJP+oF9tn/PLjuVleU+c8JNXCWr5spKJ9ZrYPUbNbaatepYXHy8F4oyXP4T1lnTJbNt2qKVVa+RkGt9ZfUmqO4mgamsiJfcdhB1Dh8+bIFTJxB1EKVTUlKsatWqFinqPPTQQz5pcsn1QGsSAREQAREQAREoCgEJPEWhFQXzIuFwEzbyRLlVvSo2tmeitaxfNQp6WLQupLhy6OtSTtr6fafs4PGzOQv7cea80wsRiB0CXOzi3Jk4cWK5DOrdd9+1devW2euvv+5LEZdLJ7TRywgcO5xp099+w6a/87r1vG6w3fP4N61Npy4WF3fpMH3uzFlbu2SRvfqH39ju7VtzraNlm3Z244RJdv2YcZbUqo1z7lywNUvdvL//tfUaONjueOwJV2Wpda5jR64VlMIbBKmTLuHuiWNHrVr16lYrsW6u8ZTCJrXKEiCAoIyoc+jQIZ9LZ/r06fbhhx/68uuBqJOcnGx33HGHNWvWzIdfUQlLTQREQAREQAREoPwJXDpzLP++qAeFIYDy4dqXT9618+8Tm9vYbrUvfhDSf//9kzT777kH7aRz86iJQCwTyM7OthdffLFch7hp0yabN2+ejR8/3l1wx5VrX7Rx8y6uA3v32Oa1q+zY0SO2fcM62711szVvlWwJtfL/bcflU8c9cOuccxfkWceP2YevvuicPSft1nvutwaNmpY72qxjx+yLOTNs9eKF1nvwMBt842irUbNWufdLHbicAKLOkSNH7ODBgzmiDiIwYnS1atW8UwdRBwdg8+bNJepcjlBTREAEREAERCAqCEjgiYrdUJROOGnnooXHL9SuSQ2rWzP8F2i9WyVY52bVbcXuk35c3qHEONVEQARKhQAhYrfeeqsEnlKhW7SVZp86ZducqEN4Frl0UnbttE2rV1nXPv19mFYllz8nb7tpwu12+6Nft/oNG9vhjEO2YuF8e//lv9qaJQutS+++VrtO3byLFOo9IYPnXLgYz4hH5O4579xA5pxn5AXi/cV2wQjfOetcRTh1mB4fX+XL3EFOtDp33k440Wn7xvW2b/dO69a3v505c8aqOiEhMr8QjrZz584a7iRaXJV47/LhGHAx39B57zrKuwyfEdgb57Yb8LlwwfXdbTeyr36a2yYCBgtUjo9z/bw0LtZDyz02P8mPi3FwzI2LI4dRMPaLn4f930DUCZw606ZN884+RB2SJNetW9eHW3Xr1s2SkpKM8Kvu3buHfdjqvwiIgAiIgAjENAEJPCHbvUgeF2WPC+65krVpWMUSXf6dWGhet3ID4aRdTQREQAQqBoELlnkw3Qk6K7xLos+gIbZr2xYXgrXFUvfttQZNmlqVqtUKQFHJ4t1njZolWb9hw23Hpg228ov5lu6WO3XKieU5mZgLWDxiMoJO1vHjX+YB2mOITokuITdhVSfddMSe5q1aW2L9Bl78IaSMXEBp+/bZyawTLg9QdWvWorUlJbd1Lp2alpF2wDavWe3m2e0EqAzbvnmTcyO5XEAtW7n8Qs6ZVLO2nck+bYcPHbT9u3fZQTc/rWnzFtbChZuRN+iIE65YvqoL70pyy9SsXcfPc+LYES+CIc7gcsLJRDvmwooQkxCN6Gu16jUsIz3N95Nn5mfepOQ21tgxyz59ys2/y4lU2dasZbLVczmMAgELketg6gFL35/it0u/aySE232EoEPuHFyEiDpUvQpEHZKyR4o6t9xyi912222WmJgoUcd/u/SPCIiACIiACISDgASecOynXL1ECKnMP64FokiuGUL4JhhH3ucQDkVdFgEREIFCE+Cie8+OrbZl3Vpr1b6DjRw/yZYt+NTWL19iOzdvtDYdu1xB4Lm0GRwviDDcAjjnxJqiNFwuiEzzP5lqH73+khM29vttEr5Xy4kqmU6Ead2+o9331N9ZjwGDnWiSatPees0+m/ahDylDFCHpc9MWLW3Cg4/YgOtH2tqlS7yjaOuGtT6EDLFq5ntv2w0uR9DtjzxuFxqetw2rltus99+2tcuWOLHltHf4NHKC1pi77rNho2+1vTu32+t//K1LDl3Db7tjj95+WDscF3ILnXZixb1PPGN9htzgj4Vb1q2xt174vdVy4tBdX3vKCU9ZNvWNl10uosVelELgwS3Us/91NunRx/18H772ondPfeWhx2z42Ak5IWTHXLjSp1M/sAUzptmgG2+2sXc/EEqBh+/XKSfWnXZ8t27daitXrvRhV4RfBaIOlfUGDhxoN9xwgw/bxLkjp05R/oI0rwiIgAiIgAhEDwEJPNGzL9STL71JAiECIiACFYVA1rHjtmXtah8O1K5Ld2vbuYvPp7Nq0UKXk2e19Ro01AkRiT6EKD8mlEHPdqFP+1xY155tW53IE2d13QV7VVw/KOaFaIRSLXK5cj5+8xXvYJlw/yPeRbPbOYkWfzrbh1rlrMaJQced+LF/725r4/ra+7ohvjrXWpfQefFnc2zJp3OsZXJ754hpZUNHjfHjSnPiTvd+A619t56W3KGTVXE5XdY5Aeutv/zB9xv3UedefYw8RIvnzrL5Mz52rqTm1sy5cHDi7N2x3TuF2nbq6tZ3wTl+dltGaqqddg6gA64fp09mWSUXQpXm3DaMuK1LTl2nbn3vzsHENOLWCda+a3c76lxHX8yeYduc04mQtpHjv2Ide/Sy3ds22w4XStZ70DDvPsLNdMg5igibQzRr7/YLQldYGqIODh1y6qSnp3tRhzLmb7zxxmWizvDhw30+HcKw1ERABERABERABMJPQAJPyPYhJ68XH+5fXsSQKHLRveMH5UZ18Tlku0fdFQEREIFCE8A5k3Zgr0+uXK9BQyfudHXiTCNfPatlmzY+dCnFiRtNk1pa9YTcJdMRK/bu3ObCn1xSXJe7Z+Gs6YZbpseAQdayXQcf1lSYjiBmHHBhUEvnzfVixoT7H3XCzFgXmpXoKmAdt1ZuXW+98IdLq3I/zQm1atlXHnjUGjdP8iFblHhv4UKzjh45bEddOBbul/43jLQmrt/H3bRNa1bakJtvceu91Ttk0g+kOFfNF/6zW+64x0ZPutsaNmlmx12C6Xr1G9qcDyfbhpXLfDhXq3btncCzzfVxl3fknHHhRXtdBbEM5zhiuym7djgX0WGft2efe+3srS4EixCvRCdStXXVwx53Y+joHElVvVCFWDbl1b95kejc2XNOcOrsSsw3tJ0uqXVqym5r1LSZdxKx3iOZGc5B1dmS3HriXH6hMDTCrzZs2ODdOh9//LEXefbs2ePDr+rXr++dOhJ1wrAn1UcREAEREAERKB4BCTzF4xYFS7nbkhdiTAZxQ1ITAREQgYpCALFi56aNzkGy1TtMajgR54SrPBVfpaoTR1q5nDqbbMv6Nd5lUs2FKUW2me+/YzxoiBdU2yKR8c1fucNate3gkg8XLjcbCZLT9+/z+X6SWrdxLpsellD7Yq6Z6gkJluwEjoaIHi7Eh0ai4SYuFKuuE6TIn7PWhT8dcrlqDqTsca6XVLvgkhJnO2cN4lV+DcfREecu2bV1i8vBc8atr5Lt3LLJu3QIn8o6ccwLOWkpKT5nTrNWyY5HFUtxuXUQswgFI3QLYYplD+zd6/PsVHHMyKdTrZrLBdSypcubU9taO/Emy5VoJ1cQIWIZaWk+6fMRJ0IhpNGXpkktrF2XbrZq0ee+T+269LBTzhFEeBzVyTp272n13LxsKwyNBMnPPfecz+dE9StEnQEDBtjIkSO9U6dr165hGIb6KAIiIAIiIAIiUEwCEniKCa7cFnPnmN7pEpKTzcJy8qfOX46NZWJseIXFoPlEQAQqEIEjmYds46oVLnQow7ZtXGeTX/wfXzWL6lSEDR1yuW62rl/rQ4/qNWyUiwwJh8k1g7BB0uLrht9o/a4f4V0zVLMKBJlcC+XzBhfMMeeyYX4SECOMXKoWVcnn4qntEi0TlkUjROpIRrot+WyWfTL5Ldu1ZbOvTEX1L8QXRCKf3LmABM8X7IIXUMi5g2jzzl//7AQcTkX8UcBvg38QmhBVmriky4RbpR/Y751GJ44f9YLP+Hsf9EmScR8RnobIRWLklm3bWz1XWQxxZpcTjuZ+mUcn81C6T7pMHp4s50xq7ULF2GbtevWsnQvf2ujyAVHxq5cLOTvhRCFEp4sCVyeXQDq3uJbTySh8UdVxaNeunfXu3duSk5Ml6kThPlKXREAEREAERKA0CUjgKU26pbBuToGDB6vPfUpcChssw1XiRwrGEznGMuyCNiUCoSBQ3VUVopE8VS2cBHCrpOzc4cOqEE1w7mxwYk/wG0glKISaPS4cCTcJYUZUhQra9QnxkiwAAEAASURBVKPHumTE9/uKUIg9CD3Fas45SV/inEuGdeR2qlwsYY7TCKcPLcvl6/l85jT70CVjJoSpl6v6hShSzX0nF876xI5mZl6xG+g+CEhsh4TKvV2OIUQhBKKc5sKsGrscPIn1XC4h50IhTGrNki+c2LXGh3FVdvl2OvXs4wSlE7bPCTzkMKLSFsxatmnv3Uz7nXhEH8m506BxExvoBLD2Xbu5BNKp9unHH+RsivW3bNvW6rt5yPWDyEM1MRI4d+nTz4Whtczdt5wlo/NF69at7Z/+6Z/skUceic4OqlciIAIiIAIiIAKlSkACT6niLZ2VeyHEnRz7xnNwRVA6myuztfqhfDmuS1JPmW1eGxKBqCeAsEPFm759+/q+kmtjrwtRkdAT9bvusg7idtm6bo2vXjXQ5asZfONo56Cph/rh56WE+PLP57lKTlNcufFV1nPgYCd6tMhZDyFZDZ1AggiSW5TJmaVQLyq7Slk1atbyIU8kFiYPTqOmzV3S4jgn/Jxzgs0h18c0L3IgoOA6ItdPglvmzseesCEuXw992ePKuq9z1bACp0+w8Yt9c74dlB3XqACZULOm1XTLUAJ+4IibbMANN/pEzXzOfGdd0mgaoVk4fSi9vvKLBT7h8yknvHRw7h6mkSOIY8XS+Z/6Mu1NW7TyeXsYE+XVEcdIonz/U3/vnnv7nD1LPpuTSyirXCnOGjRq6gSjXj5UbYlLKk2IGf0mMTO5iNREQAREQAREQAREICwEJPCEZU9d1k9OliWDXIZFE0QgRglwwdmvXz/79re/7XNqMEwuhr/61a/a7NmzY3TUl4aV5QQRBC5Kcoe9sd8QUzavXWV1XPjTdU7kQOhAKAkajhneb1q9ygsV+5wjxeeNCWYooed4VyWKxMJ16zfw20FMSnSvq9dI8Dl1Vixc4JIPp/iqWGwS4enkiROuqldli3fhQLw/mHrcizvkC4o8Kl2a54xPwHzMiUfkziEBMgml9+3e4YUbKmY1b5ns9+1xFx6VmrLHVw4j3KpK1Sp+2wkudGzl4oUuZCvJ58whZI2cRSRSXrtssZ09eMblIBrg8gU19eIMwlBl5xSi+hWCD5XC0vel2DpX7YvKW3VdMueg1XBJoylHv3jubJs1ZbIToGrbiHETfCUxXFRqIiACIiACIiACIhAWAhJ4wrKngn5i2PGPS7adS6+CmcL3zBj8IxhM8By+oajHIlAqBBB4RowYkSPusBGmPf300xVC4Jk1a5a1atXKmjRpYo0aNXJVkyJCekqFeOmtFIcK+WG2uXAgEiIjUhDiFNkIWWrWsrUrH97blR6fbds3uHnbkTfmohMmct5reR1sp3u/ATb9nTd9WBMVpKq7cDAEqC0uBxDJlClXzvcNMQRBhipXM1wOnt0uWfLB1P22yokvaU5AIZwqaFVdwmPy4Rw5fNgWfOIqOmUcsqRWbaxz777OMdPbVdJaZDPfe8eXI+/WZ4ALx6pq210Jc/Lk3HLHvY5Le+8cquvEHKpp4RCi2ha8argE0PGuJHxSchsnfDVwrp+zPv8O+XoQZXBDVXPzbFi53AtR9Rs1cSFeq12unZXepRT0kee4uHiXOLqVF502rl7hkyp3dC6h+q7vjFlNBERABERABERABMJCQAJPWPbUl/3Me6qZ933IhpO7uxGDiXiZex69E4EKSgDnyhNPPHHZ6KmQUxHayy+/bFOmTLFx48Z5F1NblzclrELPaVelKX3/fu/Q6dyrj69SVdmJDHlbohMruvcd6PLCbLBMJ7JkuQTD5OGhqlXtxHpXFrmcMIFo1MAJG5QGj3NOnYIaFbGG3TLOCTAZtmLhfJv1wWSvuDdo1Ni6uP5td5W++P7hhCGcadDIUT7hMWIIyYj5jHWQC4h8NyQnruSm1XDb7+LEHBIYIwAh5gxzIV3d+19nHbr3tOG3TvAlyX2Vq5TJXkyhn32H3GCEW+EuotXG8dOpm3fuNHf5epq1aO3DtxCnWriS6G07dXXhV2edCNTBOY9q+M/adOxqw24eY5+895YvAc+ACA1r4QSh0y53FWXp4507iDsLiDg4qVq37+jD4BhDcqfOfhwFMdN0ERABERABERABEYhGAgWf8UVjb9UnT4CTUZei8uKJ6cUpMUAGY/+X43KjkcATA7tUQyhxAhnuApyyx5GNaRWpvf3228bjzjvvtO985zuG0NOwYcMrix1RBojwp5G3TbJhY8ZZTZfLhhw4+TlFCIHqf/0In+zXxeO58uW1fYnyLr37+dClmrUT812O4cY5d0tXlyS4hctVg9BD2FV+22BehJLW7TvZY9/5Zxu/P8UnT0agQeigXPkrzz/nK0khLlWtWs269Rvow6bS3LzZp0/5kCbmRZwhbw/5eaq4+RB+KEH+9A9/7KtgkaCZUDAcQLh7Rk280wa48eEAOulC8EjyXN+JSg0aN81VuYoqViRJ7t5/oBdvyN9Doua4+Mo+t87T/9LW+5oQmCgxT0t0fycjJ9xu3dwyGelpfuwwSHSVwggTo2/MH1QMI5H00cOZTiCqbp1c3h7K1MNFTQREQAREQAREQATCREACT5j2VtBX79B3/1wIZBA/Ifg0pM8lM4YzLvSBXB08q4lANBLIdheSJ12i2KI2Lkp/8Ytf2DPPPJPjbMC18Jvf/Kaoq/Lzk5j50KFDOesq1koKsRB/j+ScCbZX3L9N1gODoAVCzx133GHf/e53vdCDuBCGhnCTt+x5fv1GkKnu8szwiGy1nLBztYY4Qc4eHldrZ8647+SJY86hE+/Dolq3j7Pzbp8dP3rYli/4zAsfLdu282FP5NVBFGnULMk/rrZu5q1Vp65/5J0XMaahS+jM40qNdSCC8cjbEK/yhrcF8yCkUX2MR36N7yW5jvjekPeHcC43yZVo7+4cUldnnN86NU0EREAEREAEREAEypOABJ7ypF+MbSPpuHP+L/8JngOhpxgrjJJFuJDxo8gZykVHT1G7t3XrVh/GsWXLlqIuqvlFoEwIIFLwPS1qY7nXXnvNFi1a5CtpsTwCzbZt24q6Kj//ggULLC3torOhWCso5EKrVq1yVYmybcmSJfbjH//YOUCKV8573rx5dtolzs3b3nnnHeOB0FPP5V0Ji8iTdxzl+Z4cO59Ofd/OOcGwfZcelujCl06fOuly46y1uR++70uV4wYirClwvJRnf0tq26dcqBzunoz0VB+ahsjTtU9/S3YJlwMnUEltS+sRAREQAREQAREQgbIgIIGnLCiX6DYuKiCBDhI8l+gmynFlwXgqVcLRU3RXT2pqqk84y0WwmghEIwHEzBrkCblCTpSC+o3jAEGnuKJO5HoRmdasWePdNZHTS/o1ogxOI7aX4sJ9itsQiWAHg/zajBkzfNjNsWPH8vtY065AIM65fU4cPWpzp37gKmf9xglpp3yiY5wxTZq3sNG332W9Bw/LVeXrCqsLzUfHXEjWtDdftenvvuFFyB4unGvgiBt9+Xm+a2oiIAIiIAIiIAIiEDYCEnjCtsdcf73b5cuTT05BY+U0NPe43KiKcYLdpk0be/jhh23kyJEh3LPqckUggMPkiy++MJwt5dn69+9vgwYN8qJIafZj7ty5NmfOHF/i/ZZbbrFq1aoVa3MzZ840XEd5w9vq1HGJfV0Vpbvvvtv/Nr7wwgvFWn9FXqhO3Xp204Q7fJLi9S5MadOalT4PDwmWh4+dYF379jfmiSX3Dvsblw7JoUkE3bF7L1eu/mZr1b6Dzx8U1u8Dvy+IoWoiIAIiIAIiIAIVk4AEnhDu94uCzgUn7CCChHAABXSZoeQMJ+dFATMXMLl169bGQ00EopUAjpZ///d/L3eBp1+/fva9733PJbZ1lYRKsZFzZ/78+dazZ0/7h3/4B0ssZm6T5cuX5+plbZdwGGHnnnvu8eMg0fKvfvWrXPPoTeEIkBOoRdv2/jHyttsLt1AMzEVC5zu++qR/xMBw/BAI21y6dKkhptZ0VcMIieRvRU0EREAEREAERKBiEJDAE7L97HUP909gHy+mDhJ1o/ZmHQbz5YAiXkZdX9UhERCB8iPAxSqVxO69994cYaf8elOcLV9wuW7OuSTG513lr/hrclBdcHmZCH8jbI0KVnGujLlaxSZw5MgR+9Of/mTTp0+30aNHW4cOHfzfCmIPYq7Enor9/dDoRUAEREAEYp+ABJ7Y38caoQiIgAiEngDOH9x5EydO9MIO7p1obIgtp12FsjPZp73wghiP+EIJ8Pgq8b4SWMruHXbUlbdv3jrZhwgVpxz3uXNn7eCBA7Zr62YnGJ2xtp27+mpUEnmi8VtRdn0KRBxCGV9//XVfve53v/udF3vat29v9913n3f2BPOVXc+0JREQAREQAREQgbIgIIGnLCiX4DZwtrgitf6B2yVw8pTgJsppVRfHxNgu/s9I1URABETgIoHHH3/cnnvuOUtISIhqJFSfWjpvjq1duthOZp2wqi5RcaPGzSy5U2dr16WbJbhS3+uWLbbNa1fZTbfd6XLb1HcunoKdN7h0SHqMcFTV5S/C9ePe2IE9u+39l16wZa6MeXLHzjYx8etWv1ETuXjy+XZQgS47h2H1mGaUnJxsTz75pLVr184WLlxoy5Yts02bNuUSe8aMGeM/l9iTz5dFk0RABERABEQg5AQk8IR2B7pKMhcQQfKvKBO+YTGOLx9+XOEbgXosAiJQegQGDBhQeisvwTWfP3/Oiy+L5s7yAg+OGvIQ8Tzu7gdsxG0TXXhW4X+3Txw/aovdunDs9Bo01Bo1be5DvHZs2uDWn2WPfOsffWnvWnUSvVOoBIcSE6tCGDt6OMNWLpxvp52rpe/QG7zTKXZujly+m8hHhdONB40Kdn/+8599bh7EnldffdWJhqftt7/9rY0dO9batm3rnT0kQEdAVRjX5Uw1RQREQAREQATCQkACT1j2VNBPDC7+gbhDq3zxKfT/XhxYcNLNczDC0A9NAxABEahwBPoNvd5G3X6PNWvZ2nZt2WwfvPIX27F5g3VNGegEmrM5PBAgeI9LBwGC95Qnr1ajhte8Mw8etBVfzLc6ifWsTaeuhpBDCFj6gX3ewVmtmpu3eg1f+Qm3T5ZzDZ06mYXJx6+nurtgj3euHySlM6660tkzFysskbsH0YkHDhd+c6nAxKOKS8xbtWo1LyrRJwQp3yfXr4LcRoFL5pQTnRgPiZtruG1XcevhtxyRi+1fcP+dd59Xcq6l6gk1LD4+d5JvxpDtwttOue2yHvpSHRZuLWddKBoOJqbRX96zTsbAdmB3xgkXp5yLivXgnqpcubIdSk21tc41dd6NrX33nlbbVQSr6rgBCe70mc+qOIGDPlNdy6/f95lQO2a9mO8o3oXbsSzbwq1FH3FWsb+8uypnz0bPC0Kz/uM//sN3aNu2bTliz8aNG+2NN97weZx+9rOfWd++fX1y5vvvv99Xu5PYEz37UD0RAREQAREQgcISkMBTWFJRNB8ny4H4Efk6irpY5K4E47g0rsLf4S7yxrSACJQjAS4ci1sqvCS7HQ19KMnxROO63K62mrVqW4fuPaznwME+NCv7NOLDpd+38+fP2t4dO23xp7Ody2SeFye69x1o14+9zSfFXThzuq34fIETHmrYsaNHrJsrWZ51/LgtnDXD0vbttRPHjllmepr1GjzUjrvPP3fzL/1srhNtzlmPAYNcmfPx1qZzN+/u2bBy2cU+OAHl4IH9Xnxq1LSZHUpL9QeVI64C08HUAz6fT4cePS3DTcf5knX8hPUbNtwG3TjKu18QTSIb4s7B1P1uu3Ns4exPfL9atu1gw2+9zXoOGGwJjsGWdattzeKF3tWEaNWgcRMbPm6CMV+wPtaTeTDNjXeeX8/hg+muL91s6OixXkTBtdSsVbJjMMCLPHu2b7UNK5Zao2YtnIupnx07ctjWLFlkyz//1Is2PQcO8vNvWrXSTZvvRRoEpr5Dh1v3fgMty7FbPHem29YMO+JyIrGfbhgzzq1/oFVzQs/ubZtthRv/yRPHvZC0f/cua9isufXof517f9pWfrHA0lL2Wufe/dxy461Fm3ZW2YlN0dwI3aKKHw2x580337Q9e/bY+++/b1SqW7x4sSH2UGWPSlwPPPCA/73i96I6wqN7VhMBERABERABEYheAjEv8Bw8km01qp+K3j1QxJ4dPX7Wzp13C3HlQAuUkYvvwv0vYwrGFVMDC/duUe9LlgBug8GDB9tLL71kx92Fenm0WrVq2ZAhQ7zzoTy2XxG2iRMmGzeJc9McO5JpqXv3+It/XCWVKn/5++1AZJ/Otg0rl9v8GR87l05di6tcxaa9g6vi3P9n70wArZq+P74095rnWSUaJDSXiqJkSBE/khAhoTIkIv6m0iyUJikKmZIhIlIozbM0oHnWrDn135/1Oq/7bvdN9YZ77lub2x3OPues/Tn3nnf296xBaje6Sj1Doj16olQsyh6VQ71H8GrBkyS7y+nDNtf9tUqmTfxSfneCR3EngmQ4J4OKPVs3rpcb775Pznf5f3Y4EebnSV/L1k0b9T39/tm2xX02UbY6oeJcN/k/uH+/zHZCDSFhBYsUk3PPK6d9pnz9ueRx1ctqNcznxKYcMYcQT5ad27fKD59/Kj9/+5VkyxGlwtGG1X/JJ28PdQLUXql1xVUq3Mz48XtZ6+wse0EFKVy8uHoORYfmRm9uz84dMnXiF/Ljl5+pp1DBIkV1vU3r1kiefAVkzcoVTqjKLJUuqaYM/nUVo1avWO68b467fZaSX77/RhbPmiFFS5RyXj9RTrjaJvkKFHIMo9QDCa+eHDlzq3fSto0b5dfvJzpGkySn416s1LmyfPFC2eREnOZtnKBVr6Hs3bXL5VOaKssWzJOibvt46sx27yeMeUftKV3ufOeZdET3m91Vqcrnyq7nctvyS0Ps6datm5rbpUsX9ebZsGGDTJgwIZbYg2dP7dq1pV69eir8cP4wsccvR9nsNAJGwAgYgfRGIOIFnideXxBRx/RAtijZlyOPnEOiTSeCnJom+H+Y0VoVd7bduCJpYP4/NDaCZCTgCTz33XefijzkwkjNxh34u+++W0Umz3MiNfefXvaFYIJ3yF+/L5XVq5bLolm/yZXNbpQiJUrK5g3rYjBkcoLfhc4r55LadV34VV7Zs2unfDV2lIb/5MyVR+o3vV77k4y5yU23SNGS52qI1gknavy9Yplcfl1zKVnmPPneiUIIEI++1EcqV6+pAsnSubOcGDFSli9aoKIHZ1dEk6tb3ipX3nCThj5Ndx4/hV1en6tb/k8aXX+jCjKfvjNMBZ/rb7tDqtW/XDb8/bd8MXa088zZqGFkgQLPMRfGtGrpEtm49m9pdvud0sB5suTKm1c2r18rE94bqctIAo24ks/lhqnV8EppenMrfX2OE6G8kC8qga37c4VWBcOOq1rcrBXGjrhwtCMuDGuVS0odV8Mr58C/+2TPjn+kpBOkrr/tTilRuqx2R4AinA2RjTCsZq3vdomt88nMH7+T3c6TqHWHR+Wyxlc7dtmdgLRcJn40xnkazdJwOLabO18+ua7VHdL8jraS2YlL3znO82f8rB47Vza/SUWgSZ+MUwEPG/wk8ATyJA9PoNjz4YcfykYngiH2LFiwQObMmSN9+vSR4k6Ya9OmTYzYQ/l1wtYQfawZASNgBIyAETACaU8g4gWetEcc24JsWTK6C9qkqRf/uQv5o8dc3gJ3oRot6iCARG8jaVuKbUu4vWMs3rjUtkgaXLjBNnvSlEAWl0OkU6dOelecsIjUbIRecDfexJ2Upb5x7WpXKWuxy+eSWYqVLCW3tL3fhThdLTly53beNadObhmcaJAlW1ZZ4gSgjWvXyAEXDkSFLbxQjh6LzlmTkKWEbG1xolG+goWdp8m5J3PUZHDhSaX1s4NuOZ5Ezu1FK23xefYcuZwd4jyGMkr+woXV6ydHLmebu3lQyIUh4QGDmJQ1Ww71EqKsNpWoEHQCG6FK27ds1D7nlrtAcrINt008Z84tV97lH1oh+3bvdp6nx1WwKV6qjOYRypgxdu4d8u4gfJFLh5LviDBsJ5vzFiI3Dp47cTVudSCAFXeizqyffpCJH45xQtJVcv6FF2m+neBbIeQVQqzKmCmjs/F89fBhXwWKFnUCXCl3HFbLgb173e5OqGBT0m03r/MgQvApVKyYCmqEY0XlyO0Er8MqlP27d7d6bCEoxfo7FpfRYfx52bJl5ZlnnlELn3zySU3KjNhDGNchJ7iRnNkTe5o3d2F2zrupbdu2mqDZxJ4wPrBmmhEwAkbACKQLAr4XeDJncoW1T10rh/VBy5TxHGlSu5gUL0jCyMS3dVsPyKKVO2XrrkOxPHZ8MuzED9T1ZEzRMlb06yStbJ2NgI8I4MlDmBQPa5FHgBwv9a++Ti6oXEVyOS8QkhbjsXLEJeY91U5o2BSCxG8/TZbS51+goULZXNLkROdycYLCcRdORbJfWuDfBULBEDFIEIwHDQszZcnsPC6ikwhHn21P6L4yZDjpFer6IP4xUT/HfUd1m85utoV4wX+BjW3jfeN2oMKGVwSRsfIdZx/kA+I5o9sm+2dZcCPM6qgLVzvhvGyilweOxJl+8m20DdFr67icTTTCrBo0babC1OTPP3FeNr84z5ymzuvpfyoURa/h/oWXs4cQNP1b4zbs7QlhBl68/8/1YdOwQPRyANy6zjb3nnHo8XEdWYfP2FYwm5h9+vhFmTJlYsSeHj16yLRp02Ty5Mnq2YPYM3bs2JiKXC1atJCSJUvKPffcY2KPj4+5mW4EjIARMAL+JuB7geei83ILXjF7JPZdxXA8LGWK55LrLismlcpw59S7pEycpV9P3yxjJ60W5wGuF5TuktO94P+kbSdxe0v9XoxDL5TduBRNEvmkvsW2RyNgBIxA3ASoxlSgSBH1oEEQCNWOO1Fky/p1zvtmrdx230NSt8k1mrz3y7GjXejPjphVODeeOClKkNsHkSOmuWVUcKIy1B63zi6XmDhfoSJOgMggu3fsdN4zeyS/8+yJrhp18u9FMv7ZwEMplwstO7DvX5fbZ4NL6FzJ5ejJ6f5W7dXcPNhB3psjhw5Hn9vj+Jul23GhXXgakTfo4P4qmpwZMYbky1S2gsG/LpEyVa8Qd3a65NIklqYhcpHM+QoXskYSZnL5rFq2RFYuWSTlXP4h7XOSYbZMUepFtGHN37Jt8yYp4bxxMrvt73M5fXa7RNOIN+Q2QnCydopAXnd8EHF4vPLKKyr2/Pbbbxq+tWzZMg05JZwODx9KtCP23HvvvSr2IPZZGNcplvbKCBgBI2AEjEBKEQh91ZlSe0uB7VY4N5fkyZlZtu86fDKEKQV2kkybLJo/m6xav0+yZ80oubInDf2Ktftk737u0Lo7r2qPu8APuMZPJhPTcDPeeKKfz4mosaUhVtu1ETACYUuAcznCBmG4a/9a6Tx98jqxZ70mQi51Xjm1m5Lg5OLZ4ZIh/7FwgYoOeQsWinX6x3ulwiVVZcpX4zVZ8x6XHBhhZbGrWsUfCkQXcsOkhG5OSBU5dmZM+V5muLw2iCP5nH3r/lwpf/3xu1R0dhHWRAJlvSuhozr9H/IHES5FFS62w7gLFi3mBJ09Lg9OfidiZdMwryUur1BuJzRQGp5+m9et05xDhFyR9whvGtYlwTWeUJqM2j2zffqQj6j0BeW1utaq35e4amTfadhZjly55M9lS7UP1beo8vWv42gtNIFAsYceVOIaPHjwaWLPm2++KTfddJOUKFFCPXu8alwm9oTmap8aASNgBIyAEThbAklTGc52bym0fvMGJeWjH9bKxu0H3Z2+8FUGfl20TXicTTsnW5bo1d2VOpOD6Av2ZLwdezbGncW66r1zakDewM5ii7aqETACRiD1CXAuw6MGL5aMmgw/tg0s1+pXbnmmzFmlcAlXdtsJCt+P/1i+d6FFCCT0IZcNYVJ4vyCSfPz2ECdofO8qYrXTBMkIFlEujw6Jf9lejfoN1cuFxMZsBy+f8ypUcgmH20iV6rW1ihT9opxnCt4q7INGfpsolyA3s4ZORXtSYj8JiTVMy3VDLGK9bM4rKTh3E7lrylxQUW5v31H3O+bNAVrOPX+BgtLohhtdKfQWKviwHypNIb6c3HUsMIRlkbPn1nYdZPKET+T9t17XsufFXb6gZq3vkhoNGkmdRlfLl++PkhF9e+q6sKISGOMix8/cX6epwMXYEYEoXX5+5Ytd9a8CGiq3zJWJ/3DIG9L4xpulkUt43fSWVjJx3FgZ9NKzeoOoqEuA3dgld77sqmui+TsmePJQxSzaZo7dSV6OIQ1BiXxF8CGfUXpt5OHxyq9TiQsvHhIz49lDGBdeWCwnB1jjxo2lXbt2Lmwxi1bjMrEnvX5rbNxGwAgYASOQEgTOcRdC4auIJGHEK9btk/7vL5fNOw5qQuIIGdZpBPZniZLd2fLI0ZMTh8YX5pRHG+WXCwrFnYDytI2E4QdT/zwog6bulCUbokva1yqbXR5pmF9ql84WhtaaSUbACCSWAKEcvXv31so7TPDy5MmT2FWT3G/AgAE6iax2+ZVy72NPu+TBRZK8jbNdgZAivE7ISxPlRBrEB09MYduEGe0lzMgl+kWEQBw45sJa8C7Zs3uXS4Lsyno7jxMSwEQ5rxKqOyG2/LN1kwtJcuFXTjghKTIhT0fdetlz5tD+CCT83TvokjRv27xRl+V3njR58hdULyFy8Ox3Mb5UpWId9osb0IH9+7QqF+ILnzER378P+/8Tki5jP4mUCblCUMnhwqAyxZHwmCTMO7ZtVWEGj5gChYvqNtn3wQMkej6o79lXdJ6d0LSjt7NFt0XFLhIfYwt5hna7EDSqYiGs5HXCDcJRFseLkDjCu3Zs3eISHx9yOXnyKCuSNMMfVnhB7d75j5Y4L+Qqh+E9RcLlf7Zt1uphufPk0+8MYyYEjGUkvY4WdXKpsfA97PIokaQaXuTyoXoWoXOMOUuWtPmbRQWw0a/3kW1r/pJnn31WK+WFppu6nyL2jB49WrZu3SqffPKJ7N+/X1lxTBB7mjRpIlQUROzhgYcPz9aMgBEwAkbACEQCgWPu2qVr167yxhtvCIULXn311RQfVkR48ECJUK3h3WoKQs/iP/fIoSMkdYy8tmTHCfl1wwnZeShal4v244mMcXLBFzMR4nVkDMtGYQSMQDoigEcLIUVxtXPc8jyuIpPTEmJaZicokAemRMwnsV+Qw6dIiXP14S1B+AlunD/JQ4NHTXBDEMmZ24lrPLzmTrI5XPgXD69ldN46ufMW8N7qM2FYVMVKqCGMFCtVWh+Bfdl3lPNE4pGYFr2dMm47ZWJ1R5Ap6Cp88QjVCGXjEarhOURVMB6BDW+lEqXPC/xIXyNAIQ7xCGzBvBC7qOBlLTQB8vB0795dF1KG/Z133pFt27bJxx9/rOXX582bF+PZQ3W/Bg0aSK1atYTy6yb2hGZqnxoBI2AEjIARiI9AxAg83iARenhEavt88b+y2OUF2HWI5I+RJYEwGpdKVP+NrJFF6rfRxmUEjIARMAJGIHEEihcvHkvsefvtt2W780r76KOPZP78+TJ37lzp16+fFCxYUPP11K9fXxB9sjsRjiTNiD7WjIARMAJGwAgYgfgJRJzAE/9w/b9URRD3j+fp4m7YRkRjHPpAtIr+PyLGZYMwAkbACBgBI2AEYhMo5hJvP/fcc/rhM888IyNGjJB//vlHxZ7DLkE2OXz69u0rBQoUkNtuu00Ku7DEDh06qNhDHigTe2LztHdGwAgYASNgBDwCJvB4JOw5PAhEiGAVHjDNCiNgBIyAETAC4U2gaNGiMWJPjx49ZOrUqfLDDz/IuHHjBLFn1KhRctDlQyJ/QatWraSQy1P10EMPmdgT3ofVrDMCRsAIGIE0ImACTxqBP5vdkp1GM9Sc9Ho5m22F07qagwf3HdeiX4eTdWaLETACRsAIGAEjkJIEqKjVrFkzfZCgPVDsIQE4CZuPuITZlF+//fbb1cPnkUceUbGH6wbz7EnJo2PbNgJGwAgYAT8QMIHHD0cpwMZTDi4uV82JU+8Cuvj3pRZ0i87Bo6l4/DsSs9wIGAEjYASMQKoRoIIalbwIX6K8fSS0QLFn4MCBmpz5tddek9mzZ8uSJUvUs8cTe1q3bi358+eXjh07mtgTCQffxmAEjIARMAJnTCAyrgLOePg+XDGD891Rzx314Yn25PHhMEKZzN23DO6hEk8G1yPC9KtQY7bPjIARSD4CmV2VJc4jlNM+YSpx8oG1LYU9gX17dsvG1X9LqWJFpFKlSmFv75kYSB4er7wsyZkHDBggs2bNihF7ELnw7LnjjjtixB7OCZRdj4qKOpNd2jpGwAgYASNgBHxHwAQe3x0y5I9T2oeKPb4bw+kGB2o5ga9P72mfGAEjYARCE6hWrZpO5Fav+EMOu5wd1oxAeiFw4sRxOX482oMHUSPSG3l4PLGH5MyDBw+W3bt3y5gxY9Szh3CuPn36SI0aNaRRo0bSuXNn9WzyBJ/0wCjSvwM2PiNgBIyAEQhNwASe0FzC9lPNvuNUHe5Sx7SAlzGf+fCFilUnx+X5J/lwGGayETACRsAIGIFUJbBvzx7ZuHaN1KpWVapUqZKq+07rnVFW/f/+7//UjO7du2sFrj2Ox3vvvScLFiyQefPmaUUuxJ46depIgwYNpF69ehrKhXePiT1pfQRt/0bACBgBI5CcBEzgSU6aqbQtT8/xnlNptym+G8ZzMkDLorNSnLbtwAhEHgFyjyB+H3e5SAjXsGYEjED6IkBZ9UCxh5AtT+yZP3++ij39+/eXXLlyyQMPPKBiT/369SVbtmx67rBQrvT1fbHRGgEjYAQikYAJPD48qji5uFQ8ruHJ48MBxGFytMDj/uX/k484utrHRsAIGIHTCNSuXVtIzEoC1sOHDp223D4wApFIQMOznKiJuJkxY8ZIHOIZjYmky57Y89xzz8nrr78u+/btk9GuEtfRo0c1rAuxh3NG27ZtJXfu3PLEE0/EiD3Zs2c/o/3aSkbACBgBI2AE0pKACTxpSf8M9o0IcqpF4B3q2AM8NVR7ZQSMgBFIBAEmuEx0j5Fo2XnxxApnTcT61sUI+I3ALpeD5s8/ftfEwuXLl/eb+alib758+eSFF17QffXo0UOmTJmij1GjRqnY8/bbb8shJwojAt1zzz3q4dOlSxcTe1Ll6NhOjIARMAJGIDkJUKvIms8IaB4e9d6JfuUz80OaqyNxkzLvP7x4rBkBI2AEkkqgcuXKmltjxeIFcvDA/qSubv2NgO8I7Nm5Q9as/EMIT6pQoYLv7E9tgwnHuu6666Rfv36yceNGGTdunDz88MMqkJGTB7Gnb9++cu6558rTTz8tL730kuzatUsOHDggBy15e2ofLtufETACRsAIJJGACTxJBBY+3Z33jjrwRIoXT+zxnBMpwwqfL4xZYgTSBYGsWbNKhgwZ5OiRI3LiuJ1I0sVBT+eD3LNrp6z7a5WGZyFQWEs8gUCxZ8cOJ5StWSOPPfaY5uaB5YgRI1QIKlmypIo9L774ook9icdrPY2AETACRiANCJjAkwbQz26X+LiQo+YczcOTQb1ezm6LYbE243AD0/FEDzAszDIjjIAR8BcBEqcWLlxYJn3ygezYtsWSLfvr8Jm1SSRAQvFd/2yXLRvWy8UXXyytWrVK4haseyAB8vD07NlTw7fWrl17mtgzcOBAKVGiRCyxh7w+5tkTSNFeGwEjYASMQFoSsBw8aUn/jPYdfUc6kiOYVN9xbCJ5jGd06G0lI2AEEiRAouU8efLIwoULZdGsGVKwaDGJypEzwfWsgxHwI4E1f66Qn77+XMqVK6dhR34cQ7jaTKUtxB7av//+q2FbCDnDhw/XB5+TpLlmzZrq8dOtWzehkl/ggz7WjIARMAJGwAikJgETeFKTdjLsC88d78HmIkUEUVHn5Nh0XJEysGQ45rYJI2AEkkagatWqsmrVKjnmKuVYmFbS2FlvfxHYezI8K1f2bGLhWSl37Ki0RXgWjcpcffr00aTMw4YNE8qv8xgwYIDUqFFD6tatK5dffrk0bNhQkzR7gk/KWWdbNgJGwAgYASNwioCFaJ1i4ZtXnvbhPfvG8AQMZTznuMRCkTauBIZti42AEUhmAvfff7+GaX37yfsWppXMbG1z4UPg+PHjLjzrH9m8fp2FZ6XiYcmRI4eKPb1795ZNmzZJ165dpXPnzhIVFSULFizQ8us33XSTFClSRJ555hmZOHGi7NmzRwUhKnVZMwJGwAgYASOQkgTMgycl6abAtlUEcf9kUBXE5eFx+4gEQcQbl2YYcm8iYUwpcPhtk0bACCSCQJ06dbQizrx582TuL1OlQOEikiNX7kSsaV2MgD8IIO78+fti+fHLz7RyFoKCtdQngKhDlS0aZdhfffVVOeISvA8dOlSOHTsmb731lrz22muSOXNm6dChg3pZde/eXUgGTyPJszUjYASMgBEwAslJwDx4kpNmqm/LKsSkOnLboREwAr4g0LZtWylatKh89+mHsn3zJku27IujZkYmhsCJEyfkrz9+l/fe7C9zfv7JvHcSAy0V+mTPnl3Fnl69esk/zrPq008/lUcffVRI3IzAg+hDafaCBQtqkmaEnr1796pnz+HDh1PBQtuFETACRsAIpAcCJvD47CgHeroE5uLx2TBOM1fH5fx2dEzuOWKqg502UvvACBiB1CDw8MMPy7XXXivbNm2QccPflK0b15vIkxrgbR8pTmDn9m0y7ZsvVdypXLmytGjRIsX3aTtIGgHy7lxzzTWC2EP59fHjx2tFLhI3IwQNGTJEqMhVoEABFXueffZZoRoXQo+JPUljbb2NgBEwAkYgNgETeGLz8Mc7z3HHe/aH1YmwkgGdHFTEjS0Rw7cuRsAIJCsBcvGULFlSpnw1QUYP7C3bNm80kSdZCdvGUpsAoVl/L18m0yd/I5UqVdIcL7fffntqm2H7SwIBxJ6mTZuq2IPHDoJPly5dtPJWoNiTL18+eeqpp4RqXCb2JAGwdTUCRsAIGIFYBEzgiYUj/N+4QlPR3i0nn8Pf4sRbSP4dPHfIL8Q4eVgzAkbACJwpAXLxPPLII1KiRAkVeX6dNFGoOkSIizUj4CcCfGepCrdq6SL5Yuw7cnj/v9KyZUtp1aqVn4ZhtjoChGv16NFDfvrpJ9m5c+dpYs+gQYMkb9686tmD2EOJdsqzk9vHmhEwAkbACBiBhAhYkuWECIXlcq/SlPcclkYm2SjTc5KMzFYwAkYgAQKEatEIlRjW+yVZ5RLT3tX5SSlSvKRkzJjRlOQE+NnitCeA1w55pH76+nP57rNxsmXDerniiivklltuSXvjzIKzIoB3D2IP7b///tMS7BzvN954Q6tx8TlJmmvVqiWXXXaZvPLKK5IhQwY9d3H+0nMYnawZASNgBIyAEThJwAQeH34VYuXeQRWJBGXk5DgYG8171jf2jxEwAkbgLAgEijxTvp4gf69YJs3vuEcaNL1ecufLb+ebs2Brq6YcAbx2mPT/+fsSGTtogMz55SctvU3o4YMPPqjJlVNu77bl1CaAWIOAQ+P5+eefV2/D119/XcuvU4KdvD01a9aUevXqqcjXuHFjrcxlYk9qHy3bnxEwAkYgfAmYwBO+xyZOywI1HS0rHmdPfy2IHhehE5E0Kn8dA7PWCEQqAU/koYrNxjWr5Y0XusmSubPkro5PSOESJfWsk9HdTTdxOVK/Af4YF6LOiRPH5cTxE7J9y2aZOnGCTHKV4DavXycXXXSR5mexsCx/HMuzsRIvnUCxh4pbNASehQsX6oPXtM6dO0vDhg2lSZMmGv5lYo9isX+MgBEwAumWgAk8Pjv0KoK4f6IdXag6FUEOPG4wLgOPG5ALPYuQcfns62XmGoGIJoDIw+Ott97SkK2fnDfPlK8+lytvuFHyFyws17e6U4qULGViT0R/C8JvcLFFnU2yesUfsnbVSpn02Yeyad1aIYwHT42+ffua1074Hb4UtwjR2Qvj4hmxh+8Mnj3Hjh3T8xmvaZ06dYoRe7JkyaKCNTl/rBkBI2AEjED6IWACj4+P9TlexSkfjyG26eQUsuSnsZnYOyNgBJKbwEMPPaSbZMK8detW+cUlXyYU5tNRw+XKZk7sKRQt9hQqViJm1xnI/o70o+ozr60ZgSQSUO+c6L9x0aJO9Oud27fKmpUrZM2q5fLdp+Nk0/q1MTlWSBBOSBbhOtaMAAQ8zx7EnsmTJ8u0adPUs8cTe8jfQ+vYsaOKgy+88IKWZuczE3ugYM0IGAEjENkETODx5fHNcNLTRacbbgSRMNnwvHeiC7tFwoh8+dUyo41AOiGAyOMJPXj0fPPNNzJr1iz55buJenf8s9Ej9NnDUeb88hKVM4eUKV/JPefyPrZnI5BoArt3bJdNa1dr/92uehLeOTREQ++Bt07x4sWlRYsWmmenSpUq2sf+MQKhCBCWxQPR54cffpCpU6eq2HPUVVwbMmSIkLCZJM3BYg/fN75r1oyAETACRiDyCNjZ3WfHFOEjRvzQm3/8E30X0GdDicPcSBpLHEO0j42AEQgrAoFiz9ChQ2XdunXy0UcfyaZNm2Ls3LRujb5euXRJzGfh8IIJHN4gNPJ2qIdRGhgW6JHiiRVpYEbY75JjRINRtmzZ9HXBggXlvPPO0xw7JE82UUex2D9JJEAYH49AsWf69Okye/bsWGLPI488op48//d//ydRUVH6XTSxJ4mwrbsRMAJGIIwJmMATxgcntGl4unBxiNATfdcvQPIJvYoPPvXGlIGBuXZylD6w3Ew0AkYgkggwwab17Nkz1rCYJO3evVur2ezZsyfWsrR8s2zZMmESlz9/fmnQoIEULlw4TczZ6TxS1q9fr14BpUqVkty5c6eJHeG806JFi0rFihXVRLx0SJpszQikBAFP7PG2jZjz888/q5cinj00PHsQe8jVQwhg9uzZVSQ2scejZs9GwAgYAX8SMIHHb8fNJSCmRcsgke3tEj1Gvx0gs9cIGIFIJFCrVi0d1tVXXx1Wwxs7dqysWLFCLrjgAg3DuOSSS8LKPjPGCBiBtCfw4osvxhhBTp7Dhw/LoEGD1LOHBQMGDJDq1atL/fr1hb549ngegZ7XWcwG7IURMAJGwAiENQETeML68IQyLtprx3PDRwSJFCFEx+J58ETSwEIdRvvMCBgBI2AEjIARMAKpTACBh/bqq6+qmHPo0CEZPHhwTPl1KnIh9tSrVy+mIhfePVx3mtij6OwfI2AEjEBYEzCBJ6wPT2jjIlX7iB4XXkm8smYEjIARMAJGwAgYASOQUgQI3aKFEnsWLFggXkWuDh06aDJnPBjJHWViT0odEduuETACRuDsCURn+zv77dgWUomAiiDuH83B4/6JFCnk1HhieyilElbbjREwAkbACJwFAZIsU2qepM/WjIAR8B8BxB6Enr1792pOnq5du2ouLXLyDBs2TFq2bCk5c+bUvD1ffPGF/Pvvv/qb53dvzQgYASNgBMKHgHnwhM+xSLQlnqhzjque5b1O9Mph3dEbD148kZ1fKKwPgxlnBIyAEUgiARI9T5o0ScqVKyfXXnutkFDYmhFIiEBg9bWE+iZ9OSFF/rhKSlkO0RX2ksKPpMs0BJ+ffvpJHwMHDpQDBw7I8OHDhWqDNJLS58iRQ5555hnJmzevfmZhXIrB/kmAAN/5wBb8PnCZvTYCCRGISV2Cx4A1MYHHZ18CvrZ8d10xXI1k8r7QPhtGSHMZi45Hh8ZIrRkBI2AEjIAfCOzYsUO+++47neSVL1/eBB4/HLQ0tnHvvn3y8/RZsnjp8hSxJF/ePPJguzbR1xUpsofk2SgeMNOmz5SZsxckzwZDbKVLp/auWlbmEEsS/qhRo0bC46WXXool9uzfv189e9hC//79pX379pIrVy7p1q2biT0JY013PTzvTk/IWblypaxevTqGw99//y1r166NeW8vjEBiCZAjrE6dOloJ8PLLL49ZzZsjx8wvY5ZE/gsTePx4jD3RW5+9N34cSJDN3nhOmLgTRMbeGgEjYATCmkDdunWF5KyZM2fWil5hbawZl+YENm/ZJn0GDpEJX05MAQHmhOAckDt3LucLfEI6tLszBfaRPAiPHftPeg0YLCNHj00RG73J9LFjx+Tpxx8+Y5HHG20oseeXX37R8usjRoxw3E9Iv379YsSep59+WvLly6erm2ePRzF9PPNd8B6IOXw/ZsyYIevXr5dNmzYpBG8Cnj6I2ChTg4B3zsuaNauKPjVr1lTBmXORJ/Skh++dCTyp8W1Lxn2c+nLiwIMQEhliyOY9/8mO/cejf3xuVHhVR8bIkvHg26aMgBEwAmFKoHDhwsLDmhFIDIHt/+xQcScqKrtUcB5fydkoAb7sj+Uul8w+GTbiXY347nBfeIo8x08clznzFuq1zyUXV0l2kWfR4iWaF2vUex84xOc4keehsxZ5vGPliT3e+x49esgPP/wgM2fO1DAuPkfseeCBBzSXjyf2eNex3nr2HFkEmGAvX75c1qxZI5MnT5Zx48bJ5s2bY77bHH/EvlKlSkmJEiViBl+6dGn9LOYDe2EEEkmASoBz584VnhcuXKhrHT16VH7++Wd98J3s3bu3Cs958uTRkNJIPw+ZwJPIL0+4dYsWP07I9FWH5MoK2aR0/pOH0o+qiLvTtnW3E3j2/WeiTrh90cweI2AEjIARMALJSGCfS867YNES3WLhQgWle9dOUu3SKsmyh4MHD8nXkyZL12df1u0RBjb0bSfyuBaOIs+J4ydk8ZKlkjFjRqlbu7p0fbSD2ppc/1SsWl8OHz6imxv13vvu+YQ85USerFmyJNcuYrbz7LPPCg8auXt2796tQg+eGzTEnksvvVTq168vJHTOnz9/rEm/drJ/fEvAE3bI0fTRRx/FiDpMpMuUKSN33XWXXHbZZerhed555/l2nGa4PwgcPHhQvv/+ew0r/fXXX4WqgISSemIPSeQ5X0Wq0GMCjz++p7GsdOfKmD+KLHhl4h4pmX+/VCmZWXJn919htIXrjsiKzUdjjSly6oPFOnT2xggYASMQsQS4cKJxwWTNCIQDAb6L+5zIM+ykyPPQ/XeFg1mpbsPFVS6Spb8vk2hPHkmWcK34BkEeHhp3zQPFnkWLFukd9kGDBsWIPXgCNW3aVKKiouzcER/UMF7Guf+rr76Sl19+WT0pAkWdtm3bStmyZcPYejMtEgmQl6dFixb6YHwIzi+88IIg9syfP18rBfbp00cQerp37x5x5x4TeCLkW71h5zHhYc0IGAEjYASMQGoT4KJp9OjRmmT13nvvlSpVkscjI7XHYfuLHAJFCheSZ7t2lqEjx2rI1tC3R+vg0qPIU6PaJVKnVnV55933T4o8yRuuFd+3JlDs6dWrl+zcuVPzsRBKwQOxh3bfffdpBT7EHipzWfMHgT/++EM9tTyvHQQ7JtKByW79MRKzMpIJUOWPSoC0PXv2aDL4IUOGqAjNZ8899xxPEdP85+4RMejPbCCe907Ms9uMupcFP5/08uE+qm+XnxkiW8sIGAEjYARSmQBVtHCBXrJkiV48pfLubXdGICSBIkUKyztD+suFlSo6T55/ZeiI0fLWiPdC9o30D6mk1f6+ti4ReiYn8ryvyZ0PH4kO30qtsZOHh7vmu3btEsSeJ598Mqbi1ttvvy0333yz5MyZU8We8ePHy78unM9a+BL48ssv5c4779SJcxYX9vf888/LO++8Y+JO+B4ys8wRIA8PnoUdOnQQqgG+8sor0qRJE5kyZUrE8DGBx4eH8hwXQ02L9GcfHhoz2QgYASOQLgl4VbR69uwplStXTpcMbNDhSQBPnpFvnRR5nGCAJ0/6FXkekAfaeSLPB9J7wFuS2iKP9y156qmn9O45Hj3Tpk1TccCruDVy5Ei55ZZbNDkznj303bp1q7eqPYcBAcSdl156SebNmydXXnmlvPfee+q5U6ZMmTCwzkwwAvETQOQZMGCAfPzxx3LRRRdpgnjOOT/99FP8K/pkqQk8PjlQnpmeR04GJ+/gmZPBPUI++3w5HkrWjIARMAJGwB8EqKBF8tRatWrFlEX2h+VmZXogULRIgMiDJ086Fnme6Hi/E3nudp48mWX0mA+dyDMkJhFzan8X1MPcXfA1aNBAxYF//vlHpk6dGiP2kNsFj5C+fftK8eLFpV27dir2bNmyJbVNtf0FEAgUd6iShvcVx5Djac0I+IVAtmzZVEjGcwdvHjwGScQcCc0EHj8exWgHHi39qf9E4ntvTH48PmazETACRsAIGAEjEFYEEHksXCs6bP+JjnjyOJEnUyYn8jhPntfekkOuvHxaNU/ooXw2uVtecDlctm/fHuPZQ16XrFmzyqhRo1Tsobw2ub7w7KEEt7XUI0DOHUQ3z3OnTZs2mkTZxJ3UOwa2p+QjwPcWbx680S6++GIVmEkW7vdmAo/vjmC0xw4i+SnvHf5gR9p77gLYnQDffT3NYCNgBIyAETACYUrgtHCtdJqTh0kNnjz3x4g8H0qf14akqcjjfWUCxR68QsjrMnnyZK2GRv4exB7uvJPUHc+eUqVKqdhDfp9NmzZ5m7HnFCIwadIkmT17toZlIcThuWnNCPidQK5cueTxxx/XnDyvvfaa70O1rIqWD7+Rp6SPEzESSLQUcvbvS+TLJBcWzyJ5o+LX/uatOSyrt7vS5if5Jdf+A7fnvfbhITKTjYARMALpisD06dN1wsVF0j333GNVtNLV0ffXYD1Pnns7PBFdXcuJPDgNP5zOSqh7Ig9Hb8Q772m4Fq+7PtrBCShZeZnmzRN7PEOeeOIJnYQRukVFHEK13n33XT330Kdfv3567qlXr55WycHTx1ryEfjiiy/k/fffV28qQrMQdzhG1oyA3wngIXjDDTdoqBbVtW6//XY9v/h1XCbw+PHIuXOp/tFztgdGMnGKPZv3nRvnkisrZksUkbvqRMlbP+2T734/FNP/bPcfuH6xPBmlUK74RaaYHdsLI2AEjIARSFMC5M6gihalSClBas0IpDWBrdu2S+u2D5KR8DRTuFY6fvy4fr7P5V0Y5cqH16haRWrXqHpa30j4gDCsd8eOC0HCcXBiicfiXZeThxZOIk8g/0DB57HHHtNFVMN544031HtnzJgxsmjRIlm8eLEMGzZMk6ci9uDdU7JkycBN2eszIPDjjz/K/Pnz1YsK8czEnTOAaKuELQFuUBGqNWvWLK0I2qxZM/n666/D1t74DLMZdHx0wnBZmQIZJU82UixHN569B594r5O6vLjz3MmXI4ML+yLUK3EPbx1vn2ez/1D2ep+xXWtGwAgYASMQvgTq1KmjFSmIXbcqWuF7nCLdsuzZszmh5pKYYf7333E59t9/pz3+c5/hBeI1Sqi//W60uOF9FgnPF7vqMOS1OX78hDDmUCw8cYfxIvYgBKVlPp7EcmdcPDK5PEKPPvqoVuTasGGDevEg/hQoUEDFHu7Gly1bVijjjXfhJ598YiJ0YiEH9COx8owZM6R06dJy//33C8KZNSMQaQQQefAUPHr0qMyZM8e3wzMPHp8durIFM2n4VLRHJBIIFyhn/7x19zHZeyD6blZikWzd85/scetEK/jJY4c3nuJ5M0nh3BkTa4r1MwJGwAgYgTQkUKRIEaGSFs3u6qbhgbBdS5nSpWTx7Ckyd/6iBGns+3e/DBs5Vlb9+VeMF0uCK/mow4ejB8uvv81O1NiGOg7z5i9UIchHQ1RTEXpoGTNmVLEH8Q7PnkGDBsnGjRs1rIhwLkp54+VD/9atW8v1118vTZo0Uc9D3YD9EycBhEAe5cqVU28oO8/HicoW+JgAoVpNmzaVatWqyV9//aW5eMj75bdmAo/PjhhSTt1yWWX9rmOyeTd3oJB3TpyUeQKeXUf9PAnL35z4LFglAABAAElEQVSyT2auPiLnFoj/a8F+l28+Kjv2/6f0kmv/3nYKu9CsAjnNucxnX00z1wgYgXROwC740/kXIEyGz/cwV86c0rDBZQla9M+OnTL8nfcT7OfXDggel9erkyjz5y/6XRYuWuJLgSdwgIFiT6dOnXQRYs/gwYNl/fr18uGHH2rlLYQe8snQv1WrVlqGvX379lKmTJnAzdnrkwQoJb1w4ULNfWTeO/a1iGQCnhdP27Zt1SPQBJ5IPtphNDbCtPJmyyhbznHeM9iFmHPSgea05yQsZxNznMAzd80R1oqzISrRlx0TzpXk/UevEr0em3FNx3Hy+dJzs0jFopn1c/vHCBgBI2AEjIARMAJJJZAYwTExfZK633Drn9gxZjgn8m6sIXDReO7YsaO+7tWrl8ycOVMQLMjTQ5n1sWPHqudh//79VewhvwxJhMuWLavrpPd/vPAsJrp4NiT2O5Xeudn4/UuAc4afw7Qi72zu3+9Soi0v4zxsmlTOJiQiVqklWm3xVJeg5xg1Jujz6FWD10e8Ie/gqQfJ9wLfuzXYn/fgBa9pIZ9DLI/ufbK/t1L0h5VLZJYrymd14Vn21fQw2bMRMAJGINwJkJvhwQcflC5dusjSpUvD3VyzzwgYgXRGgAkbj8yZM2v+mO7du8uaNWvk559/1lLsXvl1vHoov16xYkW566675JlnnpG///47ndGKPVwvPAtvJxN3YrOxd5FHgHxdhG4iZh4+fNiXJdPjj8WJvGMWESMi/07DClll467/5Ic/Tsi/h7zQrGjNBG8YZJPo5+j6Eafee597z+GznNCsJhdmk8rFM8d49ETEAbNBGAEjYAQinMD27dtl3rx5VkUrwo+zDc8IRAKBwDAuwo3q1q2r+WUQMoYPHy5fffWVVtL54IMPVNAYMGCA3HrrrZp75r777pPzzjsvEjAkegzkIsHTiWT6Vno+0diso48J5HRhvo8//rgmZu/Xr59WjvPTcEzg8dPRCrCV0KjWtaOkRP6MMn7eAc3Hw2JEHZrfni8qkUX+VyN7tLjjGR89FPvXCBgBI2AEwpxA7dq19a43d764823NCBgBI+AHAog9nuCDvQ8//LB6IyL2jBgxQlavXq2VtwLFnkqVKslll10mVOs6//zz/TDMs7IRT6etW7cK46aKljUjkB4IUKGPhO1UIPRbM4HHb0cswN6MLoqpoQtnOjdfRvnu98OaO2ef8+bxUyMk67Lzs8jFJTJJUVc1C+8ka0bACEQmgcCyxJE5wvQ7KquilX6PvY387AnYufHsGSbXFrxQLrbXoUMHneD17NkzRuz59NNPtfw6oajvvPOOih54AEWy2MP3kwfhWRailVzfNNtOOBPgZlXDhg3l2LFjMn/+/HA2NaRtJvCExOKfD/HkKVcok7S/IpPc3yBK1u78T/YePO6qbB13z+Er9hTJk0EuKu5KobuwrAzuDwbjMHHHP987s9QIGAEjEEjALvwDadjr5CSw/8BBmTFzjixa8ocUKJBP7mlza7ybP3jokEx3/des3Sj33d0q3r5+W0jJ85lzFmgc/hOdHkhwsj1j1lyZOXuBdOxwj2R2d6OtJY0Ad/Bp5O3xxJ4ePXrIyJEjtYTy+PHjVexZsmSJjBo1So/HTTfdJDfccINcddVVUrBgwaTtMAx7//HHH1p9DM8dhHxrRiC9EPA8+/Dm81uzs73fjlgIexFGMuH54lSS853Yg6xzaamTOYxD9A+Hj06aa6JOOBwMs8EIGAEjYASMQBgSWLd+o3Ts8pwsX7FCuKN6VaMr4rUScefb76ZIt//roR4HYz74SPr3ekFqVL0k3vX8sLDf68NkxKgxmisGex/veH+CAs+DnbrKwYOH5G233l1tWskTHR9wYoVd+p/J8Q4Ue0goj0cLnj148fz555/y+eefy9q1a2XcuHEa0oUnkCf2NG7c2Ldij3nvnMm3xdYxAmlLwEoVpS3/ZN87Yg/eMIRvZQrjB/aZx06yH37boBEwAkYgTQj89ttv8tBDD8lTTz0lv//+e5rYYDuNLAL7DxyQGbPmyNLfl0mhggVkQO8XpdUtzWMGuWPnbnnu5b5y1XX/k/kLl+jn2bNlk6uvukJ6vNBNyrlEuFu3/SOjx34Ss45fXzDJHjbyXTly5Ijc2fo2eWvgq7HEnQGDRkiVmg1l2q+/qfDgjfO13i9J2ztvl6MuzGDk6LEu3OCot8iez4IAYg9ePdmzZ5f27dtL7969ZdmyZTJo0CAtx168eHEnrB2Ujz/+WNq2bat5a+644w6hctfy5cvPYs+pv+qqVatk48aNmli6WLFiqW+A7dEIpBEBfudVq1bVculTp05NIyvObLcm8JwZN1vLCBgBI2AEjIAROEmAKlpz5syRBQsWyO7du42LEThrAgdcaNaCRcvUc6fqpZfIlZfXl1rVL43Z7sFDB2X+oqWy033fePZazpw55JomjeSu1rdoidulv//hLfLtMyFn5IKgPf34Q3LlFQ1iCTxHjx6TA85TZ8as+c7D51R4fsPLL5Oujz6o4Vms/9vseb5MGBrOB45JIN5lUVFRMWIPIvcvv/yi5dcRRQ44sRKxp0+fPlp6uXXr1ir2EP4U7o3wFARGwlUs/064Hy2zLzkJ8H3HE4/mt0TL5qeZnN8E25YRMAJGwAgYgXRIoGbNmnoX26popcODn0JDdnPKmHAkJpcZcf0NaCWKFZUxI16XZctXSu0a1QKWOC9md1GeKVP0hfkJH+ZPCBwMck3g5IIQq+CJ9mOP3CfVL60sDS6rE4tTRri5h9f++89/uSQ82/3w7IVxcR6kylatWrXkiSeekHnz5gkeANOnT9fy65988okKJq+99pq0aNFCypUrJ7fffrtceOGFfhim2WgEjECYEzCBJ8wPkJlnBIyAETACRiDcCRQtWlQKFy6sZnqJCcPdZrPP3wQQOfLlyyt1a9WIJWr4e1RnZn0WFy7U6PJ6Kmyd2RZsreQmwHkQoccTe2rXrq1CHWLdmDFj5IsvvjhN7GnevLmKPa1atZLKlSsnt0m2PSNgBJJAAMGWm1d45M2YMUMTpydh9TTtekrWT1MzbOdGwAgYASNgBIyAXwl4rsx4TgR7F/h1TGZ32hEg/87CxdFhV9mzZ5MLK5UPaQwFG4I9e4I77t67V95+d1zwx2H1Pt7fjHNlmjVnYYL2eqEE8XWcPW+R/Odzj6b4xheuyzg2CD3k7MmZM6fcd999mpR5/fr18uabb2qFLkRyPHsI40IMqlatmuY1oxy7NSNgBFKfgHddw54DvShT35Kk79E8eJLOzNYwAkbACBgBI2AEjIARSCECGzZsks5PPqe5Y2pUrypVLw4dukKFqOUrV0nVS6rEsiSbS7bcsEE9ufmmG2T8hK9l6NujdbnfyqaT++SOdh1l3vwFUuWii+ThB+46IwG1TetbZfbcBTLmg49lictJNHrYa5Ita9ZYzOxN6hEgQTMPWrt27XTy+Morr8j7778v5OWZOHGill9H3HnvvfekfPnyUqdOHRV8LnLfA2tGwAgYgfgImAdPfHRsmREwAkbACBgBI5AggZkzZ2r1mG7dumk1mQRXsA5GIB4CWZz4UKpkSfl3/375e/Vql0cmOp9O4Co7d+2WXgMGS5duL7kky9FVtLzlePb8998xWbHyL51In1e2jFZC8Zb76blShQtc9ayjssxN/BctDV2BaeDgkXJpncby8/SZsapoeeMkhItS84cPH5YKF5zvqq3a5b/HJq2fEXoQJPHsueeee6RXr14yf/58eeutt9Szh4pcixYtkpEjR0rdunUlb968QgjXhx9+KFu2bElr823/RsAIhCEBO8OH4UExk4yAETACRsAI+InAtm3bNJ8EyUR37drlJ9PN1jAkULpUCXmj70tyvks+u337Dhn36ZenWblr9x758OPxcvDQISfmxE4efOjQYa0YteyP5VK4UEH1WGl3V6vTthHuHxAi8KSrgjXk9d7q5UGpc7x6gtvwd96TPS4ULbiKltdvzIcfO3HniLS5/Vbp0rm9CxeK9h7xlttzeBAgjAuxJ1euXHLvvfdq4nrOqUOGDJEHH3xQqMi1Z88eGT9+vHr+VKhQQW677Tb54IMPTOwJj0NoVhiBsCBgIVphcRjMCCNgBIyAETAC/iVAIsKePXtqnomKFSv6dyBmeVgQIEFt/vx55aLKFWT9hg1y5OjRWHbt2LlbRo/9WL1yyNFT7ZLYYSsn5ISWFafEcwYnkkS53Cd+bVmdNxNjpB05cuS0YQx8a6R65rCASlrnZMB/KXY76jyAaPXqVHcsorcVu4e9CzcCXhgXgk/btm1jwrjGjRsnhG5NmjRJVq5cqbl8vv76a1c1LpNcc801wvm3ZcuWcskllyR6SISF5c6dW0qUKJHodayjETAC4UvABJ7wPTZmmREwAkbACBgBXxAgQWihQoU0P4hV0fLFIfOBkeeEDM3C8F27d8tHn06QPHlyy00tmqXr6lF45tAuqnyhlklH0IqrJSYRc1zr2udpRwDPHq/dfffdMWIPoVtTXfn1sWPHygoXgvf555/HlF9H7KlUqZLcdNNNcumll3qrh3zGQ4iEz88++6zUqFEjZB/70AgYAf8QMIHHP8fKLDUCRsAIGAEjEJYECCXhDrI1I5AaBAhTOuq8eqKy55MaVWMnWGb/h12I1qIlofPVpIZ9KbmPGbPmOk+cmjG7mL9wiYZt1ah+qcs3ZL/BGDAR+iJQ7CEnD4JMp06dZPHixSr2UM559uzZMmHCBPnqq69k4MCB0rRpUxV7brzxRqlatWosMl9++aVMnz5dliyJ/h51797dRJ5YhOyNEfAfAftL4L9jZhYbASNgBIyAETACRiCiCURFZZMqLkTrswlfycxZc+S1wW9Lgfz55K7bb5bzypaWGVO+kpV//u0EnlOhKOTjmfrLDHn/owmyd+8+l8skp7S8sZmvOeGPc1ntU14Vg4aOlqEjx8p7wweqx9zIwX3l199my+X165zmyfSm6zt3/iI5fDK0q3bNaqf18TWcdG48Hlk8COPyxJ5jx46p+Emens8++yyk2HPhhRdK8+bNtRQ7YX+UgEYw/eabb5SoiTzp/Itlw/c9ARN4fH8IbQBGwAgYASNgBNKWAFW0qOpCJZg77rhDmEBYMwJnQyBHVJRc1aiBzFu4VL6aOEneHTtOrryigQo8GV2OnqJFCkuhggWd51hAhS2Xf/jff/erIISnQ3Un/tSqfkoAOht70nLdTJkyy91topNEvz/uU/XYwYsJz7mcOXNIY8cplAfd26PGyIEDB6RSxQrS/t47JEeUf3MRpSV/P+zbE3s8W++8805NwIzgE0rsee211+T888/XpPjr1q3T1QJFHsK1yK1mzQgYAf8RMIHHf8fMLDYCRsAIGAEjEFYEqKKFyEMJ3+uuuy6sbDNj/EkA8aJYkSLy6gtPy1OPdXDeOqulZoBYEx0WGCDuuGFmy5ZVWlzf1AkelzvxQ1T0yOaSFPu9MZanHntIh9H5oXb6HJjrKpS4Q6dp34+XmbPnS91aLrmyE8wsB4+iSxf/IHB64Vxt2rSR//3vf5p4nDw9CxYskClTpmj5dYRCkpF7LVjk8T63ZyNgBPxDwASeMzhWBw8elD///FN27NghJUuWlHPPPTfmJEom+pdeeklKly4tDz/8sJQqVUr4jBPqZZddJrVr13bVEOwOyhlgt1WMgBEwAkYgTAmQB+Lll1/Wv4WU7rVmBJKDQAZXESrKeZ1QRaqwS+Idy1snxA4QfQIntiG6+PYjr5KW95yYgeTNkydO757ErG99IoNA4G8CsadVq1Zaka1///4ydOhQ+eeff2IN1BN5EH8qV64ca5m9MQJGIPwJmMCTyGPESY4yhMOGDVPlG5dXPosu5ZlfunXrJrfccou6wi5fvlyXeeUsSXTGen/99ZcKP2XLlk3kXq2bETACRsAIGIHwJxBYRcu8BML/ePnNwlDeOn4bQ1rZG5d3T1rZY/tNWwKe2INHF56XO3fuDGkQIs+3336r1bn27t0rBQoUCNnPPjQCRiD8CJjAk4hjstuV4+zRo4eMGzfOxXb/q7kFLr74YleeM49s3rxZfv75Z332BB1cHRF/eNCaNWumbpF48BRx7sYp2ciYjxr/wAMPyPXXXx8yJjsl92/bNgJGwAgYgfRHgJsdgSEj6Y+AjdgIGAEj4B8C3IzesGFDrPCsYOuLFSsme/bsUSHIPHmC6dh7IxC+BEzgScSxIRHZ2LFjJV++fDJgwAC5/PLLJUeOHHoxS+Z5RB/ukLDcS1QWuFmSTZLIjD4pfSeFuNr58+cLopQnMAXaYq+NgBEwAkbACBgBI2AEjIARSL8ESB+xadMmBUBaiYIuYfnVV18tl1wSnZScUFtSUEycOFH69u2bfkHZyI2ADwmYwJPAQZs+fbpmn+fO5BtvvCH169eXrC5hH+7CXqNqCC3wM28Zz4cPH1YRCFEoWODBBfLvv/9WDyC8e8qUKRMrRw/5fvbt26efsT6ulKju5PEpX768KwGaS3fFPnChZDmeRDxz4mY5j8yZMweaFOs1AtX69etl48aNKlxdcMEFkj9//lh3YxGM2G7u3Lk1vh3VHzGLPwj8YQjMK4Qt2Mw+YcMYVq5cKYdc+dJy5cpJIRdHH3ynF6GM/cMC91EEMbYd3C+W4fbGCBgBI2AEwoLArFmz1MuVc37r1q2lUqVKYWGXGWEEjIARMAKnEzjvvPNkzJgxUrhwYU2+zfU219/efMGrysU5PXjucvrW7BMjYATCiYAJPAkcjQ8++ECFjMcff1xV7WzZsp22RlzCjteRBMt4/pDY7K677oqJYyW0q1evXupxg3jCybV69erSvXt3qVOnjp5kCbkiCRqq+pYtW2Tq1Kma3Jl9XnrppfLiiy9K3bp1NRs+25o7d64KKf/3f/8nPXv21PWefvppqVKlimdOzDOhZKNGjZIhQ4bImjVrBJGF7ZIYumvXrnLjjTeq4EM/toe9t912myxbtkx++OEH3Q8216tXT5588klNIs17bETtx50TQQj1f+3atepRhJfTfffdJ/fee29MuBriz6BBg+TLL79UkQoDEbOee+45DTWLMdheGAEjYASMQFgS2Lp1q/z2229aReuaa64JSxvNKCNgBIyAEYgmwDU61/yWM+30bwQ330k8zc1sbk5z07t48eIaqXF675T7hEgM5lzMo5jzMRdMrcackHyzXoU1vifczLfvS2odgbPbjwk8CfBbtWqVfsEbNmwYI8wksMppizk54FHjJWamA2IJwguJl2+99VZ1g0Q0mTNnjgozvXv3FvL8sO6uXbtUICI5MwILPzbEEC6mUd+JkcXjhRKI/CAJ0briiitUYCE8DE+YUI2+2MEJBMGlRIkS8uuvv8q0adM0KTSumQ0aNNBV8ciBRZ8+fVTo6tSpk5bcxA4EHVR/RJmqVauqpw8eP9iGoENIGzmBqDxGfwQrhJ/7779fOIkOHz5c+zZq1EiuvPJKFbK4G+zdRQhlu31mBIyAETAC4UOAmxMvvPCC/i2wKlrhc1zMEiNgBIxAKALmlXM6FeYkzINIzcEci/kWcyRuXjMn69Kli1x33XWnr5hCnxBhwRyL6szNmzfXOVJqHDfmh+wXb9zAhpMDIXzcqL/hhhvijFwJXMdepw0BE3ji4Y56Syl0VFsSKvMDT45GCNOIESNk0aJF6qWCV0/evHnlnnvu0ceUKVN0GaFSge2ZZ57RHxR2kLAZD5cZM2ZoKBbv27Vrp2FOK1as0MTOiEH8GBFfQjVU2EceeURDuCj3znu8djp37qweQSjXgQ2BChEG7x4u5lH+EZKwa/LkycJdW06AXuNEiYjDiQAXz2PHjqkY9frrr2t/PI9Qg1evXq0C1d13363qNCdUPJpCeUt527ZnI2AEjIARCB8C3Ggg/NbuCIfPMTFLjIARMAJGIHEEEHK+++47vVFBVAORDzVr1lSRBy8a5kAknE7Nxo1zUoMw76pWrVqqhsoxV2UOzPyQOR9z4sWLFysj0mns379fbr/99tTEYftKAgETeOKBRU4bRAqEhuR0SePEgTcLca/k0UEpxUuHkwueOKjGhDSh3HqNkK2KFSvG5NypVauWhjjNmzdPf2TYh1iC1wsX2OQJ4sQQnxcMQhEeNzwzVoQWPIr4QbNvfryeax52YB/ugbVr144RjXDx5G7tTz/9pK6MePp4DQEHDyBKK2ITjZMEnkjk7yHk7KKLLlK+8ECs4gRGiBi2WzMCRsAIGAF/EODvSFw3E/wxArPSCBgBI2AE0isBBAzmIcy/iGogNQc3p2nMBZkTMbdKzcbfVeZZzA3jm8+llE3Mf7mRTw5a5qrkax04cKDm25swYYIJPCkFPhm2awJPPBC5I8kFKz92lMzkaogbCCH8UPBuCfzRcgIhKfH27ds1PMvbJ0IMgpDXCLviPT9+fnRn2qi6Rf4bQrUQdfCy8ULJPNdET5whCXTRokVjXcTjKojwBCuEoUCBB88n7PTWx0b6kpSZ/SEqERZGOfclS5bI4MGDNc4Ut78777xTk3QGrnumY7T1jIARMAJGwAgYASNgBIyAETACoQgw72K+hycq0QjMeQLnIERaBDdufOPVw01q5m4krmae5DkFMI9iXke6DcQi+jP3oy9zuKioKI3gCNwu8zBvPkaRHNbhPTe+g2+iMP9DmMKjhn7ccOememBje9xQpw82IBaRJiMxjfGzT6JYaNjAHI3K0qntzZQYe63PKQIm8JxicdorlEsEiN9//10oJ0g+G36MZ9v4QXo/RJRRkncFNzx2vApZLGO/gUIQwg7vA08+wdtI6D1hVSRiJqQLrxzCrxjjJ598oo/g9dmfd9IKXIYNPLAxUN2mf3CsqNcXbyP6sr2WLVuqJ9NHH32kFcvefPNNDREjR1GLFi2SLTQu0GZ7bQSMgBEwAslHYPbs2cI5nAvIVq1aWRWt5ENrWzICRsAIGIEUJsDfLkQcKvpy0xlhhs+8FjzfIrfqhx9+qIVqKDLAvI68ozfddJOmumD+iGg0bNgwLUxDVMPSpUs11yrbRSwhDIwCOeQ89RrpO8i5w1yRvHbYQ4jWHXfcIc8//7x2Yxnb6tevn6a88OaV7BPHgY4dO6o9zO/o8/XXX+sNfMaACPXoo49qTlfmkklp3JiHDYIPjgfWwpeACTzxHBt+CIQYkfAX75IaNWoky0UrqjACBw88VUJVuEIcCVZq4zH1jBbNnDlTs7OTAJkTAqo1boijR48Oqcxu3rxZQ6tQnrGdxgmNXD1476AaB4pSJGXmxERpdK+hXG/btk1FLU8RRkgjOzzKM3mI8ChiokAsLCeQMq50vDUjYASMgBEIXwJc4E6fPl0vkJs2bRq+hpplYUXgwIGDMmf+Ijnirj3Sou3bdyoUPqH948lNoYhvv/1Wk482btxYr4E2bdqklUOZtD311FN6HcS1FH15MDFLqPoNd/oXLFoqM+fMT8iMFFt+zE0arRmB9EqAqANuriOGvPPOOyrOkKeUeUiwuEO0wnvvvacVhkk78fDDD6sgRLUr5lDMaxBjEF7wviFagjQYRDtw45rfO3MhxBLmYp7Ag7cNDgWkvUAo4qY7qTPoGxghQcXkJ554Qm/Qk9qC8wvFbRCH2B+N7VAB+ZdfftFxUfCGGzHc3CeJNBEWTZo0ifdwYyfbxQbsp7Lz+PHj1UuJpM/WwpeACTwJHJu2bduq0EBcJh4lqKkIMoGeKVzY8sccgSQxDfUU1zyqVaHAkofGE0Y4GeBGx/JAb5jEbJc+KMKIQ4gxnAxCeQd52+IHi2sfghP7Q7SZ6rKm8yPmRx3csA0OVLrykilzsiBnEOIOQg4nNa9xQsP7CdUam7g4olIYn3OCg4PnhojdMCCEC1GNExInFRR0a0bACBgBIxDeBLgI5oKWGxPBBQLC23KzLrUJ5HR/72tWr+quAcrKmjVrZdDQkZI5U9pcjnKTav/+A/q9vahSxXhRcPeaSRU3tEi6isDDdc0HH3yghTPwYq5UqZIKOoS6k8ODO/hM4uISeM7JcI5c6Pa77I/lMm/+Qnmo81Px2pCSCxHZuJb9380tJKv7HVszAumJAPM6wo8IpxowYIB65zAX4TMKxvDb9hoVj8eNG6fhTt26ddMiM5xLiIZgnshcibkOHjU05jIkbO7Ro4eKNuzj/fff177MoaiCjIiEWIx4Q5gXER7ezXRvvzxz4xyRBe8c1uPvLiFXzNsoUMN8i3MVqTC4UX7VVVfJ0KFDdY5Ff8KriN4gWiMhgYcb+ohWcEB84j15UqmojNODtfAlkDZ/UcOXx2mWIVx0795d3eN+/PFHVURRSxEiaGtcwmTUVxJy8UhM44dIaXR+nLjd4SFE8mEuFPgR8QeWEwT7SWpDLEKswW2Q+EjK2aHaeieZwO2hOjM+KnrhhYNdKNckbo6rsZwLl4aubDz28sOnLDsnP05egSo3AhMl0ZcvX64hWAsXLpTvv/9eXRgRiThJcOHz1ltv6bZQzjk5ffHFF8rm2muv1QpmcdlinxsBI2AEjEB4EODuJ397aIE3QMLDOrMinAhwnZA3T26pXLG8u6G12t3oSdsbOUyIqlW9RO6/J/6KMISUc9ebfBbcGKMR4sC1DNdFLKfiDM3ry2SMyVpcLZNbp8P9d8n0mXNl3MfjZdfu1K3SE2xXxQrl5fJ6te03HAzG3qcLAkQW4HHHDQs8dD799FMZPny4zvM6deokt9xyi/62uRHP3AfxhyTIXj4aQrSYWxGtQL5Vb+7F30RuaiOKcL5hvoWzADlJmSNxw53cOOQAokw722CeFKpxTqEPN1KYdwbnCmId7EMoYjzMzRBnKObDuZd9IkZ5+WXjcybAbryL6tWrp/M01mHe9thjj0lb5wDx5JNP2rki1EEKg89M4EngIPBjoAQ5gglZxBE0vAer8qNB1eWHidLqCRw8e6/5Qx/4nteUMOeH07dvX/n444/1JMIPjvhPyqZ7F8rB6yZgrlBdC0UWhZZQJxIYI/p4J5nA9du0aaNqLGOjL3efKHXOhTreRcGNbXDC4aRFzChiDGPGhbF9+/aniTGc+DhxfP7556om0x9bunTponYxNrx2uOOLcISwAwPcnBGMKJvuhXEF22LvjYARMAJGIHwIMNFN6bDi8BmtWXK2BIoULiQvPfekdH6onSxZtvxsN3fG6+OpUvWSi/RaBc+i+BrXZ1SOWblypd48oy+TNa51uNHHNZ0Xcs/1FH0JkyAEPa7G76ZJo8udqFJHOra/R2bPWxBX11T5vG6t6u66K7dkymzTg1QBbjsJKwLMz/jt8ptFQEHQ4SY08z7mgCxjHkT0AzfjCdfEW8eb7zEnJDKBeRSefl5DhCHcivMFjf7MG4lYmDJlikZCIA5z4x8vHm5wIxyHanjnMA9DhGJO5e07sC832OlDNAfeNszxvMbNeQRpHtiIrXE15nB4JXGznvkZ8zi8lwhFZZ6JuGWhWnHRS9vP7QyeCP78IMu4PDAvvviifqlJrIU6SzgSQgyKLX/4ec+PDZc41vHECVziyElAGJKXsAth5Oabb1YXX37MnCzoz50etkdfGjGYnEw4qXjreiYjDr388suxwrDwyHn22WdV1eUkQLxnXHePGNMzzzwjDz74oLr8sX/vh477IAozIowXrsVrTjokY8ZziZAttk1oGvayPLCx7KGHHlIuhLEh5mCPx4q+KMmvvPKKqsFw4OSIDazLNpOaACxw//baCBgBI2AEjIARCD8CGTNmUC+ePLlzSckScU8wUtpyN89KtDDpeetwHRM4UeNaxQtX8K6D6MuEjWsZr29cY8maNYsTmLJI7lw55domoe/ax7Vucn+OHdaMQHongFjLnIgUE8xJmOd4yZIRZZgX8bvnpjp9ghvpMQKFXeY/ntef15fzA+viJYRIhKcNzwg7zPs4lyCqBDeEJUKlOMdgZ6jGeszR2Cc37jkPBTc8cxhDQo0bN8zbvMa5DlF71KhRsnjxYhN4PDBh9hz6mxFmRoaDOfyQ+LHz4AdTvnx5NYsfIMu8xg8h+IfEDyjUjwiRhwcnDk4WbIdHoBqLsMMjVAuVX8ezk5MJP/Dg7QVuB9sRcejLicbbf2Cf4NfYy/hwU6axjUB7A/t7tnASIT8P/egf2Dg5ceKAq+c2GMw0sL+9NgJGwAgYgfAjwF09vFG5EYGHqhfGHH6WmkXhRIDrAj+JCtgbSrAJvraBcVx94+PvJxbxjcOWGYFIIMBvndAqxBrmP9zgRzhh3sK8jZv6eLPwWw9s0ee1rJqDi895z5wosLFt5pJsg6I033zzjSZBRkDBayauxpwQ5wK8dEivUcbdrA9u3tyScNLrrrsuZA4wzlmBeVODtxHXezyA8Axi/IhN1sKTQOxvW3jaGHZW8SPlh8kj+Ad7JsbyI2NbPAefJM5ke6yDXYndHvtEaEnKWOjPIzH2sl36Yk9czbMhuZjGtR/73AgYASNgBJKfABeS5AUgVIWLYGtGwAgYASNgBPxCgNw2VIIkQiGw8beNpOoIG0RJEGWBVw8P8tHgxcKNcu9BBATJ1ZnPJNQQj8iTSmgW1YMRj/AQiuvGPttD3CG/KuGfJHgn8sFrvCb0CgcAwqeINiH3KXMwzz5EHfpQyCYp8z724SVvJjSNG/OBXkqeDfYcHgTMgyc8joNZYQSMgBEwAkbAtwS40CPkl5h9cgtYMwJGwAgYASPgFwKIMlSbovoVRW74O4YIQiEchJwKFSpI/fr19WY1XjbNmjXT/lTLI30FeUoRVCiWQ34cSpEn1BCM2NdoV1qd/ZICg/Cs+BoREaT+YD+DBw9W8YkkyOT+wROIXD8khG7YsKFW2yIEjDQZXiU/SqkjYpE7tWXLlvHtSkUtqnG1dQmVvXLpeO8gJGGnt814N2IL04SACTxpgt1fO0XhJd8PqjTKdUKN0qGc/LjQJwTMmhEwAkbACKQMAapv4DHDxScXi2nVuJvpFQdIzJ3LtLLT9msEjIARMAJGIJgAXi+klKBiMqIIf8fwqOGZXDvkK6VwDY08XOQYZX5EuXPEHC+qgeTM9KcRnRD40A8D/mF9BBuqCLNf8vBgQ2Dz1ve8bUgFQjGd119/XZMff/bZZ5oEmrAswr0oi05f5mG9e/fWojiTJk2KKZ6DdxB5YRMTRk0IFhW5EK6wgxBsPINatWqlCahDpR8JtN1epx0BE3jSjr2v9pyUiQMnGR7WjIARMAJGIGUJUNGHJP0XX3yxXnSm7N7i3johuPGF4ca9pi0xAkbACBgBI5C2BPDAoew3pccJy+LGCXMZxBzyjnLD2pvb8LcOYeb555+XDh06aE4aboKTo5W8ql5SYm56PP3009K5c2cNaQo1QvLwUOWKxMmEUQX+HUVUQVRauHChLvPWR2jhc5I0b9u2TathsV/2zzZo2NrQefFwbUAfxsSNd8bDnI4Qq7gaNuBNtHr16pgu2IJwhMDE/uMLI4tZyV6kGQETeNIMve3YCBgBI2AEjMDZEcBVmmSHXHQFXhie3VZtbSOQOAJ79uwRXPiXLl2auBWslxFIAgFCXchRYpPJJECzrmdEgL+fgUVf+LuKqMHnnvdM4IYD+5ctW1YL2wT35T2RD/FFP+Ah5BWuCdy+9zpUoR7sIpcOnrMUvsHTKHjfrO8V/kFowmOHcdCP9RNqCERlQiRwTmg9Wx4eBEzgCY/jYFYYgXRDgCRthJVw4WbNCBiBMycwYcIETbSISzZ3E9OyzZ07V93auRi99dZbNWQsLe2xfacOAfIyfPHFF3rsU2ePtpf0RODOO++U6tWrm8CTng56Go8V8YNwq8S2pPZP7HYT2w/RJpQAFbg+yxF7rKUfAon/BqcfJjZSI2AEUoAA5Rz79+8vkydP1sRsJvCkAGTbZLohgLjTq1cvWb58ubp/44adlo3Ei3hycAcUwcla+iDAXW4qsuBJRmUX8k9YMwJnS4AKQSSD5bt14sSJs92crW8EjIARSFcETOBJV4fbBmsEUp+AJ+yMHz9eY5q527Fv377UN8T2aAQihAAlW3/44QdNfkj4AhPrtL47RxUtcg1gh1XRipAvWhKGQd4HKsm0adMmCWtZVyMQmsDw4cOF/GLWjIARMAJGIOkETOBJOjNbwwgYgUQQCBZ2KOFI8xLAJWIT1sUIGIEgAv369ZN3331X1q5dq1WrqOSR1t47mEguAJI8IuBaFa2gg5YO3hICQM6G+HJNpAMMNsRkIsB3iXOJNSNgBIyAEUg6ARN4ks7M1jACRiAeApRTHDBggHz++efqsRPKW2fTpk1avjGezdiiCCEwffp0odTm4sWLtawniQGtJZ4A+ap27dql1SxIaLtjxw4hj1VDVx2ja9eu0qBBgzT33mE0JG7kYc0IGAEjYASMgBEwAkYg7QiYwJN27G3PRiCiCDD5/Pjjj6VHjx46CfU8doIHuX//fpk6darMmDEjeJG9j0AChw8fliNHjsi8efOE0CJrSSOAOEaFDO+Zah1vvPGG5rmh1Glah2YlbTTW2wgYASNgBIyAETACRiAlCZjAk5J0bdtGIB0RyJkzp9xyyy1azee1116Tr7/+OuToScpJ3+bNm4dcbh9GFgESZS5cuFDzslANxQSJpB3fChUqSP78+aVSpUpaShV+lDwlhCGcGgLeZ599JlTR4jyA3daMgBEwAkbACBgBI2AEUpeACTypy9v2ZgQilgDhGeRfIGTkwgsv1PLNhGoFCz1MABs3biyvvvpqxLKwgZ0iwHcAz52aNWvKc889J7lz5z610F4lSCBr1qwa+uQ9J7hCGnWgihaeeVTRatSoURpZYbs1AkbACBgBI2AEjED6JmACT/o+/jZ6I5DsBEiwWrRoUSF8pGLFilrGGY+er776SvdFMs6oqCj1Rkj2ndsGw44Ax5pkmeTewRMFAcBa5BEg0fOTTz4pCFHlypWLvAHaiIyAETACRsAIGAEj4AMCJvD44CCZiUbAjwQQeooVK6ZCDkLPo48+KgMHDtS7/H4cj9lsBIxA3ARKlChhVbTixmNLzpIAeagOHjwomTJlUrH4LDeXblZfsmSJfPnll9K6dWspU6aMVaZKN0feBmoEjEB6JmACT3o++jZ2I5AKBAKFHvKIUEHrn3/+SYU92y6MgBFILQKEaIZbXqDUGrvtJ2UJkLAfkaJfv35CkvH33ntPcz2l7F4jY+ujR4+W8ePHqyjWuXNnFcgiY2Q2CiNgBIyAEYiLgAk8cZGxz42AEUhWAp7QQ4JYqipZMwJGwAgYASOQEAEqNH7xxRfy999/y6FDh+Tnn3+Wa6+9NqHV0tXyUaNGaRVLKlnmypUrZuwUM8D7ibx3hEdbMwJGwAgYgcgnYAJP5B9jG6ERCCsCdqc/rA6HGWMEkoXA/Pnz5fPPP9f8WjfffLOUL18+WbZrG0nfBI4dOybr1q2T3377TcN9d+/erYn7TeCJ/b347rvvZO7cuafdPKlTp45UrlxZ8uTJYwJPbGT2zggYASMQsQRM4InYQ2sDMwJGwAgYASOQOgQIvZwyZYom0b7iiitM4Ekd7BG/l3379slPP/0kWbJkkVtuuUV+/PFHFTLWrFmjOWVCAUAU2rhxoz7IA1e6dGk5fPiw7N+/X71bSATutRMnTgghYHgH0YcwYio97tq1SwURKkPSjh8/Ljt27FA7qAS4d+9e+fPPP/V77nnM0GfLli26LRLKn3feeXHmCzpw4ICuj00IMGxj586dmiOHdQMbHkyMl+WM5/zzz48JtcKjCVuwjXFv3bpVPXZIbp8zZ079jDHyCG7Yu2HDBhXQGBPhb6xDUvzARkg1N2ZIkH/06FGtkAmrCy64QD8L7h+4rr02AkbACPiVAOe7RYsW6fm2Ro0avhqGCTy+OlxmrBEwAkbACBiB8CNQpUoVefzxx7WKFhNba0YgOQggtHz99dfqgdKqVSvd5CeffCJ4rLRv3z7WLhA4VqxYIT179pRly5apGEH1PgQRvp8IkFR6u+aaa3Q9RJYPP/xQhg4dquIOIgjiSsuWLXWfVIIcN26c9kVAadasmYoxDRo0kMGDB6vo8dJLL8nVV1+tws4rr7yinkaEIJMMGjGma9eu0qhRoxg7sZEwKgoOIM4gsiAo3XPPPfLZZ5/pet9++632p+8LL7wgkyZNUs8cQq0IdUaE6tu3r5QsWVJg8cYbb8j69etVxCGZMmIMz+TcGTt2rLzzzjvKBDu8MK1p06ZJ//79VQRDrOFzhK82bdrIfffdF5PjCPtuu+02TaB+0003KStYeKyefvppueqqq1T4ihmkvYgoAiTnLlKkiAqX27Zti6ix2WCMQEIESO6PiO23HIMm8CR0ZG25ETACRsAIGAEjEC+BwCpaeFtYMwJnSwABZPHixSpCXHfddUI1RsSUkSNHyjfffCP33nuvCh7sB8EBbxREDTxratWqJZdffrkQ0jVhwgSZOXOmihh4BNEQdxBvevXqpYLI7bffLuSHmzdvnrz++utCPzxUvIa4smrVKvWUmTVrlm4frxs8ZfCweeihh4QwRfbJvmfMmCGTJ0+WLl26yKeffqreMQg2vEa0QQS6++67VaRZsGCBCjZsp1ChQt4utQ8JpatXry716tVT+xGBEKoGDBigAg2hkDAhPHLz5s3SsGFDnYhUqFBB++P189dff6mXkufFgxcUdsELQQfBCC+dDz74QMUiuMMRcYx18B5aunSpjo/QODyiEKE4NghcF198sRQvXvw0z5+YgdgLXxNA+ENY5DvLd9iaEUgvBPi+//7773pOJdzVT80EHj8dLbPVCBgBI2AEjEAYEsBjgYc1I5BcBBBnEBIQURAxmGjiHXbppZfK6tWrZc6cOXLZZZfp7hBkqLS1cuVK9dBBRCHcCBd7XOvx/vFCnxAt8EIZPny4etAMGTJEqlWrppNY9oPXCqJQcONz7uYiBj388MMqoCBmItog+tSvX1/69Omj3i8kN0YIwXsGL5rnnntOQ8QGDRqkohPCDUIQ6+MZhE2et5C3XybVvXv3VtGIsdDwHsJGuFBV7JJLLlEPJcQlBB7sYpyIM563jrc9nhFvELXWrl2rXkhXXnml8mUi06RJExV8hg0bpl5M5cqVi1kVLx/G1KlTJ/WmIlzuzjvv1HAthB6EKRN2Y3DZCyNgBCKAAOdlzvn8DcLT0k/NUur76WiZrUbACBgBI2AEjIARiHACiCnbt2/XillFixZVzxTc5MmJ07RpU82RQ+iW18hlM3XqVBV18OzBo4S8MoRZIYIgjHgN0YdQLsKa8LhhGaIIHjnnnnuuikFe3+BnRMwWLVoINuHxw3s8dZgIINQgqjAhQJzB6wbPH8QXxoP4hBcQ+yRcin0i3LAtvHmCm7cvvOMQWMgTRMJpGqEyeFQg5DBG9kdjm7yPazKCd9Py5culbt26KoQResO44Vq1alWtTkZOIkQbbA9siDrYQsJmOOFZxHjhGNw3cD177W8CCH18R8mzhqeXNSNgBMKfgN1uC/9jZBYaASNgBIyAEQhrAoSZECbCxJIcJoHhLWFtuBkXlgQQGSiHjqcNAgSeMIgJCAl47yDosJwJZ8GCBVXs4HMED0KGAht3X/HiwdWehrcKYUds76KLLlLPIK8/osqFF16oyYO9z7xn+rMv1vEa9iDcIMDgbUM+HK/xGcIPiZcReBBoeEZwCkz0jHDFNr2Ezt76PDNGPIyYXCPo8GCb7JdtJbURrsU2sAEugY2xYwc5fLCVfTBmGt5ITPRZ5jX6sg7HApusRSYBvqt4Z/G9sRCtyDzGNqrTCXAjAM9MznEkwvdbM4HHb0fM7DUCRsAIGAEjEGYEqFrkVdHCQ8EEnjA7QD4zh+TK5NnhIhsxhqTGXmOSibiBF8sPP/ygHje8J0wLr52EhA+Wk++GFtwXsYULeraF10JgQ+zgM0QkryFsMPHFgwbPnuDG9vCooR9joiGcBDcm0FTD8nLw0J/QLsKp2C8eP3jYkFi5e/fu6oF0JqIK3kU0Ju3YFtw8T6DgbSPcesu8dRCI2EYwQ2+5PUcOATziEDcR/ggFJIG4NSMQyQT42/PLL7/o34PatWv7bqgm8PjukJnBRsAIGAEjYATCiwB380nMysSRcsvWjMCZEkAwIZSI8rTkxnn22WdjbYrlhD2RDPmrr77SKk94liCkIJJ4yY69lRCEvNAmPqMvQgoeNnPnzvW66TPii1dqPNaCk28QfwKbJ/qw3//9739SqlSpwMUqgNCHB+FQbJ+Ez4ENMYVJc6Dwg2hChSw+p+oWXkkIKuTQCRxL4HZ4HSzMBC/HPkQZvI5CCTN4QfE5HjuB3jqhxCA+C/V58D7tvf8JIEDy3ec3w+/PmhGIdAIIPL/99pue44K9Hf0wdsvB44ejZDYaASNgBIyAEQhjAngWUOmocePGMV4IYWyumRbGBPCuIa8Nk0pKmpMjJ/BBYuAbbrhBv2d//PGHhl7hVUM1KEK7vv/++xihg4t0+rA9r+GJQvUpllFOHTHJa6w/atQo722Cz0x6yUXDpHf8+PGaAwdPBx7kw8ETiP0h8BD6hXjCPskB5DWEHcKwAhtCDUmkEVAo8U6+H/L14LGEyBPcCGOj4e0Un8iDDQhNhH4RfhAoKuGFR5UuJjMIa4ECT/D+7H36IsDvDxH/119/1Ypq6Wv0Ntr0SIC/D9wAoDx6hw4dfIcg9q0I35lvBhsBI2AEjIARMAJpTYCJbrB3Q1rbZPv3JwHy7lAlimS+JFQODg1iVIRKXXXVVfLFF19oKBfeY61bt1YBBJECIYWQJqpFUREr0NME4YJqXFSFYj9Uhrr55pv1Qn7atGkqfiSWHMLSXXfdpd42lBmnLLlX2Qthie0h3jA5xnvm1ltv1apblFWnGhdjRGwhvDGwYS+lzvFievrppwVRi20PHTo0pIBD0uRJkyZpZS1EMZIhwye4sb9HHnlEvaI6duyo4W0IYyS0hhu5frp27arrI0oFCkDB27L36YcAOZv4zfBd5TuNAGhhWunn+Ke3kR44cCDmXMvfFURxvzUTePx2xMxeI2AEjIARMAJGwAhEIAEurEnYjeCA10DFihVDjhKhAo+xMWPGxIg05El4+eWXZcCAAZq/BvEHzxaEHrxsJk6cGJN7hnCup556SoUfPseLByEJEQaBo0uXLir4BO88UChiGSII3kCIOD179lQx6ccff9TV8OohH5WXV4c7wd26ddN9Ulqd6lOIonj7vPDCC/LAAw/EJD5muy+++KL0799fhZsZM2aoPYhCbB/hJ9AWWJCziAk4IWpU5SJvj+eF4/Vlu7fddpuOlRC3t99+W3MKcbcasQp+hJphKy1wPf0gxD9enxCL7KMIIcB3o0yZMvp7wsvNwrQi5MDaMEIS4PuN1yfnS87Pfmwm8PjxqJnNRsAIGAEjYATCiACT8i+//FInqDfeeKMlWQ6jY+MnU5hIXn311RpmRcJkwrRCNcSY+vXrqzeBV+WHZ0p5I/TgiUIoE14HCBBUt0LsIFksjdcIMz169BC8aeiPEEMoFBPYwL705yJ/qivDHqr8ODYippBYnKpeCDcIS2yLhzdBwA5y23hiDt5F7BNvJM/7jVBHGn3r1Kkjb775piaTJnzq/PPPV6+JNm3aaOUqWHmNsuVvvfWWeiwh1lD1hTG0bdtWhTCEKyYrNLjCCU8jhDRyDnl2wgfbPdGGdchzBG8vDMzbJ95VhI8xhkBbvOX2HFkE8CJDXJw+fbqGafFdtmYEIpFAYHhW+/btfTlEE3h8edjMaCNgBIyAETAC4UOACSj5QfCsYOJtVbTC59j4yRIEBbxreMTXECAQWxAYAhsiBCFHfP8I00KYwDuHsBJeB05KEVUIZSLUhDu2LEcUGjZsmAougd9h+hJmFVdDXKKMOAnGSYiMuML2PKHEW4/xsT9EHfLheH3wpKFvoMcS28RexBnG6YkoodhgXxnnYYFAxLg9YcwTmbz9e8/k80HgwmZv7J7I5PXxnrEzVMubN2/IcvKh+tpn/idAmBbfFyoLWZiW/4+njSA0AbxI+RvAeRSPSc7Vfmwm8PjxqJnNRsAIGAEjYATCiAAeA+T2YFLKRNOaEUhNAtxxXbp0qXrZXHvttSq0UD1r3rx5MmjQIPXKufPOOzXxMXZR9Wr06NHq4UP+mnz58smWLVvUC408N3ilkC8nqQ0BxwtvCl4XGyn3jmhD+BlCDfmGCK0irAzPGmwMbmzTE3eClwW/j0ukCe7nvUeIister489GwEI8B1EvCcM8LvvvpMrrrhCrr/+eoNjBCKGAOLOwIED1eOTGwjBFRz9NFATePx0tMxWI2AEjIARMAJhSAAvAybFeCEkdjIahsMwk3xKgGTAhDwhoJDsmO8g1aT2798vu3fvliZNmsj999+vnjUMkXLPhJuMGDFCQ48QRhBgdu3apSIlOXgIiUrOxh1hJsdU0MLTDe8db5/Y3717d02snJz7tG0ZgeQkQPU6vr9UmiP/FR5wl156aXLuwrZlBNKEAOdiwnAReKh+2K5dO9967wDQBJ40+RrZTo2AETACRsAIRA4BJsiEfVgzAmlBgJAkPAqoBBXc8IChZHlg1R88dvr16yfcsQ1sCJRsi4lrUr1hArcT6jWCTp8+fVR0Cl7OMsKreLZmBMKVAGF5zZo1k1mzZqnnGb+RJ554QhOZh6vNZpcRSAwBbgZwgwBx59577/W19w7jNYEnMUfd+hgBI2AEjIARMAJGwAiEJQFEHEQbHolpTEwDc+wkZp2z7YONye0VdLY22fpGIKkE8NghN8mGDRs0pJEE3+QpCRRQk7pN628E0pKAJ+78+uuvUrNmTfWm9Pv32QSetPxG2b59R2Dz5s1652LdunW+s90MNgKJIVCtWjUhJwW5GawZgcQSWLhwoVbbIW69efPmNpFNLDjrZwSMgBHwEQHCH1u2bKnJuf+fvTsBs7Ms8zT+ZCEb2Vey7xtJIDsJCSGALBIWEUQEW2xFWxRbW52e6ctxpu3uoe3L1p4RpXtEFEQWQQEbZAuQQAgJAcIaSEL2hISshOx7pu7X+cqToiobqUqd893vzKGqzvnW31ehzZ/nfd7/83/+T9AgnJXY6ME2bNiwIroTLzXvAjSYp2n4rbfemqbs4nH99deXRFhpwJP3327v/4gECHbuvPPOIOV1KFCKAvSp4L9gGPCU4tOtvntiFa0nnngirapDQGilQvVZe2QFFFDgeAowVeuqq65Kl/CTn/wk7rvvvli0aFGq7GEKV6dOnY7n5XluBQ4psGXLlrjppptSuLNu3brU/+y6665LUxAPuXMRbGDAUwQPyUusPQI04dqwYUP6LxesGuP/Eas9z8Yr+WgCc+bMibfeeiutLkNzUocCRyLA0tRf/epXXUXrSNDcVgEFFChSgYohz4wZM2L+/Pmpyt1qniJ9qDm4bKp2aHZPo/Ann3wy9dz5/Oc/H9/4xjdS5U6zZs1KQsGApyQeozdR0wLMzfz0pz8dZ511Vk2f2vMpUC0C/JcMVsdwKHA0Aqyi1b59e1fROho891FAAQWKUCALeSZMmBCPPfZYmq5FNc/zzz8fEydOjJNPPjnGjRsXTP12KHC8BFg1cfbs2UHVzu233x4zZ84MWm7Q1J5Vs0qx6syA53j9tnneohbgXwqsysFKGw4FSkHAFZBK4Skev3vg34muAHT8/D2zAgoocDwECHl4UdFODzb68rz99tuxcuXK9DOfscIdYc/pp58eI0aMOB6X6TlzJlAx1HnppZdi7969KdihimfMmDEp3GE6efPmzUtOx4Cn5B6pN6SAAgoooIACCtScAMuN81/t9+3bV3Mn9UwlKzBr1qzgL2iO4hEgyKGynYodViWaPn16/PGPf4zXX3897rrrrvKwp/Av0x06dIh27dqlqTF8vL9NdQAAQABJREFU71DgSAX49wSBIoPghmmCDP5v0aZNmw4Idagk+9a3vpVCRn5f+/Xrl7YtxX8Y8JTiU/WeFFBAAQUUqEGB1157LR5++OFo0qRJWkWrd+/eNXh2T3W8BKj843808xdy+hkQ8jgU+KgCBAQ7duz4qIdx/xoW4C/NvBj9+/ePiy++OE2LmTp1apoi88orr6QePdllNWjQIHg1bNgwfc3e96sChytAkMO/Lxh8z39sYPB7RYDTqlWrFOqMHDky6K9DpVlhyJg2LsF/GPCU4EP1lhRQQAEFFKhJgRUrVsTjjz+e/sc9pc8GPDWpf/zOxf94/sQnPpF6L/GXN4cCx1KAKT0sy+0oPoHCsKdnz55x+eWXp4oK+qBkY/ny5cEKjLzoieJQ4EgF+PfD4MGD024EhcOGDUvf161bN/0Hp/r16+cm1Cm0M+Ap1PB7BRRQQAEFFDhigQEDBsSXv/zl9Jex7t27H/H+7lCcAvyP5x49esS1114bV1xxRXHehFddawX4L+70dXEUt0Bh2FN4J0OHDk2VWlRrOSWvUMbvD1eAICdb+Yrv81Cdczg2BjyHo+Q2CiiggAIKKFClQLdu3VxFq0qd0v6AkKdt27bpVdp36t0poMCxFKD6wgqtYynqsRT4k4ABj78JCiiggAIKKPCRBFxF6yPxubMCCiiggAIKKHBMBOoek6N4EAUUUEABBRRQQAEFFFBAAQUUUECB4yZgBc9xo/fECiiggAIKlIYAS+E+8sgjqanhpEmTbLJcGo/Vu1BAAQUUUECBIhOwgqfIHpiXq4ACCiigQG0TYDWURx99NC2VvXbt2tp2eV6PAgoooIACCiiQCwEreHLxmL1JBRRQQAEFqk+AVbSuu+661DCza9eu1Xcij6yAAgoooIACCihQpYABT5U0fqCAAgoooIAChyPAKlrt2rWLOnXqROPGjQ9nF7dRQAEFFFBAAQUUOMYCBjzHGNTDKaCAAgookDcBV9HK2xP3fhVQQAEFFFCgNgoY8NTGp+I1KVBDAvv374/du3enV3bKevXqRcOGDdN/ic/e86sCCiiggAIKKKCAAgoooEDtFjDgqd3Px6tToFoFaIx6++23x3PPPVd+HqZYNG/ePEaOHBmXXHJJ0FvDoYACChxM4I033khNlps0aRIXXnhh9OrV62Cb+5kCCiiggAIKKKBANQi4ilY1oHpIBYpFYNu2bTFv3rx46623UhUPlTsbNmyIp59+Om655Zb4l3/5l/RZsdyP16mAAsdHgLD4j3/8Y0yePDnWrFlzfC7CsyqggAIKKKCAAjkXsIIn578A3r4CTNNi1ZsbbrghBg0aFIQ+r7/+etxxxx0xffr0OPnkk9NLKQUUUKAqgX79+sVf/uVfuopWVUC+r4ACCiiggAIK1ICAAU8NIHsKBWq7QKNGjaJ79+7Rv3//IPDh+02bNsX3v//9ePXVV9N7TN3Kxt69e1Olz7vvvlv+F7oTTzwx+zh95Thbt26NJUuWxI4dO6JTp07RoUOHoMcPn+3cuTOFSUzpaNCgQTof23IcAieuqbLBfqtWrYp169ZFq1atonPnzh/aluvbuHFjOm7Tpk3TdSxatCidu2fPnsE5CwfX88EHH8TSpUtjz549ka0IVLgN3/PZihUrUoVCx44d0z1xPw4F8i7An5nLLrss9e6q+Ocr7zbevwIKKKCAAgooUFMCBjw1Je15FCgSAYKcZs2aRZcuXdIVE2Bk4Q5BCAHHnXfemaZxbd++PerWrRs9evSIz3zmM3Heeeelnzdv3pw+v/vuu2PlypVB4ELQMnr06PjHf/zHFOw8+eSTwefnnHNOsP0TTzyRghjOx/H+6q/+KsaOHVuuRlj01FNPpXOvXbs2BUQEQyeddFI696RJk1KAww5MF8kqkoYNG5b6DG3ZsiV93rdv3/TZqaeemo7Nce+5556477770vm5x5YtW8a5554b3/jGN9I2BDtvvvlm/OQnPykPrAiiBg8eHN/85jdTIJY29B8K5FSAP4u8HAoooIACCiiggALHT8CA5/jZe2YFaqVAFuLQh4cKGaZoZYPg5Kc//Wk8/vjjqcpmzJgxMXfu3NSkmYoZghGaM9Nw9Z/+6Z9SMERQQmjDe1TeMAh83nvvvZg6dWosXrw4hT8EMZyPiqFHH300hS3//M//HH369AnCmYcffjh++MMfpkqfiy66KFUDUfFD6MNxWQ3s8ssvT9VBBE/PP/98CmX4OnTo0FS1w7Ycm/P/x3/8R9r2mWeeiZtuuilVAXFcAh96EhVe6/z58+PrX/96CrdoINumTZtgv/vvvz9t/7Of/SxYJtqhgAIKKKCAAgoooIACChwvAQOe4yXveRWoRQI0RSWsmDlzZrz//vupBw8hx+mnn55CEy6V3jyzZs2KBx98ME3luvHGG6Ndu3axevXqtO+vfvWreOCBB2LgwIEpzFm/fn1cffXV8bWvfS0FPQRAWSVQdutMtyKY+epXvxqERVQAMJWKZs8zZsxIx/0v/+W/pIocQhSCm//1v/5Xui6mcDGNbNSoUWkqGec/++yzU8jE8fft25cCHAImeoMQMvE5VTkvv/xyENpQpUSfIa7t7/7u7+KTn/xkuh6ma3ENDMKln//857Fw4cL44he/GF/60pfSdV5wwQXx3e9+N4VUXOuECRPS9v5DgTwKUOH22GOPRePGjdMqWkyFdCiggAIKKKCAAgrUrIABT816ezYFaqUAIc29994b9evXj127dqVwg0qV6667rny5Y4Kfl156KYUmTLWinw6BDV9POeWU1J+GFbmYzsRx6LtDTxsCEqZFMZWq4uAvgyNGjAjCkqyHD+8x1YspW6+88kqaikUYs2zZsrQdU7Gybamk4RpYveedd95JK4Kddtpp5adhufcrr7wyVRvxJiEPjaRpIs3x6PXDFDPuec6cOXHppZemvjr0C8oGFT1/+MMf0l9cL7744vSVz+j9M3z48HTO1157zYAnA/NrLgX480SVXYsWLdKfaQOeXP4aeNMKKKCAAgoocJwFDHiO8wPw9ArUBgECjauuuiratm2bKlqmTJmSqmaYdkQowiCoYToVVTNU6lD5kg166FCNQxhCWMJ0K6ZFPfvss/HXf/3XQejC9CfCnMIqHsKc3r17lwc2HI8GrUwL4yvBE+clKOJahgwZcsC2HIsQh+0JaJiylQU8bN+jrJdPr169sstMwRUBD9PAOC7n+PjHP54CIv5yyv2dccYZcckll8SAAQPSVC6qmwi3OB4VO5kHFUJMM+MrfYkcBxdgKt/tt9+ezA++pZ8WowDTN5liSRUeUyGZkulQQAEFFFBAAQXyLEBbCP6OUpPDgKcmtT2XArVUgL+YnXnmmSlAIYShQobpFjRTZuoS4Qb/giLE4TOmYREGFQ5677D6FqENn//93/99Ogb9eviLPdO/6JHzhS98oXw3whKaLxcOKmo4Bl+pBiLEYXpY9n7htnzP+0zXoncQ22eD9wl/Chu/8h4NpBkEM9wXYdS//du/pZCHxs+33HJLCqa+/OUvp6km3DP7UYFU2I+IY3CfVCth5qhcgEbUuFE1xTQ3LB2lJ8CfJ6Zb8ueVKYs+59J7xt6RAgoooIACChy5AP+huCaHAU9NansuBWqpAH8Zo+cM4Qd/Ib/iiivSf4GfPHly6nFDlQufEwTRSJnpW1S6VByEKRyD4IbpSwQ+TLeaWtZMmR45v//972PcuHHlK3QR3CxYsOCAw/CXRKpmCFZYipzz0uuHyiCqBCoO3melLsKawqlVbFdYLZTtV/E9wiSuiWbOTNGiCTMNmLmOj33sY6mhMvtyX9/61rc+dEyOl00Zy87h1z8LEBzyf9ho2s0zdSiggAIKKKCAAgookCcB/m6UreBb3fdtwFPdwh5fgSITIKRhehW9a/71X/81LWXOz1TD9O/fP5i+RUNVQqCsETHVPUzdooKGShqaFBOc0J+HcIYAhCldBDFMa8qWYCfgYSoHU6Oynh3r1q1LjZzZn+lWVOdwXv7FOG3atNTzhp8ZhDBUhRAeVFZhcyh6rpvwgV4+9NQhUCLEYsl0eoow5Yz77tevX3Bd9Pkh9MkG90tTaHr5OCoXwJPgjECQKg+HAgoooIACCiiggAJ5EuA/CLdu3bpGbtmAp0aYPYkCxSVAo1QqL+ih8+KLL6YGzKx0NXbs2BS+/Od//mcKV/iZf2FRhbOkrP/NJz7xiVTxQz8b9mMVLsIdmhC//fbbKYShqicb/IWfBsrf//73UwNlwiGmdzA9jN48l112WQp2su+ZMvZf/+t/DZodE8YQDHEtBC2s2EWYdCSD3kG/+MUvUiDFFDOqgGbPnp2CHUIkwh2ukVW46L/zD//wD2kJ9R5lvX1Y0Ysm0Fw/K5A5qhbg/6DV1P9Rq/oq/KQ6BZhfznRM+lqdf/755YFtdZ7TYyuggAIKKKCAAgocKGDAc6CHPymQW4HCqUtM2SJUoYqH3ilMWxo/fnyq7Pn2t7+dlg1n1S2qeRiEIKykRcDCcZg2RbUNr2xFLYIdlhmn2oUVthhM92J5dJop/8u//Et6j6oeminTnJl9OB7HZUUvqosIU6jaocKHKT+EMP/tv/23FC5R5cNgH14H6wOSbcO1PPLII2nVLranaocSyr/5m79JFUrcGxUoVPrcdtttcfPNN6fpWlT/EEix9LpDgbwL0Aj9oYceSqtoUfGXVeTl3cX7V0ABBRRQQAEFalLAgKcmtT2XArVMgLCFihiCEnrQFA7+S/w555yTKmUITghbCFNY0pxlz+mHw7QlQhemYjHFiW34mR49TGsiuNm4cWNqyMxf+HjxeRbwMMWLJdcnTpyYpkSxLcdhChcBUxbQEBJxfTfccEM6/9q1a9OUsPbt26eqID6j6igb3Nc999xT3j8ne597YmoZU7+4B6qLrr322jjrrLNi1apVKdzhXrgPrp/BNXAewilCLu5p/fr1qSKFbbt165Yd3q8K5FaAP4PXXHNNCl75M+xQQAEFFFBAAQUUqHkBA56aN/eMCtQaAQIOKm+qGvRPoQFx4aDZMP+FnmbMBDUEIPTJycIYtmX6FD1xqOThRZBDsFPZIHRhJSuqdtiWypzCY2X7EPLQRJljsx39dzgv71cc3BehUcXBtj3KplfxygahEz8TcmXHZKpW4eB6qCJi5TDOzbbZPVEJ5FAg7wL8GeLPCH9W+DPtUEABBRRQQAEFFKh5gQ//zajmr8EzKqBAEQoQllRc4rzwNgg+CEF4HWqwLaFKxWClsv2O5LiV7V/ZexyTsIjXwUZ1nPtg5/MzBYpFgAC3qhC3WO7B61RAAQUUUEABBYpdoG6x34DXr4ACCiiggAIKKKCAAgoooIACCuRdwAqevP8GeP8KHAcBqn969eqVVtuhF45DAQWKW+Ctt96KyZMnpymW5513XvQomAZZ3Hfm1SuggAIKKKCAAsUjYMBTPM/KK1WgZASYCjVq1KjUSLlNmzYlc1/eiAJ5FViyZEk8+OCDaWU8+noZ8OT1N8H7VkABBRRQQIHjKWDAczz1PbcCORWgEStLpPNyKKBA8Quw6t1nPvMZV9Eq/kfpHSiggAIKKKBAEQsY8BTxw/PSFVBAAQUUqA0CVOxkq2ixip1DAQUUUEABBRRQoOYFDHhq3twzKqCAAgooUFICh7tiXkndtDejgAIKKKCAAgrUMgFX0aplD8TLUSDPAjt27Ijnnnsu/vt//+8xderUQ1K8//77cc8998Szzz57yG3dQAEFFFBAAQUUUEABBRQoZQEreEr56XpvChSZwO7du2PhwoXx0EMPRffu3WPixIlV3gHbzpkzJ374wx9Gv3794vTTTw9W53IooEDNC7CK1lNPPZV68Jx77rnpz2/NX4VnVEABBRRQQAEF8i3g34by/fy9ewVqnQDBzfbt24OvBxv16tWLDh06xJgxY9JqXDRudiigwPERWLp0aTzwwAPRokWLGDJkiAHP8XkMnlUBBRRQQAEFci5gwJPzXwBvX4FiFSDQocrn29/+djRp0iQMeIr1SXrdpSDQs2fPuPLKK1MFT8eOHUvhlrwHBRRQQAEFFFCg6AQMeIrukXnBChwfgT179sSGDRtizZo10ahRo+jSpUv6ml0NFTdr166NdevWpbDlpJNOirZt22YfH/B179696VirV6+OBg0aRNeuXdNfDA/YqOyHffv2BX12VqxYkSoDOnfuHCeccEL5ZlTxtGrVKmjwyti/f3/s2rUrtm3blo7HsT/44IOguoAl2Svunx2I87Ad52ncuHEKjgiMNm3alO6R9xwKKFC1AAFP+/bto06dOtG0adOqN/QTBRRQQAEFFFBAgWoTMOCpNloPrEBpCBDc0F/j7rvvjnnz5qXwhF43ffv2jWuuuSZOPfXU9Pldd92VPmd6FX/JI+C58MIL44orrgiCGAYh0fz58+POO++Mt99+O7Zu3Zo+4y+Hn/3sZ2Pw4MFpO4IawqJ/+7d/i+nTp8eWLVuCpZeHDRsWX/7yl9Ox2XD58uXxd3/3dzFy5MhUybNz5860/a9//es488wzU2hD02aCGvYfPnx4XH/99Wk5Z/bnPARId9xxR0ybNi02b96c+vhw7eeff348+OCDcfbZZ8d1113H5g4FFKhCwFW0qoDxbQUUUEABBRRQoAYFDHhqENtTKVBsAlTavPrqq3HjjTfGO++8k5oZDx06NKi8WbJkSap4ocHxyy+/HI8//ngKYAYMGJAqZp5//vkU0vTo0SNOO+204FiEOt///vfT1z59+qTtqQiiwoawJgt4CGT+8z//M9q0aRODBg1KIQxBDQFT8+bN45vf/GYKZwhkpkyZkqqAsOUcq1atikceeSTefPPNtD/H3LhxYwpw2J8eId/4xjfSo+A8N998c/z2t79NlTpnnXVWqj6aNWtWat5MRU+nTp2K7bF5vQoooIACCiiggAIKKJBDAQOeHD50b1mBwxV49913U+XO3Llz49JLL42rr746WrdunSpvCFcIP5gydcopp8T3vve91FyVShnCmttuuy0tdf7CCy+kgIcgh8qd1157LS655JL43Oc+lwIYplMxPaqwbweVOCyZfu2118b48ePT+aje+Yd/+Id44okn4oYbbiivCqrsXqg64vrozzNu3LjUtHnUqFFp+XVW6Pra176WduO+uCZCox/84AdB6ET1ERVL3/nOdyo7tO8poEAlAoS3Tz/9dJrieM4559hkuRIj31JAAQUUUEABBapbwICnuoU9vgJFLLBy5cq09HHv3r3TNCUCkIqD/jWsmsOLcIQghz44ND5muhZVMAymXFHlQ7+dv/qrv0rVQBWPRSjDYAoY57z44otT+MJUKqZ33XTTTal3DxU5VPdUNdi/V69eaf9mzZqlah966vzrv/5ruj72p48Q4RPTv5geNmHChPLQiH2YovWb3/ymqlP4vgIKFAhQ0Xf//fenCjmq7miA7lBAAQUUUEABBRSoWQEDnpr19mwKFI0AVTCENYQhEydOTIFJZRdPqEMfmz/+8Y/BtCwaMRPUsC/hD5U4hDNZA2b65RDeHGzQpJWKHSprGJyD0IXQhnPRu+dgAQ9Nkem3wz6F+9M3iKokQh0CH6ZsEfSMHTu2PNxhe94744wzDHiSnv9Q4NAC9NG6/PLLUwUPPawcCiiggAIKKKCAAjUvYMBT8+aeUYGiECCUIQjJwpWqliFftmxZqqyhSTGBCtO1unXrlgKd22+/Pd0rvXGy6hy2yZouVwXBtK927dod8DH7sC8BD8HRwQYVPBX35/rpv0NFEdfDi2Nxf4Urc3Fc3iPkcSigwOEJEPB8+tOfLv/3xeHt5VYKKKCAAgoooIACx1LAgOdYanosBUpIgNCDShr64axfvz4FIhWDGUKSxYsXxx/+8IfUv4Y+PCxFznY0Os4GgQvhDFVBLKNOeMR7VQ0CloqBEu/xOtxRcf+K+3GNVAhxf2+88Uaq2Mm24b6o9HEooMDhCbiK1uE5uZUCCiiggAIKKFCdAnWr8+AeWwEFileAAKZ9+/apkTJNh6nQKRyEIKxClU15omqHqU703iDAmTFjRvnmhClU1NB/h2lRU6dOLf+Mb6jIIWipydGgQYPo379/6hPESlz0DWJkS6ezipdDAQUUUEABBRRQQAEFFCgWgar/E3qx3IHXqYAC1SZAz5vLLrssLSX+4x//OFh1iiAnC3ZGjBiRqmColmFZ8ltvvTWtssWy6Sw1Xji6dOmSpnDQ6PhHP/pRzJ8/P3qULaFOPx0atLKUOn13amrQp+fMM89Mq33Nnj07/umf/inGjBmTegY9+eSTaSWtmroWz6NAsQvw7waCUv5cnX322enfE8V+T16/AgoooIACCihQbAIGPMX2xLxeBWpQgEbGV155ZapyoYnyT3/609THhkCHnhujR48OVsyh98YzzzwTP/nJT1Lg07Zt2zj33HPjd7/7Xfm0Kvrf0ISVvj4PPvhg/OxnP4uWLVumqVhM62IZc0Y2tepg07Gy6VrZNoX7VPysMi62p6powIAB8bd/+7cpwLrjjjvSMs/s36pVq/jUpz4Vv/zlL4NKH4cCChxcgKma/Hnnz/TAgQMNeA7O5acKKKCAAgoooEC1CBjwVAurB1WgNAQIQaji+drXvpaqXVatWpUqbjp06JD+AseqVCyH/vWvfz0uuOCC1MCYqV0sp85KOuecc05QucPgWFT/fOUrX4nx48cHx/rggw/Sdkzd4lj81/+zzjorOnbs+KFl1AmbvvWtb8W2bdvKGyiz389//vO0PeegDwirX7Gcer9+/XirfBAwffOb30zVR0w9Y3C+Sy65JF3X0qVL0wpgnTp1Cu5v4cKF6ZqzbcsP5DcKKPAhAarxqPbjz5SraH2IxzcUUEABBRRQQIEaETDgqRFmT6JA8QoQ2BB6ELrQp4YXoQ6BTTao5qH3Dn10qIDJVqAiHCoc7MNf/ghQOA7bc6zChssci1fFwXann376AW8T2hDQZCMLkQiSKo5sOfTC97lWmj8TODFFbPv27amxNFPQWAGM6zrUku6Fx/N7BfIqwJ91+mxRHUdzdocCCiiggAIKKKBAzQsY8NS8uWdUoCgFCEMOtlIOf7Hjv94fzjjUsQ7nGMdiGyqImJo1YcKEVEF04oknpiqk3//+9/Hss8+mcIfgx6GAAgcXONi/Gw6+p58qoIACCiiggAIKHCsBA55jJelxFFCg6ASo1Ln55pvj0UcfDaaAUQFE6LNgwYJUjcDUNKdoFd1j9YIVUEABBRRQQAEFFMilgAFPLh+7N62AAgi0bt06/vEf//FDGFQY0Sh6+PDhH/rMNxRQ4MMC8+bNS43WmQpJHy36YzkUUEABBRRQQAEFalbAgKdmvT2bAgrUIgGmZLGyl0MBBT6aAKto3XvvvWmVvf79+xvwfDRO91ZAAQUUUEABBY5KwIDnqNjcSQEFFFBAAQUyARqbX3zxxalpOk3UHQoooIACCiiggAI1L2DAU/PmnlEBBRRQQIGSEmAVrauvvjqtosXKdA4FFFBAAQUUUECBmhcw4Kl5c8+ogAIKKKBASQnQe4eXQwEFFFBAAQUUUOD4CdQ9fqf2zAoooIACCiiggAIKKKCAAgoooIACx0LACp5joegxFFBAAQUUyLHA/Pnz49lnn01VPGeeeaZNlnP8u+CtK6CAAgoooMDxEzDgOX72nlkBBRRQQIGSEFi0aFHcc8890bJly+jbt68BT0k8VW9CAQUUUEABBYpNwICn2J6Y16uAAgoooEAtE+jatWtMmjTJVbRq2XPxchRQQAEFFFAgXwIGPPl63t6tAgoooIACx1ygd+/ecc0116RVtJo3b37Mj+8BFVBAAQUUUEABBQ4tYMBzaCO3UOBDAhs3boyZM2fGjh07PvSZbyhQjAL0UNm/f38xXrrXXAsEXEWrFjwEL0EBBRRQQAEFci9gwJP7XwEBjkSgdevW0a9fv+Avww888EBMnjz5SHZ3WwVqrcC6deti7969tfb6vDAFFFBAAQUUUEABBRQ4uIABz8F9/FSBAwS6desWl19+edSvXz8WLlx4wGf+oEAxC/To0SNd/qBBg6JevXrFfCte+3EQeOedd2LatGlpFa0JEyZEly5djsNVeEoFFFBAAQUUUCDfAnXKSvKtyc/374B3f4QCW7ZsiZUrV8amTZuOcE83V6D2C3To0CE6d+6ceqnU/qv1Co+XAP8OnDJlSixevDhdwpo1a2LGjBmxbdu2GDt2bGSB4eDBg2P8+PHRtm3b43WpnlcBBRRQQAEFFMiNgBU8uXnU3uixEmjatGmapnWsjudxFFBAgWITaNKkSepD9tvf/rb80gm/t2/fHsuWLYvGjRun97/zne/Exz72sfJt/EYBBRRQQAEFFFCg+gQMeKrP1iMroIACCihQkgItW7aMgQMHpiCHQKdwEPTw4vO+ffsGobhDAQUUUEABBRRQoPoF6lb/KTyDAgoooIACCpSawKRJk2L06NFV3tYFF1yQpmtVuYEfKKCAAgoooIACChxTAQOeY8rpwRRQQAEFFMiHQPfu3WPixIlB8/mKg+odmi2fdNJJFT/yZwUUUEABBRRQQIFqEjDgqSZYD6uAAgoooECpC1x00UVx2mmnfeg2P/7xj8eYMWM+9L5vKKCAAgoooIACClSfgAFP9dl6ZAUUUEABBUpaoLIqngEDBsQZZ5xh9U5JP3lvTgEFFFBAAQVqo4ABT218Kl6TAgoooIACRSJw4YUXHlDFw89W7xTJw/MyFVBAAQUUUKCkBFxFq6QepzejgAIKKKBAzQr06NEj9eJ54YUXguXTrd6pWX/PpoACCiiggAIKZAIGPJmEXxVQQAEFFFDgqASo2pk6dWp07drV6p2jEnQnBRRQQAEFFFDgowsY8Hx0Q4+ggAIKKKBArgWo4rnyyiujXbt29t7J9W+CN6+AAgoooIACx1Ogzv6ycTwvwHMroIACCihwLAQWLlwYc+fOjZ07dx6Lw3mMIxR4//33o379+tGsWbMj3NPNj5VA06ZNgyXqqaRyKKCAAgoooED+BKzgyd8z944VUECBkhSYMWNG3HrrrbFx48aSvD9vSoFDCXTr1i2+9KUvGfAcCsrPFVBAAQUUKFEBA54SfbDelgIKKJA3gTVr1sScOXOiQYMG0bt372jYsGHeCLzfnAps3bo1FixYEHxdv359ThW8bQUUUEABBRQw4PF3QAEFFFCgpASGDh0aX/nKV6JNmzYldV/ejAJVCSxatChuueWWWLlyZVWb+L4CCiiggAIK5EDAgCcHD9lbVEABBfIkQKPfESNGRMeOHfN0295rjgXoe9SqVSsDnhz/DnjrCiiggAIKIFBXBgUUUEABBRRQQAEFFFBAAQUUUECB4hYw4Cnu5+fVK6CAAgoooIACCiiggAIKKKCAAlbw+DuggAIKKKCAAgoooIACCiiggAIKFLuAFTzF/gS9fgUUUEABBRRQQAEFFFBAAQUUyL2AAU/ufwUEUEABBRRQQAEFFFBAAQUUUECBYhcw4Cn2J+j1K6CAAgoooIACCiiggAIKKKBA7gUMeHL/KyCAAgoooIACCiiggAIKKKCAAgoUu4ABT7E/Qa9fAQUUUEABBRRQQAEFFFBAAQVyL2DAk/tfAQEUUEABBRRQQAEFFFBAAQUUUKDYBQx4iv0Jev0KKKCAAgoooIACCiiggAIKKJB7AQOe3P8KCKCAAgoooIACCiiggAIKKKCAAsUuYMBT7E/Q61dAAQUUUEABBRRQQAEFFFBAgdwLGPDk/ldAAAUUUEABBRRQQAEFFFBAAQUUKHYBA55if4JevwIKKKCAAgoooIACCiiggAIK5F7AgCf3vwICKKCAAgoooIACCiiggAIKKKBAsQvUL/Yb8PoVUEABBRQoFYE9e/YEr7p160b9+vXT14Pd25Fuf7BjHc5n69evjzfeeCNatmwZAwYMiEaNGh3Obh95m/fffz/mzJkTDRs2jEGDBkWTJk0+8jE9gAIKKKCAAgooUGoCBjyl9kS9HwUUUECBohV4+OGHY+bMmdG4ceO4+uqro2/fvlXeC+HOPffcE7Nnz46BAwfGhRdeGJ07d65y+2PxwUsvvRT/9//+3+jdu3d8+ctfPuj1HYvzZccgVPqP//iPaNWqVVx//fUxePDg7CO/KqCAAgoooIACCvx/AQMefxUUUEABBRSoJQLPPvts/PKXv4z9+/dH165do1OnTnHiiSdWenVz586N22+/PZ5++um46KKLYvTo0dUe8BA8tW7dOlq0aBEnnHBCuq4tW7bE888/Hxs2bIgxY8ZEjx49Kr3ej/ImlUKEO1QONWjQ4KMcyn0VUEABBRRQQIGSFTDgKdlH640poIACChSbAMEOY9OmTfHEE0/E6aefnqZCVbwPtuNzQp59+/ZV/Ljafh46dGgKd5o1a5bCJ05EsPP73/8+Vq1alQKm6gh4Tj755FS5Q7jTvXv3ars/D6yAAgoooIACChSzgAFPMT89r10BBRRQoCQFqFRhqhZ9Z3r27Jl6zxTe6LJly2LatGmpXw9VNVWNXbt2BX1zNm/enCqB2rRp86G+OTt37gxeVMlQlbNx48YU2nDctm3bHlAxQ+8bpmfRH4htd+zYEWvXro1333037cd5Pvjgg3Qs+uVkY+/evSm0WrduXdSrVy/atWuXrodeQ9lgyhnH43P2pTKIoKt58+ap5w4ObJ9VDnFvXDc/Z9tzfK6N41fWHyi7DkIp7o/tCMs4Vnac7Hr8qoACCiiggAIKFJuAAU+xPTGvVwEFFFCg5AVOO+20mDdvXkydOjVGjhz5oaqVJ598Mt58880YMmRILFq06EMeBB8vvPBCPPPMM7F48eLYunVrCjSofjn33HNj+PDh5Y2Kp0yZks4zduzYtB3BEqENAQnv0dunS5cu6RxvvfVWPPLIIyl04jgc/8EHHwzeJ5z5+c9/Hn/84x/jE5/4RJx99tlRp06deOedd2Ly5MkprKJZMiFN+/btU3XSxIkT0/ccnO3Yl3CLUOfll19OYdEnP/nJ6NatWzov08O4HvanHxDX0r9//7Q917J69eoU8AwbNiwmTZp0QI8gQiiqnmbNmpXCKO6PiqSmTZvGggULYvz48WmfD2H6hgIKKKCAAgooUCQCBjxF8qC8TAUUUECB/Aicd955KRwhkKC/DgELlS0Mwhf67hCU0HeHKpfCwZStRx99NG655ZYUmhDqUImzdOnSFOS8+OKL8bd/+7cxbty4VLVCk+Zf/epX6TP63FANQxXO66+/nqqEmBb1qU99KlXcLFmyJO67774ggOJFxczy5ctTMEQFDtO0CHqoAqIyhhDq1ltvjcceeyxN7erTp09s27YtHnrooXQPVNJcccUV6fqoSnrggQdStRFBDseh1w/bcK98xr0wbY2A5+23345f//rXaZts2haVODRkxmf37t2pETTHWLlyZdx1112pvxE+p5xySrrG3/3udykUwpT7JBRyKKCAAgoooIACxSpgwFOsT87rVkABBRQoWQGmI1FR8uqrr6YGxlSadOjQId3vc889l8IXAhqWDJ9aVuVTOKj8IfggALnqqqtSxQuBCSHGb3/72xSu3HvvvamJM9OtskEAdP7556eQY/v27SkQIVTh+FTyUClTcVDFQ4By8803p6Dp85//fKqKIXBhuhb7U+HD/p/97GfT9C6CG45JqHTbbbelaiDOm42FCxemVcEIlZhSRk8f3qtqvPfee3HWWWeleyVU+sMf/hB333130LD6nHPOSddDVdIdd9yRrvVLX/pSjBo1KpiuRQUQTa0JhhwKKKCAAgoooECxCxjwFPsT9PoVUEABBUpOgIoVpiIxZYnqFwIQqlboS/P444+nihmmQGVTpwoBWNGKKpYzzjgjPve5zx3QpJnpT/Pnz0+VOZdddlkKXLJ9R4wYEZdccknwlUGlzSuvvBJU7RAOVRbwEL4QjhAgMQicCHMY7Eu1ENVD11xzTbqfrAqJAIgpUwRRXCv3kg2ukWCG68u2P1jAwxLxl156aarsyY5BMEbVzooVK6JXr17pWuhFRGj06U9/Ok3LYltWKMODSh6HAgoooIACCihQ7AJ/7m5Y7Hfi9SuggAIKKFBCAqwcxTQopkDRb4apWHylNw1TjHhV1mCZMIQwg32zqUsZC8cklCFcYXpV4aAvT+H2VBFRNUT/HqpujnQw5YrqGvoEDRgwoDys4ThU5hAY0bSZbaj2yQaBDJVFWbiTvV/VV45DyJONzp07p549VCERUmFB0ENARgBFz51s0NsHE5dez0T8qoACCiiggALFLGDAU8xPz2tXQAEFFChZAXrhXHzxxdGxY8dUtUOlycMPP5x6xlDRQ1BT2SAIoskyS5lXXEmKlaIIheiXw6twEIDQ3DgbVNIQwNCzhqlPRzqoNiJkIVCpLIji2LzPtfLKBvebTUfL3jvYV6qHsgoituO+eXHNXDvXQYCEZ0UPfq7s2g52Pj9TQAEFFFBAAQVqq4ABT219Ml6XAgoooEDuBVhBi8oamhXTy4b+OwQ7vFcYxhRCEW4QZrBiFQFL4aASh8CDbQhYCgfTwlj1KhsVf87eP9jXwiCI4xOg0LCZc1YcBFHZtTBVKhsELhWDmOyzyr5ynbyywT0U3gehFhU6TDOjWqhw4MF12IOnUMXvFVBAAQUUUKBYBf78v4iK9Q68bgUUUEABBUpUgBCHah2qYGgczJLnF1xwwQG9cyreer9+/VLfm2nTpqVVtApDF6Z3sSQ406COpEqm4jkKfyY8qV+/fqqSKQyUmOLVqVOn1CiaFbkKQxSmiBFaEcQwTapw2lThsY/F9/QAojqJnjw0niZwygZVUVybQwEFFFBAAQUUKAUBmyyXwlP0HhRQQAEFSlZgwoQJqd8OFTx9+/aNMWPGHDAlqeKNs7oWq26xctS///u/p0CoXbt2aWoXS5zTj+YLX/hCOlbFfY/mZ/rpcHyqi6ZMmZKmRdFzp0dZpRENl2mifPvtt6d+OFw/IRCraE2ePDk1dGZFq8IKnKO5hoPtw9Lvp556apx00knx1FNPpcbUw4YNS4EUDatnzJhxsN39TAEFFFBAAQUUKBoBA56ieVReqAIKKKBAHgWoPmEZ8FmzZqVqHpoKHywQ6dOnT3zxi19MPWgIMFjJihBmzZo1aWlwVsr65Cc/mapa8MymNGVfD2Zc2TZM96KhMwFPtqz6DTfcEJ/5zGfSSlj0v3nooYfihz/8Yarood9OtirXddddl5ocF15HZecvPC/fH2r7wmMwRWvixInBMvB33nln/O///b9TBRPLpBP+UM1EVc/hNnUuPLbfK6CAAgoooIACtUnAgKc2PQ2vRQEFFFAg1wIf//jHUwhSuCoUIOedd14Kdei9Q+CTDaZAEZLQt4YKFQbhD8uME+pQncJqVkyPolKG6VtUBLFaVhaU8DM9b0aPHn1AcERfnCuvvDI2bNhQPiWMypzrr78+XSPhSDYIoDgG0512796dQhOOz3185StfSRVIc+fOTUEK/YFY3p3qHlbYyvrtUN3zpS99KYUuXHvhYFUt7pMpa9lnLOf+ne98J62MVRjOYIEjx2OlMQbVRNdee20wbWzOnDnpGqk6otKJqWxM1aqqp1Hhdfi9AgoooIACCihQmwXqlM3NP/KlMWrzHXltCiiggAK5FPjxj38cP/jBD2LSpElx4403ptWncglRcNPZKlIEPPS5IVzJgp2CzY7Jt/zPCZomc3waLFesMqKhMUuu07OH8Kji58fkIg5xkOwaCaHwYLoavysEYd/97nfj6quvPsQRaufH9DP63ve+l8Ir7oMwy6GAAgoooIAC+ROwgid/z9w7VkABBRTIiQAhSk1VphDsMF2rqkGlTlatU9U21fX+woUL0xStrl27Bi+uY/ny5XHvvfemCp7BgwcHL4cCCiiggAIKKFDMAgY8xfz0vHYFFFBAAQUUOKQAjZ5vu+22VLXD9DCCL6p3WFWMaqJPfOITQW8jhwIKKKCAAgooUMwCBjzF/PS8dgUUUEABBRQ4pAC9d+hfxFSm6dOnB42eW7RoEePHj4+zzz47NbFm+ppDAQUUUEABBRQoZgEDnmJ+el67AgoooIACChxSgGbONJZeuXJlemUBD9O1aFTNSlsOBRRQQAEFFFCg2AUMeIr9CXr9CiiggAIKKHBQAaZktWzZMr1OPvnkg27rhwoooIACCiigQLEK1C3WC/e6FVBAAQUUUEABBRRQQAEFFFBAAQX+JGDA42+CAgoooIACCiiggAIKKKCAAgooUOQCTtEq8gfo5SuggAIKKFBRYNeuXbFnz55o0KBB1K9fO/5PPdf0zjvvpEvt1atXNG7cuOJl+7MCCiiggAIKKKDARxCwgucj4LmrAgoooIACtVFgypQp8Ytf/CIWLlxYay5v9erVcffdd8dvfvObWL58ea25Li9EAQUUUEABBRQoFQEDnlJ5kt6HAgoooIAC/19g2rRpcfvtt8eiRYtqjUm9evWiXbt26eWqVbXmsXghCiiggAIKKFBCArWjbruEQL0VBRRQQAEFFPiwQMeOHePqq6+ObEWrD2/hOwoooIACCiiggAIfRcCA56Poua8CCiiggAJFKrB27dp48803Y8mSJbF79+5o1apVDB06NHr06BFZhc2+ffti/vz5abv3338/WrRoEb17945Nmzal7QcMGBCNGjUKtluwYEG88cYbwXbNmjVL223ZsiXtw3b79+9PU8bq1KkTLFXONmy/bt26aNu2baxZsyaWLl2aegZxHexDDyEG/XvmzZuXrmPbtm1p+5NOOik4Pl8HDRpUpE/By1ZAAQUUUEABBY6dgAHPsbP0SAoooIACChSFAL157rvvvpg+fXoKT5g+RWjTv3//+MIXvhCjRo1K4crMmTPTVC9CHkIfGje3bNky1q9fHxdeeGF07tw5BTyzZs1K282dO7d8O8KgjRs3xsc+9rG0Hfv+7ne/SxU87du3TwHP5MmT4/HHH0/TtrZv3x7vvfdefPDBB+n8119/fYwePTp27twZzzzzTNx2222xYsWK1JyZsIjr2bx5c1x55ZUGPEXxW+dFKqCAAgoooEB1CxjwVLewx1dAAQUUUKAWCVABc++996Zmx6eddlqcd9550aRJk5gxY0bcf//9qYKGAKZp06Zxxx13BCEPYc6IESNi1apVaV8CnZEjR6bAh1Dmrrvuiueffz7OP//8FMrQUJkAiX2HDBmSKoQIeNifKVqENgy2o1/Q8OHD0zk6dOgQTz/9dEydOjVV8LAvlUG/+tWvUiXRZZddlt5nNa7f//738fLLL8dZZ51Vi3S9FAUUUEABBRRQ4PgJGPAcP3vPrIACCiigQI0LLFu2LFXEMCXr2muvjQkTJgTTpqjaYbrWc889F5dcckl6jwBl2LBh8Zd/+ZfRr1+/2Lt3bwpoqKTJxmuvvRYvvfRSnHLKKWm7gQMHpu2osDmc1bKoHrrgggvi61//eqrqIVxiOhbXSQUQ18DroosuCqp62rRpE1u3bi2fFpZdh18VUEABBRRQQIG8C7iKVt5/A7x/BRRQQIFcCRDiMMWKqhn67RDuMOhl07dv3zRVi88XL16cAhaCG6ZiMQhjBg8eHF27dk0/8w/65mzYsCG9361bt/Q+29Fnp3v37uXbVfUNx2ZqGD15GF26dIlOnToFlUa8CJPoEcQ2rVu3TtuceOKJ6Vqz60pv+g8FFFBAAQUUUCDnAgY8Of8F8PYVUEABBfIlwPQopksxBathw4blN0/Q07hx41ShQ9NkeuIQrLAdjZSzQf+bwsF2NEE+1HaF+xR+T0+fLNzhfY7DlDHOk11H/fr10/tZGFW4v98roIACCiiggAIK/EnAgMffBAUUUEABBXIkwIpVhChMg6IHTjaY9sS0KMIcGiQTutAvhwoaGh9ng/0Kp2hxLCp2eI8VtLJBn5zDmaLF9hWDm+xnvlKtw7XRv4fAiUFIRYXRypUr08/+QwEFFFBAAQUUUCDCHjz+FiiggAIKKFCCAjt27AhWtaJnTTaaN28eHTt2TI2K6bXz2GOPpdWyqNx58cUXY/bs2amXDkuht2vXLk2XYgUrpmnRVJlA6KmnnkphS3ZMpmIxNYvjsbw5K1+xBPuTTz55QBCUbX8kXwl46P1DKJU1Y+7Vq1cKp7guevQ4FFBAAQUUUEABBf4kYMDjb4ICCiiggAIlJkAwQvjB6lYELdkggPnc5z6Xlhanz84DDzwQr7/+epoSxWpV9Lj57Gc/m/rbMI2LZsssT/7Tn/40vbdly5ZUzUNoRHUP56EnD9v98pe/jJ/97GfB0uf0zuH4hERsx+toByt9sXoWK3zdeOON0bNnz9QniKoiwiqqhxwKKKCAAgoooIACVvD4O6CAAgoooEDJCYwfPz4FHwQthYOmx1TrTJw4MYU6zz77bJqWxTZnnnlmelGpwzaMq666KoU+r7zySurbQ5hD3x7CFaZOsR1TuT71qU8FvXSoAGIaVY+y5s18xtSqbDumfk2aNCmFPVlVESt40bCZ0CYbrO7Filn03eGYWejE6lpz5sxJmxH6UNnzxBNPpONn+/pVAQUUUEABBRTIs4AVPHl++t67AgoooEBJCpx//vnB62Bj3LhxMXbs2Ni8eXOqxKGxMaFKNmhy3KFDh1Txc8UVV6Smxw0aNEiVOlTy8BnhDdsRvlD5c/nll6fGyGz361//OlXasB19ejj21VdfnR0+fSXwqTiYjnXNNdeUv83S7EzLYol0AiMGzZepKuIrVUIOBRRQQAEFFFBAASt4/B1QQAEFFFAgtwJMnaKhcmWDKh367TDViwobKnJobMxUKQKdgQMHptCG7Z5++uk0JYvtCIpYip3tqL6hR09hcFTZuQ72Hs2bX3jhhdRYmV4/HOu1116LRx55JC3DTn8ghwIKKKCAAgoooIABj78DCiiggAIKKFCJACtVzZw5M55//vk0DYupWRs2bEhVO1TYZMEK29GgmabHVOowFYvVtAiErr322hg2bFglRz/8twiQaLD86quvBk2i6blDf59s6hZBk0MBBRRQQAEFFFDAgMffAQUUUEABBRSoRID+N1deeWWqwFm6dGnqwcP0KXr0nHrqqSn0YTcqgJia1bdv39TPhx48bDd8+PC0qhahzEcZ9A2iF9CQIUPSsuhM2aK58qhRo9J7BE8OBRRQQAEFFFBAAQMefwcUUEABBRRQoBIBghNCFF4HG2w3YsSI9DrYdkf7GQES/YJ4ORRQQAEFFFBAAQWqFjj6dUurPqafKKCAAgoooIACCiiggAIKKKCAAgrUoMCfl8uowZN6KgUUUEABBRQ4/gJ79uyJWbNmBdOeWAKdJcorG/TZYVtWxzrhhBMq2yS9xza7du1KjZDZrk6dOlVue7QfsIIXU8bo8cP0LXryOBRQQAEFFFBAAQUirODxt0ABBRRQQIGcChDG3HPPPXHHHXfEqlWrKlVgKfInnngifvSjH8XUqVODgKWywXLpzz33XNx0000xefLkoDnykQyuhf49hxoLFiyIX/ziF/GHP/whLcN+qO39XAEFFFBAAQUUyIuAAU9enrT3qYACCiigQAUBwpt169bF2rVrU+VNhY/Tj1T3EKb8z//5P+Pf//3f45133qlssxQQ/eY3v4n/8T/+R9qelbQOd7z11ltx3333xZw5cw65C0u7n3jiiamCh1DJoYACCiiggAIKKPAnAQMefxMUUEABBRRQ4LAEZsyYEa+88kowZavi4LOXX365yqCo4vaFP0+fPj2FRyyFfqjBsug33HBDfOpTn0pLpR9qez9XQAEFFFBAAQXyImAPnrw8ae9TAQUUUKAoBdavXx/Lly9PS5AzjalLly7Rr1+/YBlzqlnee++9mDdvXnTu3DlNn1q4cGEKWbp16xaDBg1K22U3vnLlypg7d27ah9Wv2GbHjh3Zxwf9etJJJ6Vg5/nnn48JEyZEnz59yrenWmfatGmxefPmSkMXqoQ474oVK1Jfnp49e0b//v1TPx/eJxhas2ZNEPA88sgjMWDAgLT8+vz586NJkyappw9Ts7j3Tp06xZIlS9LnGGQ9eDgH23MOqo7at28fhEEsqc70M6qDOEf9+vWjR48e5ecovwm/UUABBRRQQAEFilzAgKfIH6CXr4ACCihQugJMoXrggQfihRdeiI0bN6YX05MuueSSuPjii6Ndu3YpuPjZz36Wgo+tW7emMIgpVx06dIjrr78+zj333GjatGkQkNBvh2oZgiKOTVhCwELYcqjBNgRKs2fPTi9CmixcIaB57bXXUqPm1atXH3Aowqn7778/Hn/88dSXh/CFa7vqqqvS0urPPPNMEBoRvjz77LMpfLrmmmtSMHPLLbeksIYg54033ogLL7wwhg8fHnfddVcKb7gGmi0vXrw4OREy0SOIe2Ofz33uczFkyJB03/QHyppA894Xv/jFGDp06AHX6g8KKKCAAgoooEAxCzhFq5ifnteugAIKKFDSAvSYIfigGuWyyy5L05I2bNgQd999dyxatCjd+6ZNm1J4Q+ULK1ddccUVKQihkud3v/tdCnyo0rn33nvTfoQrBB+f/OQng2O9++67h2VIsDRx4sS0khaBE9fFIFQipKFB8ujRo1PolB2QqVwPP/xw/PrXv45GjRrF1Vdfna6PAOpXv/pVcI0ENgQuBDIELoQ4vXr1SscluJkyZUoKbS666KIUCHEeKngIkghyaOZMCEb/H6p9OMe1114b48aNS9VETB3j3tu2bRtf+MIX4jOf+Uw6D/fjUEABBRRQQAEFSknACp5SepreiwIKKKBASQlQMfMXf/EXKVSh+oSpUCxr/tRTT6VpRwQc2WCZ869+9aspvGBaFxU7TN0iCKHShuqY1q1bp8qV8ePHl0+VyoKa7DgH+zpq1Kh0vJdeeilef/31YNoWU5+o4CGc4cX1ZYMpYay8RVBFoHTmmWemihzO+dvf/jYtd/6Vr3wl3nzzzdS8malfhE8MQiMGU6wuv/zyFPzwM/dROJiW9fTTT0fXrl3j29/+dgqM+Dyz4TqZOsb0LgIqAi6HAgoooIACCihQigIGPKX4VL0nBRRQQIGSEKBahWoXpjCxehVBxdtvv51WvqJyJwsxuFnCF0IMRps2bdL0K0Ieqmio9iH0GTt2bOq7U6dOnbTdsGHD0s/ph8P4B8c944wz4sUXX0wvAh3CFSqBPvvZz5afPzvUsmXL0pQrqnwee+yx8vCHQIewihdTtg42mBrWt2/fKjehmocg6dJLL02VQNmGhGMM+vD07t07LfWO1+mnn55CIHoWORRQQAEFFFBAgVISMOAppafpvSiggAIKlJQAYc5PfvKTVI1DhQpNkZmSRHBDVUzhMuFM46LXTjZatGiRpmwRamzfvj313aGCp3BqEiEIYU/hcbL9q/rK1CemgzFNi0Bp5syZaUrVqaeemo5VuB9Tw+j3wyBooj8OgybHvKg6OtS5uS9eVY3s3rJAp+J2BF9/8zd/k5ZupyqIF9O9mMpFDx+HAgoooIACCihQKgIGPKXyJL0PBRRQQIGSE6A6hqbINASmrwxNlX/wgx+k9yrebFaVk73Pz9l7zZs3Tz1wli5dmip56EfDyFbUOpJpS4Q6hDy33nprehHcfP7zn09VMllfoOwaCJmaNWuWKor++q//Ok3hyj4j2GElL1a14jqp5Kmsmoe+QmxT1eD4TEGjXw8rihGEFQ4+v+CCC1L/Hvrx0PuHnjwETAY8hVJ+r4ACCiiggALFLlD1/2Iq9jvz+hVQQAEFFChyAapTCEJYKYopWfTUoacN062OZDBFiWCG3jn0sCFYobrm0UcfTcHIkQQ8hDH0ymFVLPZnla6RI0emAKniNXXv3j0FP1wzfYOoMKKKiGlnnJ+l1unjQwDFIKRhKhpB1lj9b+cAACSvSURBVOEOlow/+eST0xLrNHQ+77zz0mpZLJtO/x4qiOhDRKBDM2eWYKcyKqsmOtzzuJ0CCiiggAIKKFDbBQx4avsT8voUUEABBXIrcNppp6VVpFgl6pVXXkk9a5iixTSrrDoHnOz77GtFMIIWpiXddNNNcdttt6VlzqmW4ViEPVXtV/E42Xb0xBkzZkxaupxqnorLrGfbEd5MmjQpTSljiXYaHhO6EPAQuNBQmW0IabhGKpb4jJXAGjRoUOl1ZcfOro1roYHzzTffHHfccUe6N6alEexwHPr8ULHDyly8z3Lrp5xyygH9erJj+VUBBRRQQAEFFChmgXp/XzaK+Qa8dgUUUEABBRBg+s1zzz2XwoJzzjknTQ0qdhkqWVq1apXCCqZCEaScf/756SsNk2kUTCNmpjHRa4YePVkvGhobMxWL96nQIVDhK8EH1StUzdCYmCbEHJeGyVklTUU3tieAoSkzy5lzDqpxOB8rcmVTnVjpi+CI4w0aNCgtW07lENOmCGy4B16dOnVKK2pRUcPy6RyL6Vx8RghDbx724zxsw/GYhsXgfgl52IZqHI7LdfDKQis82I9l25mitXHjxlT1RNUQ+7FUOuHZwaZ+VTSozT+zKhnLyROOUV3Fs3QooIACCiigQP4E6pSVfu/P3217xwoooIACpSbw4x//OPWnoWLkxhtvTJUipXKPTNUiPGGq1kcNJbZt25aClCZNmqTqnZoyIphhFTAGoQshTMXBtRHwcG1ZUFVxm4P9zDkItgiDOEc2CH4IqficEItQqJQGq5J973vfS0vWf/e73039mkrp/rwXBRRQQAEFFDg8AadoHZ6TWymggAIKKHDcBAh2jtUgPOFV04NAh/47Bxsf9bo4BxVGFQeBDxVCDgUUUEABBRRQoJQF6pbyzXlvCiiggAIKKKCAAgoooIACCiigQB4EDHjy8JS9RwUUUEABBRRQQAEFFFBAAQUUKGkBA56SfrzenAIKKKCAAgoooIACCiiggAIK5EHAgCcPT9l7VEABBRRQQAEFFFBAAQUUUECBkhYw4Cnpx+vNKaCAAgoooIACCiiggAIKKKBAHgQMePLwlL1HBRRQQAEFFFBAAQUUUEABBRQoaQEDnpJ+vN6cAgoooIACCiiggAIKKKCAAgrkQcCAJw9P2XtUQAEFFFBAAQUUUEABBRRQQIGSFjDgKenH680poIACCiiggAIKKKCAAgoooEAeBAx48vCUvUcFFFBAAQUUUEABBRRQQAEFFChpAQOekn683pwCCiiggAIKKKCAAgoooIACCuRBwIAnD0/Ze1RAAQUUUEABBRRQQAEFFFBAgZIWMOAp6cfrzSmggAIKKKCAAgoooIACCiigQB4EDHjy8JS9RwUUUEABBRRQQAEFFFBAAQUUKGmB+iV9d96cAgoooEDuBDZs2BCvv/56rFy5Mnf37g3nU2DhwoWxcePGfN68d62AAgoooIAC5QIGPOUUfqOAAgooUMwCbdu2jXbt2sUbb7wRP/zhD6Nhw4bFfDteuwKHLbBly5aYP39+NGvW7LD3cUMFFFBAAQUUKD0BA57Se6bekQIKKJBLgTFjxsSll14aTz75ZLz33nu5NPCm8yvQpk2b6N69e7Rq1Sq/CN65AgoooIACOReos79s5NzA21dAAQUUKBEBqhjmzJkTO3fuLJE78jYUOHwBKngGDRoUPXr0OPyd3FIBBRRQQAEFSkbAgKdkHqU3ooACCiiggAIKKKCAAgoooIACeRVwFa28PnnvWwEFFFBAAQUUUEABBRRQQAEFSkbAgKdkHqU3ooACCiiggAIKKKCAAgoooIACeRUw4Mnrk/e+FVBAAQUUUEABBRRQQAEFFFCgZAQMeErmUXojCiiggAIKKKCAAgoooIACCiiQVwEDnrw+ee9bAQUUUEABBRRQQAEFFFBAAQVKRsCAp2QepTeigAIKKKCAAgoooIACCiiggAJ5FTDgyeuT974VUEABBRRQQAEFFFBAAQUUUKBkBAx4SuZReiMKKKCAAgoooIACCiiggAIKKJBXAQOevD5571sBBRRQQAEFFFBAAQUUUEABBUpGwICnZB6lN6KAAgoooIACCiiggAIKKKCAAnkVMODJ65P3vhVQQAEFFFBAAQUUUEABBRRQoGQEDHhK5lF6IwoooIACCiiggAIKKKCAAgookFcBA568PnnvWwEFFFBAAQUUUEABBRRQQAEFSkbAgKdkHqU3ooACCiiggAIKKKCAAgoooIACeRUw4Mnrk/e+FVBAAQUUUEABBRRQQAEFFFCgZAQMeErmUXojCiiggAIKKKCAAgoooIACCiiQVwEDnrw+ee9bAQUUUEABBRRQQAEFFFBAAQVKRsCAp2QepTeigAIKKKCAAgoooIACCiiggAJ5FTDgyeuT974VUEABBRRQQAEFFFBAAQUUUKBkBAx4SuZReiMKKKCAAgoooIACCiiggAIKKJBXAQOevD5571sBBRRQQAEFFFBAAQUUUEABBUpGwICnZB6lN6KAAgoooIACCiiggAIKKKCAAnkVMODJ65P3vhVQQAEFFFBAAQUUUEABBRRQoGQEDHhK5lF6IwoooIACCiiggAIKKKCAAgookFcBA568PnnvWwEFFFBAAQUUUEABBRRQQAEFSkbAgKdkHqU3ooACCiiggAIKKKCAAgoooIACeRUw4Mnrk/e+FVBAAQUUUEABBRRQQAEFFFCgZAQMeErmUXojCiiggAIKKKCAAgoooIACCiiQVwEDnrw+ee9bAQUUUEABBRRQQAEFFFBAAQVKRsCAp2QepTeigAIKKKCAAgoooIACCiiggAJ5FTDgyeuT974VUEABBRRQQAEFFFBAAQUUUKBkBAx4SuZReiMKKKCAAgoooIACCiiggAIKKJBXAQOevD5571sBBRRQQAEFFFBAAQUUUEABBUpGwICnZB6lN6KAAgoooIACCiiggAIKKKCAAnkVMODJ65P3vhVQQAEFFFBAAQUUUEABBRRQoGQEDHhK5lF6IwoooIACCiiggAIKKKCAAgookFcBA568PnnvWwEFFFBAAQUUUEABBRRQQAEFSkbAgKdkHqU3ooACCiiggAIKKKCAAgoooIACeRUw4Mnrk/e+FVBAAQUUUEABBRRQQAEFFFCgZAQMeErmUXojCiiggAIKKKCAAgoooIACCiiQVwEDnrw+ee9bAQUUUEABBRRQQAEFFFBAAQVKRsCAp2QepTeigAIKKKCAAgoooIACCiiggAJ5FTDgyeuT974VUEABBRRQQAEFFFBAAQUUUKBkBAx4SuZReiMKKKCAAgoooIACCiiggAIKKJBXAQOevD5571sBBRRQQAEFFFBAAQUUUEABBUpGwICnZB6lN6KAAgoooIACCiiggAIKKKCAAnkVMODJ65P3vhVQQAEFFFBAAQUUUEABBRRQoGQEDHhK5lF6IwoooIACCiiggAIKKKCAAgookFcBA568PnnvWwEFFFBAAQUUUEABBRRQQAEFSkbAgKdkHqU3ooACCiiggAIKKKCAAgoooIACeRUw4Mnrk/e+FVBAAQUUUEABBRRQQAEFFFCgZAQMeErmUXojCiiggAIKKKCAAgoooIACCiiQVwEDnrw+ee9bAQUUUEABBRRQQAEFFFBAAQVKRsCAp2QepTeigAIKKKCAAgoooIACCiiggAJ5FTDgyeuT974VUEABBRRQQAEFFFBAAQUUUKBkBAx4SuZReiMKKKCAAgoooIACCiiggAIKKJBXAQOevD5571sBBRRQQAEFFFBAAQUUUEABBUpGwICnZB6lN6KAAgoooIACCiiggAIKKKCAAnkVMODJ65P3vhVQQAEFFFBAAQUUUEABBRRQoGQEDHhK5lF6IwoooIACCiiggAIKKKCAAgookFcBA568PnnvWwEFFFBAAQUUUEABBRRQQAEFSkbAgKdkHqU3ooACCiiggAIKKKCAAgoooIACeRWon9cb975rr8DevXtj165dsWfPnqhfv340bNgw6tY1i6y9T8wrU0ABBRRQQAEFFFBAAQUUON4CtTvg2bM79u/ZFbF//1E71SEYqN8g9tWJ2Lt/Z+wr+39HO8oOEfXqNCoLG+pHnbL/d6hBQLFv35/PV69evRRU1KlT9b5sT8Cxv+ye2Y5ggxfvb9u2LX1t1KhRNGjQIH1+qGsops+5561bt8aqVati+fLl8cEHH0Tnzp2jf//+0bx585K732J6Nl6rAgoooIACCiiggAIKKKBA7Rao1QHPvncXx94Fr0fsLgt54uhCnjonNo+6PQbGppYRK7a+Gtt2byw71p9DlyN5PHXq1I1uLcZGmxP7RP26DQ+6K2HFu+++G2vXrk2BDSFNmzZtUmBBRUplg6qVNWvWpNfu3btT5UqHDh2ibdu2sW7dunj55Zdj8+bNMWjQoOjbt280bty4ssMU7Xvc24wZM2L69OmxYcOGdB+DBw9O99+0adMUdPHmwQKyor15L1wBBRRQQAEFFFBAAQUUUECBjyBQqwOePa9Mix13/jT2b/7gqG+xbqeu0fCK62LVwIjJy34Uq7fMi3379x7V8erUqR+XnPzP0azhSWVFQQ3KjlF1JQ4Bz6xZs2LmzJmxffv2oHqnZ8+eceWVV0aXLl0qPT9h0GOPPRZz5syJnTt3RuvWreOMM86I0047LZYtWxYvvfRSCoyoDOrYsWNJBTxUKL311lvJjMqdVq1apfvv1KlTstu4cWOqYDrxxBOjRYsW6b1KEX1TAQUUUEABBRRQQAEFFFBAgRwK1OqAJ03NKgtKYv/RVdz86Xmy7/6y/1cn/XP/vj1lh91zVI+a6V4c6XArgAh5shehDNU5VKacdFJZQFTWW6ZwMC1r/fr1aXrSjh070kfZvvxAsEElD0ER4UfF/QuPVYzfE2hx/1TxNGvWLM4666wYNWpUCrFWrlwZkydPTsHXiBEj4txzz00exXifXrMCCiiggAIKKKCAAgoooIAC1SFwYMpQHWfwmEmAaUWEGG+//Xaq4KE6p3Bs2rQpFi9enKp9TjjhhDStK/ucfXv37p1CDaZxtWvXLvWkyT7nKxUwhYEQ+2QvPs8+y5oVsz2Dn9mOwTbZcdIbZf/IPs+2yd7Pjpd95f3Kts0+z75mx8m2ZT8+o8qJF0EXNtxj1meIYGzhwoUpAGLqGtvwKjwGx3EooIACCiiggAIKKKCAAgookFcBA55qfvIEGlTb0EOGJsnz5s2LkSNHpiqcLOwgVKHHzvz581Nw0b59+/IeNNnlUQFE9U4W/rAPPxOOEBwREFH9wvd8xjmZykS1D2EIU5yoDOJn9mF7whLOxXZsw9QoXhyDnzk+fX5atmyZrj+rGuL43AvH3LJlS1rtim2pMqLPUJMmTdJlc800TeZchDf8TChDcMM5aZzMflw3jZXZjmNzfkIdtuNzvifYYrAN09U4F0EQx3EooIACCiiggAIKKKCAAgookHcBA54a+A2gqfKQIUNi7ty5KfBgyhG9ZbImyQQvBBwEHQQwPXr0SP1oCFmyQXXP008/nQIYpimNGzcuBS8ELIsWLYpXX301VQDxMwEOYQzNmCdMmJDCGBoXr1ixIoYNG5aCFq6FsOSyyy6LoUOHpvPT44f3uQ6CFsIYwh0aHZ966qnpmjkuIRB9gmj6zHUTFBHEcN1nn3129OnTJwVE7733Xrz55pupaokAi+04JmEXTaK5FppIs80LL7wQq1evTkEO+z355JMp4OH+CXwIirgv+vQsXbo0HYNzYZEFZZmVXxVQQAEFFFBAAQUUUEABBRTIm4ABTw08cUIRpljRRHnJkiXxxhtvpJ8JeAgt6MtDcEGVSvfu3VNlC0FIYcBDyEHFDNsSwPAZ7xG0TJs2La3YRZBEVQuVL3yWTXviK6EM+86ePbv8jtmecITAhB4377zzTrAEOyETlULsxz7PPvtsvP/++6kvDhU6VCFxTipr2JbAhuoc7pNgiGsjxCJUIrzhM6p1ODb3yLXQgJpjjhkzJm3Pvtwzg6/cQ7baWBY28RlBUvZZtj3vOxRQQAEFFFBAAQUUUEABBRTIs4ABTw09faYUUeFC8EHVC8EJ06MILwh+CEuY2jRw4MADgp2DXR4VOa+99lo6Jo2JqRI6+eST07QlwhOCIN7PmjZzLKp2qLAZMGBAClKY4sRKX1m4c8opp6RqHQIZKmqo0uEzegdRdcS+CxYsSNfLsU8//fR0TsIgqmwIgKgiohIom3LWr1+/4LhU63BdXDMhEZVHBFJ8RqUR5+I8NJOmMofzEfxwPqqLqAIiKKP5MqESfXqs3jnYb4ifKaCAAgoooIACCiiggAIK5EXAgKeGnjTVKwQZBBisFkVo0blz5xTw8D0BCT8TahD4HGpQJbN8+fI07YoqIKZREZIQGlHZ0rVr11Q5QwBCmJQNlldnhar+/funahgqgAicOB7hyZlnnpmaQLMf18J1EwqxDYEMFTtsmw3OTbUPwQ5f2Y+GyFQqsV+3bt1SlQ7noyKnR1nIReUSPXwIjghtqMqhcol9+J4wjJ+ZxkXAQ0BF1ROD83AstnEooIACCiiggAIKKKCAAgoooMCfBP40J0aNahcgdKFahSXSqdqhuoWghzCH4IRghPDjcIMLpmARkjD9idClS5cuqVqncNoS4QiBCcfOBhU4hDzZ+zQspqqGbQhUCIiy7dmf43LdhDpcb2FjZiqEXnzxxTRdi4odgiSuJ7s2jsO18WJaFYP3qNChmof3qPqh4qcwNMqu1a8KKKCAAgoooIACCiiggAIKKHB4AlbwHJ7TMdmKyhWmUFGpQh8avlKdQlDCVCkCFqY9Hc4gROFFMMI+vAhkDjW4BoKVLMTh/IQyDN4n+MkG2xAYZccl3GF/qoOoOKJvEKEP/XgIeGjEzIs+O1wX+3JM9s/Ox7GpCuI4nIvtOC6hl0MBBRRQQAEFFFBAAQUUUEABBY5O4NCJwNEd170qEWAKU4+yKh0qWFgVi74yBCwEIlT2UOlSGLBUcojytwhPeBGcEPRwnIpVMEyfKgxW2Lniz1wTx2FbjkPYkwU6vMcxebEfYQ0vKoDGjx+fqnCYZkUVED2EuB+mYRHecExCG8Ibjll4Ldn18jnnyqZ2ld+c3yiggAIKKKCAAgoooIACCiigwBEJOEXriLg+2saEJEzB6tWrVwpKaJLMFC2aK9NX5nCrd7gKqmA4FuEIVTQci6ogwiICFb4S+hCwEK5UNZiSlZ2XBtDZNCyOwf4sWc5xCZ5oasy1ckyaMI8cOTLOO++81BCZn6lEolcP+3J9nJeVv5gCRsVPdl1ZU2mOw7nZNwuVKrtO3LJgKjsGX636qUzL9xRQQAEFFFBAAQUUUEABBfIoYAVPDT91gg/CHJYPpwkxlS40DqbBMp8RXBzOoJKGwIX+OCxzzqpUVM7QnJgqGnrbcCyOW7Gyp/D4NFZmyhX9c2gATeDCqldcC9f36quvlq+Yxbacg6odAiTOTcDEPmxPIERQw3QzqnwIewhzaJBMmNOyZcvyqV2ESVk10KEql7LKIUIeKoWofmIfjsdXhwIKKKCAAgoooIACCiiggAJ5FzDgqcbfAMIbKl8Kp13xfRboEH4QiPTs2TOFJFmVSrYfFSrZe3zN3ucrP7NC1aBBg1JowrGmT5+emjcT8FBNQwBCIEMlDftk+2XH5Na5FlbgYjUrAplZs2bFkrLeQOxHwJOtckV/IBo0sy+BDSt4cXzOlS3JzrEIi7guQhneZ4UwtifQYWlzKnmoEuLeOB5hFxU8hEPZNWbXmT0aQhzCrHfffTedd8qUKSnYoYKIayi8n2wfvyqggAIKKKCAAgoooIACCiiQJwEDnmp82lSy0FuHKheCkGwwzYlQhQCFwGfgwIEp/OBzwgrCFVaZogKH8INtsveolCHUIBji69ChQ9PnrMpFyMOUKgbbU83DNC6OSd+fbGoVAUo2+GzIkCEpBKKqiP2pkiEU4rq5jh5lfYOGDRuWqnKoDOK82RLtVAdllTjcB0EQn3O/XD/nZ1umeRHsZBU+BEEsG8+x2ZZryyp/CHN4LwtuuHaCLLxWr16dQifOyz4OBRRQQAEFFFBAAQUUUEABBRSIqN0BD0FEWbiRXkf7tOqW7V+nrOKl7P/VrVOvrEqk7JaPcsGmunX+/2pQdf687HhVl0U4MWDAgFR5QqBCeJENghOqVwhGGExnIvhgEOYQCo0bNy5VuWRhR9bYmAbFBB4EOAwCGEIUwhyCGQIYzs17nTp1Sudnn9GjR6dl1XmP8xcOjjV8+PA0nYtKG6p/CFAIWbJqI66f++C4rJRF755sO0InrpNrZLpWth33z3aERkwBI5DhnqnIYdtsihfXwvtMDeM9zsE9ZkEUnxEe8X7W44fgi5AoC4EK78fvFVBAAQUUUEABBRRQQAEFFMibQJ2ySo2qO/AeZ43dU+6PnQ/9JvZv3RRxlFdZr0NZoHHeFbG8d914buWtsX7r4ti3/+gSHgKHs3p/OwZ0uDga1SewOXTQU5OEPMrscRJ8HE34kR2Dr+yfhSwV7+Nwt2O/I9m24nkq/pz1E+K6jub+Kh7PnxVQQAEFFFBAAQUUUEABBRQoBYFaHfDsWr4wdix4K/bv2XXU1nVPbBoNu/eL7S33x3ubZ8f23evLsqKjS4uoAurSaly0bNI36tf985Sro744d1RAAQUUUEABBRRQQAEFFFBAAQWOgUCtnqK1vFXPeKtP19h1dAU3iafpCXWif/N60aXu6uh/Qss0XauspOTo6MoqWqIuU6NqV+XO0d2MeymggAIKKKCAAgoooIACCiigQKkI1OqAZ9a6PXHL2zti066jDGTKnlKXpnXjL/qULSneeH7UX3FLxNYlZXOG9h7d8yubFhS9vhnRvk1Z0EMfmyMPephixApSDKYZOdUoUfgPBRRQQAEFFFBAAQUUUEABBRT4CAK1OuB5b9u+mLNub6zdcbSTqiI27twfazrvjz11N0Rsmlv2eqss4NlzdGRMy9q5pqxJ89Gt3sSqUiz1TXNiBg2JaahMM2OHAgoooIACCiiggAIKKKCAAgoocLQCtTrgOdqbqq37scLV9OnT07LhNAhmRauPfexjKeSprdfsdSmggAIKKKCAAgoooIACCiigQO0XMOCpoWfE1KzVq1fH4sWLUxUPp92+fXsMHTo0LQmeLZNeQ5fjaRRQQAEFFFBAAQUUUEABBRRQoIQEyprKOGpCYOfOnfHWW2/FBx98EIQ59N7ZsmVLzJ8/v3zKVk1cR2XnKFzGvPBz3qdfEC++dyiggAIKKKCAAgoooIACCiigQO0UsIKnBp4L4QhhDtU7u3fvjs6dO6fqHcKeJUuWxKZNm6Jly5bBtC0G27MdoVDWkLmyy2zQoEF6m94+bEcvH94jPGLwPsfgK+9nvX6oHMreY9sdO3ak7U488cRo3Lhxuo5du3bFtm3b0mcci335jK/Z8XnfoYACCiiggAIKKKCAAgoooIACx1/AgKcGngFhyrJly2Ljxo0paBk+fHgKeGbOnJnee++996JDhw7RqFGjdDVM51q6dGm8/PLL6fPKLpGQZeDAgVGvXr1YtGhRCmJOPfXUGDRoUDRp0iTtsn79+pg9e3aaEsb7gwcPTu/PmDEjlpQFS/3790/npIqIbceMGRNDhgwJwp25c+em14YNZc2py0bTpk2jd+/e6fjt2rVLVUjpA/+hgAIKKKCAAgoooIACCiiggALHXcCApwYeAVU0b775ZpqKRaVOjx490lnnzJkTa9euTUFKz549ywOerOJnxYoVsW7duvIrJCiisofPW7RokY5DNQ4BDRVCHTt2TKFNtgMVOARF77zzTrRp0yZ9xr7Lly+Pt99+O1XoEOYQ7hAqEUC9//77KRR69dVX0zFPOOGEVNFD/6CVK1cGgc+4ceNSg+is4ig7n18VUEABBRRQQAEFFFBAAQUUUOD4CBjwVLM7gQpTsdasWZOmUXXv3j1Nx+K0hC4EJ1TwME2rbdu2afoTVTlM4zrjjDNSCMO2BDtM8SKsIejp06dP9OvXL/1MOJO9OF82+J6pW2xf2Ecne48qnlatWqXgh+lXXM9rr72WKocIh6gQoqKHkIf+QQRSBEMESeyXVQpl5/OrAgoooIACCiiggAIKKKCAAgocHwEDnmp2J1xhuhPVMfSvYaoU1TcEMgMGDEjVNARAhDdM02rWrFkKeQhb2I4whhfTsAh3CG2YKjVixIgUtPD+0Q6meZ1++ulpJS8aP1MNROUO10qANHr06OjVq1eq4GGKFpU+VARxTt434DlaefdTQAEFFFBAAQUUUEABBRRQ4NgKuIrWsfX80NEITQh4Nm/eXN6omClbVORQBUPok62mRRVPNqji4TP68nCMhQsXpilShD700unatWvq55NtfzRfqSYiyKFyiKljTAfjRYhEoLN169ZYsGBBCpaoMuKaCazYhmt2KKCAAgoooIACCiiggAIKKKBA7RCwgqcanwOVN0zBoq8NFTsENU8++WRajYrT8jPVO4QmWf+b9u3bpylR2WWxwhXTot54440UsNBImalTVPp81B44NEvOjsO1UqFDcMP1MB2LcCc7B59zLdm0L37m++zz7Hr9qoACCiiggAIKKKCAAgoooIACNS9gwFON5gQlr7zySgp4OA2VO0vK+t5koQgBCcEPg4An62/D9CwG+8+bNy9eeOGFdIyTTz45Ro0aVd6rJ210kH9kYQxfKxtMyypc8jzbjveoFCpcuj3bn8+o+GFJdYcCCiiggAIKKKCAAgoooIACCtQOAQOeanwONCpmxSoqX5jyxLQqmhlng0CFKh5Wy8q2pYKmdevWaRPeJyCiCoimyyyvftJJJx2wRDlhES8qarKqmuz4TPniuFlwk71f1VcCHa6PqVlDhw6N0047LfXZKQyk2JfpYw0aNCgPqqo6nu8roIACCiiggAIKKKCAAgoooEDNCBjwVJMzoQp9c5iCRSByyimnxDnnnJP67hSekmXSn3jiifJl1Ol1wzQtqn2o6GGaFPv3KFtanSbMhDiENgwqcPiMF5VABDq86NuTrbqVLYFeeM7KvifE6datW6rOYcUvGjqzdDsNnVlFi/thSXXCKporF1b+VHY831NAAQUUUEABBRRQQAEFFFBAgZoTMOCpJmvCkJdffjlNvaLaheXG6XlDKFM4CG34jEqfDRs2pKCHKh2CnpdeeilNzcoaIE+dOvWAqhkaJDNVimMQJLECFsEQK1ytXLkyhUNUCB1OBQ8BD9OyqDJiGhmvhx56KAVTnTp1SsdlpS+mkk2YMCGYLuZQQAEFFFBAAQUUUEABBRRQQIHaIXBg2lA7rqn8KurXiWhQr040qhdReReZ8k2r/KZh2f5l/z/q1C07SN2GZfOLGpUdbE+V2x/0A/avU3acsjDkUIOpVqyclQUnhDQVwx2OQXUMwQ9TuAhP2IelyOfPn5+qcdiHKVNU81QcVO5MnDixvFkzU7loxvzmm2+mKh6mdbESF6teUXHDtRD2sF9W/cN72eC9M844I1XpEE4RMhEUMdiOzzkm+zsUUEABBRRQQAEFFFBAAQUUUKD2CNTqgKdfi3oxqccJsWX30cY7ER2a1Is+Zcc5oVHnsh/OiWg2oCzg2Xd0T4CQqGm/srSjLCSKPwcjlR2MqVI9y6Y4Md2KqU8siV7ZIDih587IkSODShkqcphilfXrodFyVYNlztl+7NixKSR6/fXXgylf9NFhShjHZZoYQQ3XQNjDFC8qfAiWeI/qomxwLc2bN4+LLrooTc2iIojjMf2LaVlcE6t48bUwGMr296sCCiiggAIKKKCAAgoooIACChwfgTplFR1Hn54cn2v2rAoooIACCiiggAIKKKCAAgoooIACBQJ1C773WwUUUEABBRRQQAEFFFBAAQUUUECBIhQw4CnCh+YlK6CAAgoooIACCiiggAIKKKCAAoUCBjyFGn6vgAIKKKCAAgoooIACCiiggAIKFKGAAU8RPjQvWQEFFFBAAQUUUEABBRRQQAEFFCgUMOAp1PB7BRRQQAEFFFBAAQUUUEABBRT4f+3YoQ0AAADCsP+/xvLCkjokKQ4CQQEHT3A0lQkQIECAAAECBAgQIECAAAECL+DgeQ2ZAAECBAgQIECAAAECBAgQIBAUcPAER1OZAAECBAgQIECAAAECBAgQIPACDp7XkAkQIECAAAECBAgQIECAAAECQQEHT3A0lQkQIECAAAECBAgQIECAAAECL+DgeQ2ZAAECBAgQIECAAAECBAgQIBAUcPAER1OZAAECBAgQIECAAAECBAgQIPACDp7XkAkQIECAAAECBAgQIECAAAECQQEHT3A0lQkQIECAAAECBAgQIECAAAECL+DgeQ2ZAAECBAgQIECAAAECBAgQIBAUcPAER1OZAAECBAgQIECAAAECBAgQIPACDp7XkAkQIECAAAECBAgQIECAAAECQQEHT3A0lQkQIECAAAECBAgQIECAAAECL+DgeQ2ZAAECBAgQIECAAAECBAgQIBAUcPAER1OZAAECBAgQIECAAAECBAgQIPACA4tG91RB/tdCAAAAAElFTkSuQmCC;" vertex="1" parent="1">
          <mxGeometry x="50" y="240" width="484.75" height="350" as="geometry" />
        </mxCell>
        <mxCell id="xEFxBhoDUxxN1TiM_tYG-3" value="" style="shape=image;verticalLabelPosition=bottom;labelBackgroundColor=#ffffff;verticalAlign=top;aspect=fixed;imageAspect=0;image=data:image/svg+xml,PHN2ZyB4bWxuczpjYz0iaHR0cDovL2NyZWF0aXZlY29tbW9ucy5vcmcvbnMjIiB4bWxuczpkYz0iaHR0cDovL3B1cmwub3JnL2RjL2VsZW1lbnRzLzEuMS8iIHhtbG5zOmlua3NjYXBlPSJodHRwOi8vd3d3Lmlua3NjYXBlLm9yZy9uYW1lc3BhY2VzL2lua3NjYXBlIiB4bWxuczpyZGY9Imh0dHA6Ly93d3cudzMub3JnLzE5OTkvMDIvMjItcmRmLXN5bnRheC1ucyMiIHhtbG5zOnNvZGlwb2RpPSJodHRwOi8vc29kaXBvZGkuc291cmNlZm9yZ2UubmV0L0RURC9zb2RpcG9kaS0wLmR0ZCIgeG1sbnM6c3ZnPSJodHRwOi8vd3d3LnczLm9yZy8yMDAwL3N2ZyIgeG1sbnM9Imh0dHA6Ly93d3cudzMub3JnLzIwMDAvc3ZnIiB4bWxuczp4bGluaz0iaHR0cDovL3d3dy53My5vcmcvMTk5OS94bGluayIgdmVyc2lvbj0iMS4xIiBpZD0ic3ZnOTMyMDEiIGlua3NjYXBlOnZlcnNpb249IjAuOTIuMyAoMjQwNTU0NiwgMjAxOC0wMy0xMSkiIHNvZGlwb2RpOmRvY25hbWU9InJlZGlzX2NhY2hlXzEuc3ZnIiB4PSIwcHgiIHk9IjBweCIgdmlld0JveD0iMCAwIDM3LjUxIDMxLjYiIHN0eWxlPSJlbmFibGUtYmFja2dyb3VuZDpuZXcgMCAwIDM3LjUxIDMxLjY7IiB4bWw6c3BhY2U9InByZXNlcnZlIj4mI3hhOzxzb2RpcG9kaTpuYW1lZHZpZXcgYm9yZGVyY29sb3I9IiM2NjY2NjYiIGJvcmRlcm9wYWNpdHk9IjEiIGZpdC1tYXJnaW4tYm90dG9tPSIwIiBmaXQtbWFyZ2luLWxlZnQ9IjAiIGZpdC1tYXJnaW4tcmlnaHQ9IjAiIGZpdC1tYXJnaW4tdG9wPSIwIiBncmlkdG9sZXJhbmNlPSIxMCIgZ3VpZGV0b2xlcmFuY2U9IjEwIiBpZD0ibmFtZWR2aWV3OTMyMDMiIGlua3NjYXBlOmN1cnJlbnQtbGF5ZXI9InN2ZzkzMjAxIiBpbmtzY2FwZTpjeD0iMzMuNTI0MjM1IiBpbmtzY2FwZTpjeT0iMTkuNzUxMjkxIiBpbmtzY2FwZTpwYWdlb3BhY2l0eT0iMCIgaW5rc2NhcGU6cGFnZXNoYWRvdz0iMiIgaW5rc2NhcGU6d2luZG93LWhlaWdodD0iMTAxNyIgaW5rc2NhcGU6d2luZG93LW1heGltaXplZD0iMSIgaW5rc2NhcGU6d2luZG93LXdpZHRoPSIxOTIwIiBpbmtzY2FwZTp3aW5kb3cteD0iLTgiIGlua3NjYXBlOndpbmRvdy15PSItOCIgaW5rc2NhcGU6em9vbT0iMTMuODg5MzQ4IiBvYmplY3R0b2xlcmFuY2U9IjEwIiBwYWdlY29sb3I9IiNmZmZmZmYiIHNob3dncmlkPSJmYWxzZSI+JiN4YTsJPC9zb2RpcG9kaTpuYW1lZHZpZXc+JiN4YTs8ZyBpZD0iZzkzMTk5IiB0cmFuc2Zvcm09InRyYW5zbGF0ZSgtMC43NDY3NjM4LC0wLjc1MTYyNSkiPiYjeGE7CTx0aXRsZSBpZD0idGl0bGU5MzExNSI+UGFnZS0xPC90aXRsZT4mI3hhOwk8ZyBpZD0iZ3JvdXA0OTc3LTEiIHRyYW5zZm9ybT0idHJhbnNsYXRlKDAuNDA3MjksLTAuNjA5Mzc1KSI+JiN4YTsJCTx0aXRsZSBpZD0idGl0bGU5MzExNyI+UmVkaXMgQ2FjaGUgIzE8L3RpdGxlPiYjeGE7CQk8ZyBpZD0iZ3JvdXA0OTc4LTIiPiYjeGE7CQkJPHRpdGxlIGlkPSJ0aXRsZTkzMTE5Ij5TaGVldC40OTc4PC90aXRsZT4mI3hhOwkJCTxnIGlkPSJzaGFwZTQ5NzktMyIgdHJhbnNmb3JtPSJ0cmFuc2xhdGUoMC4yMzcpIj4mI3hhOwkJCQk8dGl0bGUgaWQ9InRpdGxlOTMxMjEiPlNoZWV0LjQ5Nzk8L3RpdGxlPiYjeGE7CQkJCTxwYXRoIGlkPSJwYXRoOTMxMjMiIGlua3NjYXBlOmNvbm5lY3Rvci1jdXJ2YXR1cmU9IjAiIHN0eWxlPSJmaWxsOiNCQTE0MUE7IiBkPSJNMC4xMSwyNS4xOWMtMC4wNiwwLjQsMC4yOCwwLjgsMS4wMiwxLjExICAgICAgbDE1LjI0LDYuMjRjMS4zNywwLjU2LDMuNiwwLjU2LDQuOTcsMGwxNS4yNC02LjI0YzAuNzQtMC4zMSwxLjA4LTAuNzEsMS4wMi0xLjExdi0zLjU4YzAuMDUsMC4zOS0wLjI5LDAuNzktMS4wMiwxLjA5ICAgICAgbC0xNS4yNCw2LjI0Yy0xLjM3LDAuNTYtMy42LDAuNTYtNC45NywwTDEuMTMsMjIuN2MtMC44LTAuMzMtMS4xMy0wLjc4LTEtMS4yTDAuMTEsMjUuMTl6Ii8+JiN4YTsJCQk8L2c+JiN4YTsJCQk8ZyBpZD0ic2hhcGU0OTgwLTUiIHRyYW5zZm9ybT0idHJhbnNsYXRlKDAsLTMuNikiPiYjeGE7CQkJCTx0aXRsZSBpZD0idGl0bGU5MzEyNiI+U2hlZXQuNDk4MDwvdGl0bGU+JiN4YTsJCQkJPHBhdGggaWQ9InBhdGg5MzEyOCIgaW5rc2NhcGU6Y29ubmVjdG9yLWN1cnZhdHVyZT0iMCIgc3R5bGU9ImZpbGw6I0JBMTQxQTsiIGQ9Ik0zNi44MSwyNC4yNmMxLjM4LDAuNTcsMS4zOCwxLjQ4LDAsMi4wNCAgICAgIGwtMTUuMjMsNi4yNGMtMS4zNywwLjU2LTMuNiwwLjU2LTQuOTcsMEwxLjM3LDI2LjNDMCwyNS43NCwwLDI0LjgyLDEuMzcsMjQuMjZsMTUuMjQtNi4yNGMxLjM3LTAuNTYsMy42LTAuNTYsNC45NywwICAgICAgTDM2LjgxLDI0LjI2eiIvPiYjeGE7CQkJPC9nPiYjeGE7CQk8L2c+JiN4YTsJCTxnIGlkPSJncm91cDQ5ODEtNyIgdHJhbnNmb3JtPSJ0cmFuc2xhdGUoMCwtNi4zMTk1KSI+JiN4YTsJCQk8dGl0bGUgaWQ9InRpdGxlOTMxMzIiPlNoZWV0LjQ5ODE8L3RpdGxlPiYjeGE7CQkJPGcgaWQ9InNoYXBlNDk4Mi04IiB0cmFuc2Zvcm09InRyYW5zbGF0ZSgwLjIzNykiPiYjeGE7CQkJCTx0aXRsZSBpZD0idGl0bGU5MzEzNCI+U2hlZXQuNDk4MjwvdGl0bGU+JiN4YTsJCQkJPHBhdGggaWQ9InBhdGg5MzEzNiIgaW5rc2NhcGU6Y29ubmVjdG9yLWN1cnZhdHVyZT0iMCIgc3R5bGU9ImZpbGw6I0JBMTQxQTsiIGQ9Ik0wLjExLDI1LjE5Yy0wLjA2LDAuNCwwLjI4LDAuOCwxLjAyLDEuMTEgICAgICBsMTUuMjQsNi4yNGMxLjM3LDAuNTYsMy42LDAuNTYsNC45NywwbDE1LjI0LTYuMjRjMC43NC0wLjMxLDEuMDgtMC43MSwxLjAyLTEuMTF2LTMuNThjMC4wNSwwLjM5LTAuMjksMC43OS0xLjAyLDEuMDkgICAgICBsLTE1LjI0LDYuMjRjLTEuMzcsMC41Ni0zLjYsMC41Ni00Ljk3LDBMMS4xMywyMi43Yy0wLjgtMC4zMy0xLjEzLTAuNzgtMS0xLjJMMC4xMSwyNS4xOXoiLz4mI3hhOwkJCTwvZz4mI3hhOwkJCTxnIGlkPSJzaGFwZTQ5ODMtMTAiIHRyYW5zZm9ybT0idHJhbnNsYXRlKDAsLTMuNikiPiYjeGE7CQkJCTx0aXRsZSBpZD0idGl0bGU5MzEzOSI+U2hlZXQuNDk4MzwvdGl0bGU+JiN4YTsJCQkJPHBhdGggaWQ9InBhdGg5MzE0MSIgaW5rc2NhcGU6Y29ubmVjdG9yLWN1cnZhdHVyZT0iMCIgc3R5bGU9ImZpbGw6I0JBMTQxQTsiIGQ9Ik0zNi44MSwyNC4yNmMxLjM4LDAuNTcsMS4zOCwxLjQ4LDAsMi4wNCAgICAgIGwtMTUuMjMsNi4yNGMtMS4zNywwLjU2LTMuNiwwLjU2LTQuOTcsMEwxLjM3LDI2LjNDMCwyNS43NCwwLDI0LjgyLDEuMzcsMjQuMjZsMTUuMjQtNi4yNGMxLjM3LTAuNTYsMy42LTAuNTYsNC45NywwICAgICAgTDM2LjgxLDI0LjI2eiIvPiYjeGE7CQkJPC9nPiYjeGE7CQk8L2c+JiN4YTsJCTxnIGlkPSJncm91cDQ5ODQtMTIiPiYjeGE7CQkJPHRpdGxlIGlkPSJ0aXRsZTkzMTQ1Ij5TaGVldC40OTg0PC90aXRsZT4mI3hhOwkJCTxnIGlkPSJzaGFwZTQ5ODUtMTMiIHRyYW5zZm9ybT0idHJhbnNsYXRlKDAuMjM3LC0xMi42MzkpIj4mI3hhOwkJCQk8dGl0bGUgaWQ9InRpdGxlOTMxNDciPlNoZWV0LjQ5ODU8L3RpdGxlPiYjeGE7CQkJCTxwYXRoIGlkPSJwYXRoOTMxNDkiIGlua3NjYXBlOmNvbm5lY3Rvci1jdXJ2YXR1cmU9IjAiIHN0eWxlPSJmaWxsOiNCQTE0MUE7IiBkPSJNMC4xMSwyNS4xOWMtMC4wNiwwLjQsMC4yOCwwLjgsMS4wMiwxLjExICAgICAgbDE1LjI0LDYuMjRjMS4zNywwLjU2LDMuNiwwLjU2LDQuOTcsMGwxNS4yNC02LjI0YzAuNzQtMC4zMSwxLjA4LTAuNzEsMS4wMi0xLjExdi0zLjU4YzAuMDUsMC4zOS0wLjI5LDAuNzktMS4wMiwxLjA5ICAgICAgbC0xNS4yNCw2LjI0Yy0xLjM3LDAuNTYtMy42LDAuNTYtNC45NywwTDEuMTMsMjIuN2MtMC44LTAuMzMtMS4xMy0wLjc4LTEtMS4yTDAuMTEsMjUuMTl6Ii8+JiN4YTsJCQk8L2c+JiN4YTsJCQk8ZyBpZD0ic2hhcGU0OTg2LTE1IiB0cmFuc2Zvcm09InRyYW5zbGF0ZSgwLjIzNykiPiYjeGE7CQkJCTx0aXRsZSBpZD0idGl0bGU5MzE1MiI+U2hlZXQuNDk4NjwvdGl0bGU+JiN4YTsJCQkJPHBhdGggaWQ9InBhdGg5MzE1NCIgaW5rc2NhcGU6Y29ubmVjdG9yLWN1cnZhdHVyZT0iMCIgc3R5bGU9ImZpbGw6IzFFMUUxRTtmaWxsLW9wYWNpdHk6MC4yNTsiIGQ9Ik0wLjExLDI1LjE5ICAgICAgYy0wLjA2LDAuNCwwLjI4LDAuOCwxLjAyLDEuMTFsMTUuMjQsNi4yNGMxLjM3LDAuNTYsMy42LDAuNTYsNC45NywwbDE1LjI0LTYuMjRjMC43NC0wLjMxLDEuMDgtMC43MSwxLjAyLTEuMTF2LTMuNTggICAgICBjMC4wNSwwLjM5LTAuMjksMC43OS0xLjAyLDEuMDlsLTE1LjI0LDYuMjRjLTEuMzcsMC41Ni0zLjYsMC41Ni00Ljk3LDBMMS4xMywyMi43Yy0wLjgtMC4zMy0xLjEzLTAuNzgtMS0xLjJMMC4xMSwyNS4xOXoiLz4mI3hhOwkJCTwvZz4mI3hhOwkJCTxnIGlkPSJzaGFwZTQ5ODctMTciIHRyYW5zZm9ybT0idHJhbnNsYXRlKDAuMjM3LC02LjMxOTUpIj4mI3hhOwkJCQk8dGl0bGUgaWQ9InRpdGxlOTMxNTciPlNoZWV0LjQ5ODc8L3RpdGxlPiYjeGE7CQkJCTxwYXRoIGlkPSJwYXRoOTMxNTkiIGlua3NjYXBlOmNvbm5lY3Rvci1jdXJ2YXR1cmU9IjAiIHN0eWxlPSJmaWxsOiMxRTFFMUU7ZmlsbC1vcGFjaXR5OjAuMjU7IiBkPSJNMC4xMSwyNS4xOSAgICAgIGMtMC4wNiwwLjQsMC4yOCwwLjgsMS4wMiwxLjExbDE1LjI0LDYuMjRjMS4zNywwLjU2LDMuNiwwLjU2LDQuOTcsMGwxNS4yNC02LjI0YzAuNzQtMC4zMSwxLjA4LTAuNzEsMS4wMi0xLjExdi0zLjU4ICAgICAgYzAuMDUsMC4zOS0wLjI5LDAuNzktMS4wMiwxLjA5bC0xNS4yNCw2LjI0Yy0xLjM3LDAuNTYtMy42LDAuNTYtNC45NywwTDEuMTMsMjIuN2MtMC44LTAuMzMtMS4xMy0wLjc4LTEtMS4yTDAuMTEsMjUuMTl6Ii8+JiN4YTsJCQk8L2c+JiN4YTsJCQk8ZyBpZD0ic2hhcGU0OTg4LTE5IiB0cmFuc2Zvcm09InRyYW5zbGF0ZSgwLjIzNywtMTIuNjM5KSI+JiN4YTsJCQkJPHRpdGxlIGlkPSJ0aXRsZTkzMTYyIj5TaGVldC40OTg4PC90aXRsZT4mI3hhOwkJCQk8cGF0aCBpZD0icGF0aDkzMTY0IiBpbmtzY2FwZTpjb25uZWN0b3ItY3VydmF0dXJlPSIwIiBzdHlsZT0iZmlsbDojMUUxRTFFO2ZpbGwtb3BhY2l0eTowLjI1OyIgZD0iTTAuMTEsMjUuMTkgICAgICBjLTAuMDYsMC40LDAuMjgsMC44LDEuMDIsMS4xMWwxNS4yNCw2LjI0YzEuMzcsMC41NiwzLjYsMC41Niw0Ljk3LDBsMTUuMjQtNi4yNGMwLjc0LTAuMzEsMS4wOC0wLjcxLDEuMDItMS4xMXYtMy41OCAgICAgIGMwLjA1LDAuMzktMC4yOSwwLjc5LTEuMDIsMS4wOWwtMTUuMjQsNi4yNGMtMS4zNywwLjU2LTMuNiwwLjU2LTQuOTcsMEwxLjEzLDIyLjdjLTAuOC0wLjMzLTEuMTMtMC43OC0xLTEuMkwwLjExLDI1LjE5eiIvPiYjeGE7CQkJPC9nPiYjeGE7CQkJPGcgaWQ9InNoYXBlNDk4OS0yMSIgdHJhbnNmb3JtPSJ0cmFuc2xhdGUoMCwtMTYuMjM5KSI+JiN4YTsJCQkJPHRpdGxlIGlkPSJ0aXRsZTkzMTY3Ij5TaGVldC40OTg5PC90aXRsZT4mI3hhOwkJCQk8cGF0aCBpZD0icGF0aDkzMTY5IiBpbmtzY2FwZTpjb25uZWN0b3ItY3VydmF0dXJlPSIwIiBzdHlsZT0iZmlsbDojQkExNDFBOyIgZD0iTTM2LjgxLDI0LjI2YzEuMzgsMC41NywxLjM4LDEuNDgsMCwyLjA0ICAgICAgbC0xNS4yMyw2LjI0Yy0xLjM3LDAuNTYtMy42LDAuNTYtNC45NywwTDEuMzcsMjYuM0MwLDI1Ljc0LDAsMjQuODIsMS4zNywyNC4yNmwxNS4yNC02LjI0YzEuMzctMC41NiwzLjYtMC41Niw0Ljk3LDAgICAgICBMMzYuODEsMjQuMjZ6Ii8+JiN4YTsJCQk8L2c+JiN4YTsJCTwvZz4mI3hhOwkJPGcgaWQ9InNoYXBlNDk5MC0yMyIgdHJhbnNmb3JtPSJ0cmFuc2xhdGUoNi4zNjE1LC0yMi4xMTIzKSI+JiN4YTsJCQk8dGl0bGUgaWQ9InRpdGxlOTMxNzMiPlNoZWV0LjQ5OTA8L3RpdGxlPiYjeGE7CQkJPHBhdGggaWQ9InBhdGg5MzE3NSIgaW5rc2NhcGU6Y29ubmVjdG9yLWN1cnZhdHVyZT0iMCIgc3R5bGU9ImZpbGw6I0ZGRkZGRjsiIGQ9Ik04LjA0LDMyLjMzYy0xLjc0LDAuNzctNC41NiwwLjc3LTYuMywwICAgICBDMCwzMS41NiwwLDMwLjMsMS43NCwyOS41M2MxLjc0LTAuNzcsNC41Ni0wLjc3LDYuMywwQzkuNzcsMzAuMyw5Ljc4LDMxLjU2LDguMDQsMzIuMzN6Ii8+JiN4YTsJCTwvZz4mI3hhOwkJPGcgaWQ9InNoYXBlNDk5MS0yNSIgdHJhbnNmb3JtPSJ0cmFuc2xhdGUoMTMuMjE4LC0xNy45ODgpIj4mI3hhOwkJCTx0aXRsZSBpZD0idGl0bGU5MzE3OCI+U2hlZXQuNDk5MTwvdGl0bGU+JiN4YTsJCQk8cGF0aCBpZD0icGF0aDkzMTgwIiBpbmtzY2FwZTpjb25uZWN0b3ItY3VydmF0dXJlPSIwIiBzdHlsZT0iZmlsbDojRkZGRkZGOyIgZD0iTTAsMzAuMmw4LjkyLTEuMDZMNi41MywzMy4xTDAsMzAuMnoiLz4mI3hhOwkJPC9nPiYjeGE7CQk8ZyBpZD0ic2hhcGU0OTkyLTI3IiB0cmFuc2Zvcm09InRyYW5zbGF0ZSgyMS44NjQsLTIxLjg5MSkiPiYjeGE7CQkJPHRpdGxlIGlkPSJ0aXRsZTkzMTgzIj5TaGVldC40OTkyPC90aXRsZT4mI3hhOwkJCTxwYXRoIGlkPSJwYXRoOTMxODUiIGlua3NjYXBlOmNvbm5lY3Rvci1jdXJ2YXR1cmU9IjAiIHN0eWxlPSJmaWxsOiMxRTFFMUU7ZmlsbC1vcGFjaXR5OjAuMjU7IiBkPSJNNS4zNCwzMy4xTDAsMzAuNzNsNS4zNC0yLjM3ICAgICBsNS4zMywyLjM3TDUuMzQsMzMuMXoiLz4mI3hhOwkJPC9nPiYjeGE7CQk8ZyBpZD0ic2hhcGU0OTkzLTI5IiB0cmFuc2Zvcm09InRyYW5zbGF0ZSgyMS44NjQsLTIxLjg5MSkiPiYjeGE7CQkJPHRpdGxlIGlkPSJ0aXRsZTkzMTg4Ij5TaGVldC40OTkzPC90aXRsZT4mI3hhOwkJCTxwYXRoIGlkPSJwYXRoOTMxOTAiIGlua3NjYXBlOmNvbm5lY3Rvci1jdXJ2YXR1cmU9IjAiIHN0eWxlPSJmaWxsOiMxRTFFMUU7ZmlsbC1vcGFjaXR5OjAuMjU7IiBkPSJNNS4zNCwzMy4xTDAsMzAuNzNsNS4zNC0yLjM3ICAgICBWMzMuMXoiLz4mI3hhOwkJPC9nPiYjeGE7CQk8ZyBpZD0ic2hhcGU0OTk0LTMxIiB0cmFuc2Zvcm09InRyYW5zbGF0ZSgxMy44OTY3LC0yNS42MTU1KSI+JiN4YTsJCQk8dGl0bGUgaWQ9InRpdGxlOTMxOTMiPlNoZWV0LjQ5OTQ8L3RpdGxlPiYjeGE7CQkJPHBhdGggaWQ9InBhdGg5MzE5NSIgaW5rc2NhcGU6Y29ubmVjdG9yLWN1cnZhdHVyZT0iMCIgc3R5bGU9ImZpbGw6I0ZGRkZGRjsiIGQ9Ik0zLjQ4LDMxLjU1TDAsMzEuMjRsMy4wOS0wLjc4bC0wLjQtMS41NyAgICAgbDIuNjIsMS4wN2wzLjI0LTAuNjZsLTEuNDgsMS40NGwyLjQxLDEuMTdsLTMuNTQtMC4xOEw0LjE5LDMzLjFMMy40OCwzMS41NXoiLz4mI3hhOwkJPC9nPiYjeGE7CTwvZz4mI3hhOzwvZz4mI3hhOzwvc3ZnPg==;" vertex="1" parent="1">
          <mxGeometry x="421" y="490" width="38" height="32" as="geometry" />
        </mxCell>
        <mxCell id="xEFxBhoDUxxN1TiM_tYG-4" value="&lt;font style=&quot;font-size: 10px;&quot;&gt;Redis is being introduced now&lt;/font&gt;" style="text;html=1;align=center;verticalAlign=middle;resizable=0;points=[];autosize=1;strokeColor=#d6b656;fillColor=#fff2cc;" vertex="1" parent="1">
          <mxGeometry x="360" y="530" width="160" height="30" as="geometry" />
        </mxCell>
        <mxCell id="xEFxBhoDUxxN1TiM_tYG-5" value="On-Premise" style="sketch=0;outlineConnect=0;gradientColor=none;html=1;whiteSpace=wrap;fontSize=12;fontStyle=0;shape=mxgraph.aws4.group;grIcon=mxgraph.aws4.group_on_premise;strokeColor=#AAB7B8;fillColor=none;verticalAlign=top;align=left;spacingLeft=30;fontColor=#AAB7B8;dashed=0;" vertex="1" parent="1">
          <mxGeometry x="580" y="175" width="220" height="480" as="geometry" />
        </mxCell>
        <mxCell id="xEFxBhoDUxxN1TiM_tYG-6" value="" style="sketch=0;outlineConnect=0;fontColor=#232F3E;gradientColor=none;fillColor=#C925D1;strokeColor=none;dashed=0;verticalLabelPosition=bottom;verticalAlign=top;align=center;html=1;fontSize=12;fontStyle=0;aspect=fixed;pointerEvents=1;shape=mxgraph.aws4.rds_sql_server_instance;" vertex="1" parent="1">
          <mxGeometry x="620" y="270" width="78" height="78" as="geometry" />
        </mxCell>
        <mxCell id="xEFxBhoDUxxN1TiM_tYG-7" value="" style="sketch=0;pointerEvents=1;shadow=0;dashed=0;html=1;strokeColor=none;fillColor=#505050;labelPosition=center;verticalLabelPosition=bottom;verticalAlign=top;outlineConnect=0;align=center;shape=mxgraph.office.servers.file_server;" vertex="1" parent="1">
          <mxGeometry x="700" y="384" width="45" height="56" as="geometry" />
        </mxCell>
        <mxCell id="xEFxBhoDUxxN1TiM_tYG-8" value="&lt;font style=&quot;font-size: 10px;&quot;&gt;App Service. Modules in&amp;nbsp;&lt;/font&gt;&lt;div&gt;&lt;font style=&quot;font-size: 11px;&quot;&gt;App Pool&lt;/font&gt;&lt;div&gt;&lt;span style=&quot;font-size: 14px;&quot;&gt;&lt;br&gt;&lt;/span&gt;&lt;/div&gt;&lt;/div&gt;" style="text;html=1;align=center;verticalAlign=middle;resizable=0;points=[];autosize=1;strokeColor=#d60056;fillColor=#ffeecc;" vertex="1" parent="1">
          <mxGeometry x="406" y="250" width="130" height="60" as="geometry" />
        </mxCell>
        <mxCell id="xEFxBhoDUxxN1TiM_tYG-9" value="" style="sketch=0;points=[[0,0,0],[0.25,0,0],[0.5,0,0],[0.75,0,0],[1,0,0],[0,1,0],[0.25,1,0],[0.5,1,0],[0.75,1,0],[1,1,0],[0,0.25,0],[0,0.5,0],[0,0.75,0],[1,0.25,0],[1,0.5,0],[1,0.75,0]];outlineConnect=0;fontColor=#232F3E;fillColor=#01A88D;strokeColor=#ffffff;dashed=0;verticalLabelPosition=bottom;verticalAlign=top;align=center;html=1;fontSize=12;fontStyle=0;aspect=fixed;shape=mxgraph.aws4.resourceIcon;resIcon=mxgraph.aws4.transfer_for_sftp;" vertex="1" parent="1">
          <mxGeometry x="600" y="490" width="50" height="50" as="geometry" />
        </mxCell>
        <mxCell id="xEFxBhoDUxxN1TiM_tYG-11" value="Shared File&amp;nbsp;&lt;div&gt;Systems&lt;div&gt;&lt;br&gt;&lt;/div&gt;&lt;/div&gt;" style="text;html=1;align=center;verticalAlign=middle;resizable=0;points=[];autosize=1;strokeColor=none;fillColor=none;" vertex="1" parent="1">
          <mxGeometry x="700" y="440" width="90" height="60" as="geometry" />
        </mxCell>
        <mxCell id="xEFxBhoDUxxN1TiM_tYG-12" value="SFTP internal&lt;div&gt;&lt;br&gt;&lt;/div&gt;" style="text;html=1;align=center;verticalAlign=middle;resizable=0;points=[];autosize=1;strokeColor=none;fillColor=none;" vertex="1" parent="1">
          <mxGeometry x="640" y="540" width="100" height="40" as="geometry" />
        </mxCell>
        <mxCell id="xEFxBhoDUxxN1TiM_tYG-14" value="" style="sketch=0;outlineConnect=0;fontColor=#232F3E;gradientColor=none;fillColor=#01A88D;strokeColor=none;dashed=0;verticalLabelPosition=bottom;verticalAlign=top;align=center;html=1;fontSize=12;fontStyle=0;aspect=fixed;shape=mxgraph.aws4.transfer_for_sftp_resource;" vertex="1" parent="1">
          <mxGeometry x="444" y="640" width="76" height="78" as="geometry" />
        </mxCell>
        <mxCell id="xEFxBhoDUxxN1TiM_tYG-15" value="SFTP External" style="text;html=1;align=center;verticalAlign=middle;resizable=0;points=[];autosize=1;strokeColor=none;fillColor=none;" vertex="1" parent="1">
          <mxGeometry x="530" y="678" width="100" height="30" as="geometry" />
        </mxCell>
        <mxCell id="xEFxBhoDUxxN1TiM_tYG-18" value="SSIS" style="text;html=1;align=center;verticalAlign=middle;resizable=0;points=[];autosize=1;strokeColor=none;fillColor=none;" vertex="1" parent="1">
          <mxGeometry x="710" y="294" width="50" height="30" as="geometry" />
        </mxCell>
        <mxCell id="xEFxBhoDUxxN1TiM_tYG-19" value="Reporting Services" style="text;html=1;align=center;verticalAlign=middle;resizable=0;points=[];autosize=1;strokeColor=none;fillColor=none;" vertex="1" parent="1">
          <mxGeometry x="700" y="264" width="120" height="30" as="geometry" />
        </mxCell>
        <mxCell id="xEFxBhoDUxxN1TiM_tYG-20" value="" style="shape=doubleArrow;whiteSpace=wrap;html=1;" vertex="1" parent="1">
          <mxGeometry x="520" y="390" width="60" height="30" as="geometry" />
        </mxCell>
        <mxCell id="xEFxBhoDUxxN1TiM_tYG-21" value="&lt;font style=&quot;font-size: 10px;&quot;&gt;SP&#39;s/ Triggers&lt;/font&gt;" style="text;html=1;align=center;verticalAlign=middle;resizable=0;points=[];autosize=1;strokeColor=none;fillColor=none;" vertex="1" parent="1">
          <mxGeometry x="645" y="348" width="90" height="30" as="geometry" />
        </mxCell>
        <mxCell id="xEFxBhoDUxxN1TiM_tYG-22" value="&lt;font style=&quot;font-size: 8px;&quot;&gt;C#&lt;/font&gt;" style="text;html=1;align=center;verticalAlign=middle;resizable=0;points=[];autosize=1;strokeColor=none;fillColor=none;" vertex="1" parent="1">
          <mxGeometry x="456" y="370" width="30" height="30" as="geometry" />
        </mxCell>
        <mxCell id="xEFxBhoDUxxN1TiM_tYG-23" value="&lt;font style=&quot;font-size: 9px;&quot;&gt;Python/Javascript ?&lt;/font&gt;" style="text;html=1;align=center;verticalAlign=middle;resizable=0;points=[];autosize=1;strokeColor=none;fillColor=none;" vertex="1" parent="1">
          <mxGeometry x="450" y="460" width="100" height="30" as="geometry" />
        </mxCell>
      </root>
    </mxGraphModel>
  </diagram>
</mxfile>
